%TF.GenerationSoftware,KiCad,Pcbnew,8.0.4*%
%TF.CreationDate,2024-09-13T11:56:02+01:00*%
%TF.ProjectId,MkI,4d6b492e-6b69-4636-9164-5f7063625858,rev?*%
%TF.SameCoordinates,Original*%
%TF.FileFunction,Soldermask,Bot*%
%TF.FilePolarity,Negative*%
%FSLAX46Y46*%
G04 Gerber Fmt 4.6, Leading zero omitted, Abs format (unit mm)*
G04 Created by KiCad (PCBNEW 8.0.4) date 2024-09-13 11:56:02*
%MOMM*%
%LPD*%
G01*
G04 APERTURE LIST*
G04 Aperture macros list*
%AMRoundRect*
0 Rectangle with rounded corners*
0 $1 Rounding radius*
0 $2 $3 $4 $5 $6 $7 $8 $9 X,Y pos of 4 corners*
0 Add a 4 corners polygon primitive as box body*
4,1,4,$2,$3,$4,$5,$6,$7,$8,$9,$2,$3,0*
0 Add four circle primitives for the rounded corners*
1,1,$1+$1,$2,$3*
1,1,$1+$1,$4,$5*
1,1,$1+$1,$6,$7*
1,1,$1+$1,$8,$9*
0 Add four rect primitives between the rounded corners*
20,1,$1+$1,$2,$3,$4,$5,0*
20,1,$1+$1,$4,$5,$6,$7,0*
20,1,$1+$1,$6,$7,$8,$9,0*
20,1,$1+$1,$8,$9,$2,$3,0*%
G04 Aperture macros list end*
%ADD10C,2.000000*%
%ADD11RoundRect,0.225000X-0.225000X-0.250000X0.225000X-0.250000X0.225000X0.250000X-0.225000X0.250000X0*%
%ADD12RoundRect,0.150000X0.587500X0.150000X-0.587500X0.150000X-0.587500X-0.150000X0.587500X-0.150000X0*%
%ADD13RoundRect,0.200000X-0.275000X0.200000X-0.275000X-0.200000X0.275000X-0.200000X0.275000X0.200000X0*%
%ADD14R,3.000000X2.000000*%
%ADD15RoundRect,0.150000X-0.587500X-0.150000X0.587500X-0.150000X0.587500X0.150000X-0.587500X0.150000X0*%
%ADD16RoundRect,0.150000X0.150000X-0.587500X0.150000X0.587500X-0.150000X0.587500X-0.150000X-0.587500X0*%
%ADD17C,1.000000*%
G04 APERTURE END LIST*
D10*
%TO.C,DISP1*%
X88265000Y-79375000D03*
X90805000Y-79375000D03*
X93345000Y-79375000D03*
X95885000Y-79375000D03*
X98425000Y-79375000D03*
X100965000Y-79375000D03*
X103505000Y-79375000D03*
X106045000Y-79375000D03*
X108585000Y-79375000D03*
X108585000Y-94615000D03*
X106045000Y-94615000D03*
X103505000Y-94615000D03*
X100965000Y-94615000D03*
X98425000Y-94615000D03*
X95885000Y-94615000D03*
X93345000Y-94615000D03*
X90805000Y-94615000D03*
X88265000Y-94615000D03*
%TD*%
D11*
%TO.C,C1*%
X97450000Y-85545000D03*
X95900000Y-85545000D03*
%TD*%
D12*
%TO.C,Q1*%
X92137500Y-82807500D03*
X94012500Y-83757500D03*
X94012500Y-81857500D03*
%TD*%
D13*
%TO.C,R1*%
X100975000Y-83732500D03*
X100975000Y-82082500D03*
%TD*%
D14*
%TO.C,J2*%
X109325000Y-89535000D03*
X109325000Y-86995000D03*
X109325000Y-84455000D03*
%TD*%
D15*
%TO.C,Q2*%
X104712500Y-82807500D03*
X102837500Y-81857500D03*
X102837500Y-83757500D03*
%TD*%
D16*
%TO.C,Q3*%
X98425000Y-81866500D03*
X97475000Y-83741500D03*
X99375000Y-83741500D03*
%TD*%
D13*
%TO.C,R2*%
X95875000Y-83507500D03*
X95875000Y-81857500D03*
%TD*%
D17*
%TO.C,TP1*%
X100875000Y-88745000D03*
%TD*%
D14*
%TO.C,J1*%
X87525000Y-89535000D03*
X87525000Y-86995000D03*
X87525000Y-84455000D03*
%TD*%
D11*
%TO.C,C2*%
X97450000Y-87095000D03*
X95900000Y-87095000D03*
%TD*%
M02*
