M48
; DRILL file {KiCad 8.0.4} date 2024-09-13T11:55:56+0100
; FORMAT={-:-/ absolute / inch / decimal}
; #@! TF.CreationDate,2024-09-13T11:55:56+01:00
; #@! TF.GenerationSoftware,Kicad,Pcbnew,8.0.4
; #@! TF.FileFunction,Plated,1,2,PTH
FMAT,2
INCH
; #@! TA.AperFunction,Plated,PTH,ViaDrill
T1C0.0118
; #@! TA.AperFunction,Plated,PTH,ComponentDrill
T2C0.0472
%
G90
G05
T1
X3.4349Y-3.5898
X3.5215Y-3.5898
X3.5246Y-3.425
X3.527Y-3.7781
X3.5531Y-3.2606
X3.6073Y-3.297
X3.6081Y-3.5898
X3.6467Y-3.297
X3.7018Y-3.2601
X3.727Y-3.7781
X3.7854Y-3.2715
X3.8376Y-3.2596
X3.8494Y-3.4742
X3.8758Y-3.5898
X3.925Y-3.675
X3.927Y-3.1781
X3.939Y-3.5825
X3.9419Y-3.2321
X4.027Y-3.7781
X4.0482Y-3.2601
X4.123Y-3.299
X4.1416Y-3.5898
X4.1969Y-3.2606
X4.2242Y-3.3969
X4.2242Y-3.452
X4.227Y-3.7781
X4.2282Y-3.5898
X4.3148Y-3.5898
T2
X3.475Y-3.125
X3.475Y-3.725
X3.575Y-3.125
X3.575Y-3.725
X3.675Y-3.125
X3.675Y-3.725
X3.775Y-3.125
X3.775Y-3.725
X3.875Y-3.125
X3.875Y-3.725
X3.975Y-3.125
X3.975Y-3.725
X4.075Y-3.125
X4.075Y-3.725
X4.175Y-3.125
X4.175Y-3.725
X4.275Y-3.125
X4.275Y-3.725
M30
