%TF.GenerationSoftware,KiCad,Pcbnew,8.0.4*%
%TF.CreationDate,2024-09-13T11:56:02+01:00*%
%TF.ProjectId,MkI,4d6b492e-6b69-4636-9164-5f7063625858,rev?*%
%TF.SameCoordinates,Original*%
%TF.FileFunction,Legend,Bot*%
%TF.FilePolarity,Positive*%
%FSLAX46Y46*%
G04 Gerber Fmt 4.6, Leading zero omitted, Abs format (unit mm)*
G04 Created by KiCad (PCBNEW 8.0.4) date 2024-09-13 11:56:02*
%MOMM*%
%LPD*%
G01*
G04 APERTURE LIST*
%ADD10C,0.000000*%
%ADD11C,0.125000*%
%ADD12C,0.150000*%
%ADD13C,0.120000*%
G04 APERTURE END LIST*
D10*
G36*
X101458212Y-91092572D02*
G01*
X101462797Y-91098772D01*
X101467032Y-91104922D01*
X101470925Y-91111040D01*
X101474483Y-91117142D01*
X101477713Y-91123242D01*
X101480624Y-91129359D01*
X101483221Y-91135508D01*
X101485514Y-91141706D01*
X101487509Y-91147969D01*
X101489214Y-91154313D01*
X101490636Y-91160754D01*
X101491782Y-91167309D01*
X101492661Y-91173995D01*
X101493280Y-91180826D01*
X101493645Y-91187821D01*
X101493766Y-91194994D01*
X101493582Y-91203179D01*
X101493038Y-91211120D01*
X101492146Y-91218816D01*
X101490919Y-91226265D01*
X101489368Y-91233467D01*
X101487506Y-91240420D01*
X101485344Y-91247125D01*
X101482895Y-91253578D01*
X101480170Y-91259781D01*
X101477183Y-91265731D01*
X101473944Y-91271427D01*
X101470466Y-91276870D01*
X101466762Y-91282056D01*
X101462842Y-91286986D01*
X101458720Y-91291659D01*
X101454407Y-91296073D01*
X101449916Y-91300227D01*
X101445258Y-91304121D01*
X101440445Y-91307753D01*
X101435490Y-91311122D01*
X101430405Y-91314228D01*
X101425202Y-91317069D01*
X101419893Y-91319645D01*
X101414489Y-91321953D01*
X101409004Y-91323994D01*
X101403449Y-91325766D01*
X101397836Y-91327268D01*
X101392178Y-91328500D01*
X101386486Y-91329459D01*
X101380772Y-91330146D01*
X101375049Y-91330559D01*
X101369329Y-91330697D01*
X101362748Y-91330566D01*
X101356335Y-91330167D01*
X101350077Y-91329493D01*
X101343964Y-91328535D01*
X101337985Y-91327285D01*
X101332128Y-91325734D01*
X101326383Y-91323876D01*
X101320738Y-91321701D01*
X101315182Y-91319202D01*
X101309704Y-91316370D01*
X101304294Y-91313198D01*
X101298940Y-91309677D01*
X101293630Y-91305798D01*
X101288355Y-91301554D01*
X101283102Y-91296938D01*
X101277861Y-91291939D01*
X100632733Y-90583094D01*
X100630294Y-90580532D01*
X100627747Y-90578046D01*
X100625103Y-90575649D01*
X100622372Y-90573353D01*
X100619568Y-90571170D01*
X100616700Y-90569112D01*
X100613780Y-90567192D01*
X100610819Y-90565422D01*
X100607828Y-90563814D01*
X100604818Y-90562381D01*
X100601802Y-90561135D01*
X100598789Y-90560087D01*
X100595791Y-90559251D01*
X100592819Y-90558639D01*
X100589885Y-90558262D01*
X100588435Y-90558166D01*
X100586999Y-90558134D01*
X99416063Y-90558134D01*
X99414426Y-90558167D01*
X99412848Y-90558264D01*
X99411328Y-90558425D01*
X99409866Y-90558649D01*
X99408462Y-90558937D01*
X99407115Y-90559287D01*
X99405824Y-90559699D01*
X99404590Y-90560172D01*
X99403411Y-90560707D01*
X99402288Y-90561302D01*
X99401220Y-90561956D01*
X99400205Y-90562670D01*
X99399245Y-90563443D01*
X99398338Y-90564275D01*
X99397485Y-90565164D01*
X99396683Y-90566110D01*
X99395934Y-90567113D01*
X99395237Y-90568173D01*
X99394591Y-90569288D01*
X99393995Y-90570458D01*
X99393450Y-90571684D01*
X99392954Y-90572963D01*
X99392508Y-90574296D01*
X99392111Y-90575682D01*
X99391762Y-90577121D01*
X99391461Y-90578612D01*
X99391208Y-90580155D01*
X99391002Y-90581748D01*
X99390729Y-90585087D01*
X99390638Y-90588623D01*
X99390638Y-91269770D01*
X99390520Y-91272850D01*
X99390372Y-91274360D01*
X99390164Y-91275848D01*
X99389897Y-91277311D01*
X99389571Y-91278748D01*
X99389185Y-91280157D01*
X99388740Y-91281535D01*
X99388236Y-91282880D01*
X99387672Y-91284191D01*
X99387048Y-91285466D01*
X99386366Y-91286702D01*
X99385623Y-91287897D01*
X99384822Y-91289050D01*
X99383961Y-91290158D01*
X99383040Y-91291219D01*
X99382060Y-91292232D01*
X99381020Y-91293194D01*
X99379920Y-91294103D01*
X99378761Y-91294958D01*
X99377543Y-91295755D01*
X99376265Y-91296494D01*
X99374927Y-91297173D01*
X99373529Y-91297788D01*
X99372072Y-91298339D01*
X99370556Y-91298822D01*
X99368979Y-91299237D01*
X99367343Y-91299581D01*
X99365647Y-91299852D01*
X99363891Y-91300048D01*
X99362076Y-91300167D01*
X99360201Y-91300208D01*
X98674351Y-91300208D01*
X98665170Y-91299943D01*
X98656202Y-91299160D01*
X98647452Y-91297877D01*
X98638927Y-91296110D01*
X98630631Y-91293877D01*
X98622568Y-91291195D01*
X98614745Y-91288081D01*
X98607166Y-91284553D01*
X98599837Y-91280627D01*
X98592762Y-91276321D01*
X98585947Y-91271652D01*
X98579396Y-91266637D01*
X98573115Y-91261294D01*
X98567109Y-91255640D01*
X98561383Y-91249691D01*
X98555943Y-91243466D01*
X98550792Y-91236981D01*
X98545937Y-91230254D01*
X98541382Y-91223302D01*
X98537133Y-91216142D01*
X98533194Y-91208791D01*
X98529571Y-91201266D01*
X98526269Y-91193586D01*
X98523293Y-91185766D01*
X98520647Y-91177825D01*
X98518338Y-91169779D01*
X98516371Y-91161645D01*
X98514749Y-91153442D01*
X98513479Y-91145185D01*
X98512566Y-91136893D01*
X98512014Y-91128582D01*
X98511829Y-91120270D01*
X98511829Y-89661028D01*
X99390638Y-89661028D01*
X99390638Y-90314476D01*
X99390729Y-90318956D01*
X99391002Y-90323059D01*
X99391461Y-90326797D01*
X99392111Y-90330181D01*
X99392508Y-90331745D01*
X99392954Y-90333226D01*
X99393450Y-90334624D01*
X99393995Y-90335941D01*
X99394591Y-90337180D01*
X99395237Y-90338340D01*
X99395934Y-90339425D01*
X99396683Y-90340435D01*
X99397485Y-90341373D01*
X99398338Y-90342238D01*
X99399245Y-90343034D01*
X99400205Y-90343762D01*
X99401220Y-90344422D01*
X99402288Y-90345017D01*
X99403411Y-90345548D01*
X99404590Y-90346017D01*
X99405824Y-90346425D01*
X99407115Y-90346773D01*
X99409866Y-90347299D01*
X99412848Y-90347605D01*
X99416063Y-90347704D01*
X100018042Y-90347704D01*
X100022209Y-90347638D01*
X100026133Y-90347429D01*
X100029812Y-90347067D01*
X100033241Y-90346538D01*
X100036418Y-90345831D01*
X100039337Y-90344934D01*
X100040700Y-90344410D01*
X100041996Y-90343834D01*
X100043227Y-90343204D01*
X100044391Y-90342519D01*
X100045489Y-90341777D01*
X100046518Y-90340976D01*
X100047480Y-90340116D01*
X100048374Y-90339195D01*
X100049198Y-90338211D01*
X100049954Y-90337162D01*
X100050640Y-90336047D01*
X100051255Y-90334865D01*
X100051800Y-90333614D01*
X100052273Y-90332292D01*
X100052675Y-90330899D01*
X100053005Y-90329431D01*
X100053263Y-90327889D01*
X100053447Y-90326270D01*
X100053558Y-90324573D01*
X100053595Y-90322796D01*
X100053536Y-90320720D01*
X100053357Y-90318643D01*
X100053059Y-90316566D01*
X100052642Y-90314489D01*
X100052106Y-90312413D01*
X100051451Y-90310336D01*
X100050676Y-90308259D01*
X100049783Y-90306182D01*
X100048771Y-90304106D01*
X100047639Y-90302029D01*
X100046388Y-90299952D01*
X100045019Y-90297875D01*
X100043530Y-90295799D01*
X100041923Y-90293722D01*
X100040196Y-90291645D01*
X100038351Y-90289568D01*
X99436372Y-89633329D01*
X99435881Y-89632315D01*
X99435362Y-89631349D01*
X99434816Y-89630429D01*
X99434245Y-89629554D01*
X99433649Y-89628725D01*
X99433031Y-89627938D01*
X99432391Y-89627195D01*
X99431732Y-89626493D01*
X99431054Y-89625831D01*
X99430358Y-89625209D01*
X99429647Y-89624626D01*
X99428922Y-89624080D01*
X99428183Y-89623571D01*
X99427433Y-89623097D01*
X99426673Y-89622657D01*
X99425904Y-89622251D01*
X99425128Y-89621878D01*
X99424345Y-89621536D01*
X99422767Y-89620942D01*
X99421182Y-89620461D01*
X99419600Y-89620087D01*
X99418033Y-89619809D01*
X99416492Y-89619621D01*
X99414988Y-89619514D01*
X99413531Y-89619480D01*
X99412125Y-89619529D01*
X99410763Y-89619673D01*
X99409445Y-89619912D01*
X99408172Y-89620243D01*
X99406943Y-89620666D01*
X99405759Y-89621179D01*
X99404620Y-89621780D01*
X99403525Y-89622468D01*
X99402474Y-89623240D01*
X99401469Y-89624097D01*
X99400507Y-89625036D01*
X99399591Y-89626055D01*
X99398718Y-89627154D01*
X99397891Y-89628330D01*
X99397108Y-89629582D01*
X99396370Y-89630909D01*
X99395676Y-89632309D01*
X99395027Y-89633780D01*
X99394423Y-89635321D01*
X99393864Y-89636931D01*
X99393349Y-89638607D01*
X99392878Y-89640349D01*
X99392453Y-89642155D01*
X99392072Y-89644023D01*
X99391736Y-89645952D01*
X99391445Y-89647940D01*
X99391199Y-89649986D01*
X99390997Y-89652088D01*
X99390840Y-89654245D01*
X99390728Y-89656455D01*
X99390661Y-89658716D01*
X99390638Y-89661028D01*
X98511829Y-89661028D01*
X98511829Y-89500421D01*
X98512029Y-89489916D01*
X98512627Y-89479691D01*
X98513618Y-89469749D01*
X98514999Y-89460093D01*
X98516765Y-89450726D01*
X98518911Y-89441654D01*
X98521435Y-89432878D01*
X98524331Y-89424404D01*
X98527595Y-89416233D01*
X98531224Y-89408370D01*
X98535212Y-89400819D01*
X98539556Y-89393582D01*
X98544252Y-89386663D01*
X98549296Y-89380067D01*
X98554682Y-89373796D01*
X98560408Y-89367854D01*
X98566468Y-89362245D01*
X98572859Y-89356972D01*
X98579577Y-89352038D01*
X98586617Y-89347448D01*
X98593975Y-89343204D01*
X98601647Y-89339311D01*
X98609629Y-89335772D01*
X98617916Y-89332591D01*
X98626505Y-89329770D01*
X98635390Y-89327314D01*
X98644569Y-89325226D01*
X98654037Y-89323510D01*
X98663789Y-89322168D01*
X98673822Y-89321206D01*
X98684131Y-89320626D01*
X98694712Y-89320432D01*
X99687830Y-89320429D01*
X99708205Y-89320789D01*
X99727478Y-89321883D01*
X99745741Y-89323732D01*
X99763081Y-89326355D01*
X99779587Y-89329773D01*
X99795350Y-89334006D01*
X99810458Y-89339075D01*
X99825000Y-89345000D01*
X99839067Y-89351801D01*
X99852746Y-89359498D01*
X99866127Y-89368112D01*
X99879300Y-89377662D01*
X99892354Y-89388171D01*
X99905377Y-89399656D01*
X99918460Y-89412140D01*
X99931691Y-89425642D01*
X100753276Y-90322796D01*
X101458212Y-91092572D01*
G37*
G36*
X102960567Y-92766502D02*
G01*
X103039976Y-92853342D01*
X103044016Y-92858912D01*
X103047575Y-92864768D01*
X103050661Y-92870881D01*
X103053283Y-92877220D01*
X103055449Y-92883755D01*
X103057168Y-92890455D01*
X103058448Y-92897290D01*
X103059297Y-92904230D01*
X103059726Y-92911243D01*
X103059741Y-92918300D01*
X103059351Y-92925371D01*
X103058566Y-92932424D01*
X103057393Y-92939430D01*
X103055841Y-92946358D01*
X103053919Y-92953177D01*
X103051635Y-92959858D01*
X103048997Y-92966369D01*
X103046015Y-92972681D01*
X103042697Y-92978763D01*
X103039051Y-92984584D01*
X103035086Y-92990114D01*
X103030810Y-92995323D01*
X103026232Y-93000180D01*
X103021361Y-93004655D01*
X103016204Y-93008717D01*
X103010772Y-93012337D01*
X103005071Y-93015483D01*
X102999111Y-93018125D01*
X102992900Y-93020233D01*
X102986447Y-93021777D01*
X102979760Y-93022725D01*
X102972848Y-93023048D01*
X100416157Y-93023408D01*
X100393501Y-93022913D01*
X100371414Y-93021444D01*
X100349906Y-93019022D01*
X100328988Y-93015667D01*
X100308668Y-93011403D01*
X100288958Y-93006249D01*
X100269865Y-93000228D01*
X100251402Y-92993362D01*
X100233576Y-92985670D01*
X100216399Y-92977175D01*
X100199879Y-92967899D01*
X100184027Y-92957862D01*
X100168853Y-92947086D01*
X100154366Y-92935593D01*
X100140576Y-92923404D01*
X100127493Y-92910540D01*
X100115127Y-92897023D01*
X100103487Y-92882875D01*
X100092584Y-92868116D01*
X100082427Y-92852768D01*
X100073027Y-92836852D01*
X100064392Y-92820391D01*
X100056533Y-92803405D01*
X100049460Y-92785916D01*
X100043182Y-92767945D01*
X100037709Y-92749514D01*
X100033051Y-92730644D01*
X100029218Y-92711356D01*
X100026220Y-92691673D01*
X100024066Y-92671614D01*
X100022766Y-92651203D01*
X100022331Y-92630460D01*
X100022870Y-92598746D01*
X100024487Y-92568177D01*
X100025254Y-92559820D01*
X100620692Y-92559820D01*
X100621326Y-92586558D01*
X100623251Y-92612090D01*
X100626509Y-92636345D01*
X100631138Y-92659250D01*
X100637178Y-92680733D01*
X100644667Y-92700723D01*
X100648968Y-92710135D01*
X100653646Y-92719147D01*
X100658706Y-92727750D01*
X100664154Y-92735934D01*
X100669993Y-92743691D01*
X100676229Y-92751011D01*
X100682867Y-92757886D01*
X100689912Y-92764307D01*
X100697369Y-92770265D01*
X100705242Y-92775750D01*
X100713536Y-92780754D01*
X100722257Y-92785268D01*
X100731410Y-92789282D01*
X100740998Y-92792788D01*
X100751028Y-92795777D01*
X100761504Y-92798240D01*
X100772431Y-92800167D01*
X100783814Y-92801550D01*
X100795658Y-92802380D01*
X100807968Y-92802647D01*
X102473706Y-92801977D01*
X102476210Y-92801712D01*
X102478640Y-92801266D01*
X102480991Y-92800645D01*
X102483259Y-92799858D01*
X102485441Y-92798913D01*
X102487532Y-92797818D01*
X102489529Y-92796582D01*
X102491428Y-92795211D01*
X102493225Y-92793715D01*
X102494915Y-92792102D01*
X102496495Y-92790379D01*
X102497961Y-92788554D01*
X102499309Y-92786636D01*
X102500535Y-92784633D01*
X102501636Y-92782553D01*
X102502606Y-92780403D01*
X102503443Y-92778192D01*
X102504142Y-92775928D01*
X102504699Y-92773619D01*
X102505111Y-92771272D01*
X102505374Y-92768897D01*
X102505483Y-92766502D01*
X102505435Y-92764093D01*
X102505225Y-92761679D01*
X102504850Y-92759269D01*
X102504306Y-92756871D01*
X102503589Y-92754492D01*
X102502695Y-92752140D01*
X102501620Y-92749824D01*
X102500360Y-92747551D01*
X102498912Y-92745331D01*
X102497270Y-92743170D01*
X102144940Y-92356010D01*
X102142784Y-92353736D01*
X102140508Y-92351548D01*
X102138087Y-92349455D01*
X102135494Y-92347466D01*
X102134125Y-92346513D01*
X102132702Y-92345589D01*
X102131224Y-92344695D01*
X102129685Y-92343833D01*
X102128084Y-92343002D01*
X102126416Y-92342205D01*
X102124679Y-92341443D01*
X102122869Y-92340715D01*
X102120982Y-92340025D01*
X102119016Y-92339372D01*
X102116968Y-92338757D01*
X102114832Y-92338183D01*
X102112608Y-92337649D01*
X102110290Y-92337156D01*
X102107876Y-92336707D01*
X102105363Y-92336302D01*
X102102747Y-92335942D01*
X102100025Y-92335628D01*
X102097193Y-92335361D01*
X102094248Y-92335142D01*
X102091187Y-92334973D01*
X102088007Y-92334854D01*
X102084704Y-92334786D01*
X102081275Y-92334771D01*
X101444620Y-92335862D01*
X100807968Y-92339060D01*
X100807968Y-92339058D01*
X100796667Y-92339363D01*
X100785704Y-92340171D01*
X100775081Y-92341475D01*
X100764797Y-92343267D01*
X100754856Y-92345538D01*
X100745258Y-92348282D01*
X100736004Y-92351490D01*
X100727096Y-92355155D01*
X100718536Y-92359268D01*
X100710324Y-92363823D01*
X100702463Y-92368810D01*
X100694953Y-92374223D01*
X100687795Y-92380054D01*
X100680992Y-92386295D01*
X100674545Y-92392937D01*
X100668455Y-92399974D01*
X100662723Y-92407397D01*
X100657351Y-92415199D01*
X100652340Y-92423372D01*
X100647691Y-92431908D01*
X100643407Y-92440799D01*
X100639488Y-92450037D01*
X100635935Y-92459616D01*
X100632751Y-92469526D01*
X100629936Y-92479760D01*
X100627492Y-92490311D01*
X100625420Y-92501170D01*
X100623722Y-92512330D01*
X100622398Y-92523782D01*
X100621452Y-92535520D01*
X100620882Y-92547535D01*
X100620692Y-92559820D01*
X100025254Y-92559820D01*
X100027186Y-92538759D01*
X100030969Y-92510499D01*
X100035839Y-92483403D01*
X100041798Y-92457477D01*
X100048850Y-92432728D01*
X100056996Y-92409163D01*
X100066241Y-92386788D01*
X100076585Y-92365609D01*
X100088033Y-92345633D01*
X100100586Y-92326866D01*
X100114247Y-92309315D01*
X100129020Y-92292987D01*
X100144906Y-92277887D01*
X100161909Y-92264023D01*
X100164708Y-92261125D01*
X100167367Y-92258224D01*
X100169881Y-92255315D01*
X100172244Y-92252397D01*
X100174450Y-92249466D01*
X100176494Y-92246519D01*
X100178369Y-92243552D01*
X100180072Y-92240563D01*
X100181595Y-92237547D01*
X100182933Y-92234503D01*
X100184080Y-92231426D01*
X100185032Y-92228314D01*
X100185782Y-92225163D01*
X100186324Y-92221971D01*
X100186654Y-92218733D01*
X100186765Y-92215447D01*
X100186655Y-92212915D01*
X100186332Y-92210299D01*
X100185807Y-92207618D01*
X100185092Y-92204892D01*
X100184197Y-92202140D01*
X100183134Y-92199381D01*
X100181915Y-92196635D01*
X100180550Y-92193922D01*
X100179050Y-92191260D01*
X100177427Y-92188670D01*
X100175693Y-92186170D01*
X100173857Y-92183780D01*
X100171932Y-92181519D01*
X100169929Y-92179407D01*
X100167859Y-92177464D01*
X100165733Y-92175708D01*
X100151401Y-92163726D01*
X100137812Y-92150941D01*
X100124990Y-92137322D01*
X100112961Y-92122840D01*
X100101749Y-92107466D01*
X100091380Y-92091171D01*
X100081880Y-92073926D01*
X100073273Y-92055701D01*
X100065584Y-92036467D01*
X100058839Y-92016195D01*
X100053062Y-91994856D01*
X100048280Y-91972420D01*
X100044516Y-91948859D01*
X100041797Y-91924142D01*
X100040147Y-91898241D01*
X100039591Y-91871127D01*
X100040415Y-91838807D01*
X100632020Y-91838807D01*
X100632674Y-91865237D01*
X100634656Y-91890656D01*
X100637993Y-91914967D01*
X100642713Y-91938074D01*
X100648844Y-91959878D01*
X100656414Y-91980282D01*
X100660748Y-91989930D01*
X100665452Y-91999191D01*
X100670530Y-92008054D01*
X100675985Y-92016507D01*
X100681821Y-92024537D01*
X100688041Y-92032132D01*
X100694649Y-92039280D01*
X100701648Y-92045970D01*
X100709043Y-92052188D01*
X100716835Y-92057923D01*
X100725029Y-92063163D01*
X100733629Y-92067895D01*
X100742637Y-92072107D01*
X100752057Y-92075788D01*
X100761894Y-92078925D01*
X100772149Y-92081506D01*
X100782828Y-92083519D01*
X100793933Y-92084951D01*
X100805467Y-92085791D01*
X100817435Y-92086027D01*
X101816392Y-92079619D01*
X101818050Y-92079600D01*
X101819755Y-92079432D01*
X101821495Y-92079117D01*
X101823259Y-92078657D01*
X101825033Y-92078057D01*
X101826807Y-92077318D01*
X101828566Y-92076444D01*
X101830300Y-92075437D01*
X101831996Y-92074300D01*
X101833641Y-92073037D01*
X101835225Y-92071649D01*
X101836733Y-92070140D01*
X101838155Y-92068513D01*
X101839478Y-92066770D01*
X101840690Y-92064915D01*
X101841779Y-92062950D01*
X101842732Y-92060878D01*
X101843537Y-92058701D01*
X101844182Y-92056424D01*
X101844655Y-92054048D01*
X101844944Y-92051576D01*
X101845036Y-92049012D01*
X101844920Y-92046358D01*
X101844582Y-92043617D01*
X101844011Y-92040792D01*
X101843195Y-92037885D01*
X101842122Y-92034900D01*
X101840778Y-92031840D01*
X101839153Y-92028707D01*
X101837233Y-92025504D01*
X101835008Y-92022233D01*
X101832463Y-92018899D01*
X101485870Y-91637372D01*
X101483725Y-91634593D01*
X101482685Y-91633332D01*
X101481659Y-91632152D01*
X101480643Y-91631051D01*
X101479631Y-91630026D01*
X101478618Y-91629075D01*
X101477598Y-91628194D01*
X101476567Y-91627382D01*
X101475518Y-91626635D01*
X101474448Y-91625952D01*
X101473350Y-91625328D01*
X101472219Y-91624762D01*
X101471051Y-91624250D01*
X101469839Y-91623791D01*
X101468579Y-91623381D01*
X101467265Y-91623018D01*
X101465892Y-91622699D01*
X101464455Y-91622421D01*
X101462949Y-91622182D01*
X101461368Y-91621979D01*
X101459708Y-91621809D01*
X101456125Y-91621559D01*
X101452161Y-91621409D01*
X101447772Y-91621339D01*
X101437552Y-91621352D01*
X100817435Y-91620267D01*
X100806308Y-91620520D01*
X100795507Y-91621282D01*
X100785035Y-91622546D01*
X100774893Y-91624301D01*
X100765083Y-91626541D01*
X100755606Y-91629256D01*
X100746465Y-91632438D01*
X100737660Y-91636078D01*
X100729194Y-91640168D01*
X100721069Y-91644699D01*
X100713287Y-91649663D01*
X100705848Y-91655052D01*
X100698755Y-91660856D01*
X100692010Y-91667068D01*
X100685614Y-91673678D01*
X100679569Y-91680678D01*
X100673876Y-91688060D01*
X100668539Y-91695816D01*
X100663557Y-91703936D01*
X100658934Y-91712412D01*
X100654671Y-91721236D01*
X100650769Y-91730399D01*
X100647230Y-91739893D01*
X100644056Y-91749708D01*
X100641250Y-91759838D01*
X100638811Y-91770272D01*
X100636744Y-91781003D01*
X100635048Y-91792022D01*
X100633726Y-91803320D01*
X100632779Y-91814889D01*
X100632210Y-91826721D01*
X100632020Y-91838807D01*
X100040415Y-91838807D01*
X100040697Y-91827738D01*
X100044131Y-91785470D01*
X100050065Y-91744556D01*
X100058673Y-91705227D01*
X100070128Y-91667713D01*
X100076978Y-91649710D01*
X100084603Y-91632248D01*
X100093027Y-91615356D01*
X100102271Y-91599062D01*
X100112357Y-91583396D01*
X100123306Y-91568387D01*
X100135139Y-91554063D01*
X100147879Y-91540454D01*
X100161547Y-91527588D01*
X100176165Y-91515495D01*
X100191754Y-91504203D01*
X100208336Y-91493741D01*
X100225933Y-91484139D01*
X100244566Y-91475424D01*
X100264256Y-91467627D01*
X100285027Y-91460776D01*
X100306898Y-91454900D01*
X100329893Y-91450027D01*
X100354032Y-91446188D01*
X100379336Y-91443410D01*
X100405829Y-91441723D01*
X100433531Y-91441156D01*
X101677992Y-91435806D01*
X101699274Y-91435833D01*
X101708071Y-91435934D01*
X101715802Y-91436155D01*
X101722593Y-91436544D01*
X101728565Y-91437145D01*
X101733844Y-91438007D01*
X101738553Y-91439174D01*
X101742816Y-91440695D01*
X101746756Y-91442614D01*
X101750496Y-91444979D01*
X101754162Y-91447835D01*
X101757876Y-91451230D01*
X101761762Y-91455209D01*
X101765943Y-91459819D01*
X101770544Y-91465107D01*
X102304480Y-92049012D01*
X102960567Y-92766502D01*
G37*
G36*
X97506671Y-91438836D02*
G01*
X97507989Y-91438932D01*
X97509233Y-91439092D01*
X97510406Y-91439314D01*
X97511508Y-91439597D01*
X97512542Y-91439942D01*
X97513511Y-91440347D01*
X97514416Y-91440810D01*
X97515259Y-91441332D01*
X97516043Y-91441912D01*
X97516769Y-91442549D01*
X97517441Y-91443241D01*
X97518059Y-91443988D01*
X97518625Y-91444790D01*
X97519143Y-91445646D01*
X97519614Y-91446554D01*
X97520040Y-91447514D01*
X97520424Y-91448525D01*
X97520767Y-91449586D01*
X97521071Y-91450697D01*
X97521339Y-91451856D01*
X97521573Y-91453063D01*
X97521774Y-91454318D01*
X97521946Y-91455618D01*
X97522206Y-91458354D01*
X97522372Y-91461265D01*
X97522459Y-91464345D01*
X97522484Y-91467587D01*
X97522484Y-91629179D01*
X97522394Y-91632811D01*
X97522125Y-91636232D01*
X97521677Y-91639440D01*
X97521050Y-91642430D01*
X97520243Y-91645200D01*
X97519772Y-91646501D01*
X97519257Y-91647746D01*
X97518696Y-91648934D01*
X97518091Y-91650065D01*
X97517441Y-91651139D01*
X97516747Y-91652154D01*
X97516007Y-91653111D01*
X97515223Y-91654010D01*
X97514394Y-91654849D01*
X97513520Y-91655628D01*
X97512601Y-91656348D01*
X97511638Y-91657007D01*
X97510630Y-91657605D01*
X97509577Y-91658143D01*
X97508479Y-91658618D01*
X97507336Y-91659031D01*
X97506149Y-91659382D01*
X97504916Y-91659670D01*
X97503639Y-91659895D01*
X97502318Y-91660056D01*
X97500951Y-91660153D01*
X97499540Y-91660185D01*
X97130621Y-91660185D01*
X97128180Y-91660263D01*
X97125876Y-91660495D01*
X97124776Y-91660670D01*
X97123712Y-91660883D01*
X97122683Y-91661135D01*
X97121690Y-91661426D01*
X97120734Y-91661755D01*
X97119814Y-91662124D01*
X97118932Y-91662531D01*
X97118086Y-91662977D01*
X97117279Y-91663462D01*
X97116510Y-91663986D01*
X97115779Y-91664549D01*
X97115088Y-91665151D01*
X97114435Y-91665792D01*
X97113822Y-91666471D01*
X97113249Y-91667190D01*
X97112716Y-91667947D01*
X97112223Y-91668744D01*
X97111772Y-91669579D01*
X97111362Y-91670454D01*
X97110994Y-91671367D01*
X97110667Y-91672320D01*
X97110383Y-91673311D01*
X97110142Y-91674342D01*
X97109944Y-91675411D01*
X97109789Y-91676520D01*
X97109678Y-91677668D01*
X97109611Y-91678855D01*
X97109589Y-91680081D01*
X97109589Y-92877733D01*
X97109014Y-92891024D01*
X97107316Y-92904256D01*
X97104538Y-92917321D01*
X97100721Y-92930106D01*
X97095908Y-92942503D01*
X97090140Y-92954401D01*
X97083459Y-92965690D01*
X97075908Y-92976258D01*
X97071819Y-92981238D01*
X97067528Y-92985996D01*
X97063040Y-92990520D01*
X97058361Y-92994794D01*
X97053495Y-92998806D01*
X97048449Y-93002541D01*
X97043226Y-93005986D01*
X97037834Y-93009127D01*
X97032276Y-93011950D01*
X97026558Y-93014441D01*
X97020685Y-93016587D01*
X97014663Y-93018374D01*
X97008496Y-93019788D01*
X97002190Y-93020814D01*
X96995751Y-93021441D01*
X96989183Y-93021652D01*
X96474951Y-93021652D01*
X96473193Y-93021620D01*
X96471501Y-93021524D01*
X96469876Y-93021367D01*
X96468316Y-93021149D01*
X96466820Y-93020873D01*
X96465388Y-93020540D01*
X96464019Y-93020151D01*
X96462713Y-93019709D01*
X96461469Y-93019215D01*
X96460285Y-93018670D01*
X96459162Y-93018077D01*
X96458098Y-93017437D01*
X96457094Y-93016751D01*
X96456147Y-93016021D01*
X96455258Y-93015250D01*
X96454425Y-93014437D01*
X96453649Y-93013586D01*
X96452928Y-93012698D01*
X96452261Y-93011773D01*
X96451648Y-93010815D01*
X96451089Y-93009825D01*
X96450581Y-93008804D01*
X96450126Y-93007753D01*
X96449721Y-93006675D01*
X96449367Y-93005572D01*
X96449062Y-93004444D01*
X96448599Y-93002122D01*
X96448325Y-92999724D01*
X96448235Y-92997261D01*
X96448235Y-91680081D01*
X96448207Y-91678855D01*
X96448125Y-91677669D01*
X96447989Y-91676521D01*
X96447801Y-91675413D01*
X96447564Y-91674343D01*
X96447277Y-91673313D01*
X96446942Y-91672321D01*
X96446561Y-91671369D01*
X96446136Y-91670456D01*
X96445667Y-91669581D01*
X96445156Y-91668746D01*
X96444604Y-91667949D01*
X96444013Y-91667192D01*
X96443385Y-91666473D01*
X96442720Y-91665793D01*
X96442020Y-91665153D01*
X96441286Y-91664551D01*
X96440520Y-91663988D01*
X96439723Y-91663464D01*
X96438897Y-91662979D01*
X96438043Y-91662532D01*
X96437163Y-91662125D01*
X96436257Y-91661756D01*
X96435327Y-91661426D01*
X96434375Y-91661136D01*
X96433402Y-91660883D01*
X96432410Y-91660670D01*
X96431399Y-91660496D01*
X96430371Y-91660360D01*
X96429328Y-91660263D01*
X96427202Y-91660186D01*
X96054460Y-91660186D01*
X96053222Y-91660153D01*
X96052018Y-91660056D01*
X96050849Y-91659895D01*
X96049714Y-91659670D01*
X96048614Y-91659382D01*
X96047550Y-91659032D01*
X96046521Y-91658618D01*
X96045528Y-91658143D01*
X96044572Y-91657606D01*
X96043652Y-91657007D01*
X96042770Y-91656348D01*
X96041925Y-91655629D01*
X96041118Y-91654849D01*
X96040348Y-91654010D01*
X96039618Y-91653112D01*
X96038926Y-91652154D01*
X96038273Y-91651139D01*
X96037660Y-91650065D01*
X96037087Y-91648934D01*
X96036554Y-91647746D01*
X96036062Y-91646501D01*
X96035611Y-91645200D01*
X96035201Y-91643843D01*
X96034832Y-91642430D01*
X96034506Y-91640962D01*
X96034222Y-91639440D01*
X96033981Y-91637863D01*
X96033782Y-91636233D01*
X96033628Y-91634548D01*
X96033517Y-91632811D01*
X96033450Y-91631022D01*
X96033428Y-91629180D01*
X96033428Y-91467587D01*
X96033474Y-91464345D01*
X96033622Y-91461266D01*
X96033882Y-91458354D01*
X96034264Y-91455618D01*
X96034782Y-91453063D01*
X96035445Y-91450697D01*
X96036265Y-91448525D01*
X96036737Y-91447514D01*
X96037253Y-91446554D01*
X96037813Y-91445646D01*
X96038420Y-91444790D01*
X96039074Y-91443989D01*
X96039777Y-91443241D01*
X96040531Y-91442549D01*
X96041336Y-91441912D01*
X96042195Y-91441333D01*
X96043108Y-91440810D01*
X96044078Y-91440347D01*
X96045104Y-91439942D01*
X96046190Y-91439598D01*
X96047335Y-91439314D01*
X96048542Y-91439092D01*
X96049813Y-91438932D01*
X96051147Y-91438836D01*
X96052548Y-91438804D01*
X97505276Y-91438803D01*
X97506671Y-91438836D01*
G37*
G36*
X98379124Y-91147194D02*
G01*
X98378156Y-91164766D01*
X98376646Y-91181438D01*
X98374515Y-91197177D01*
X98371686Y-91211951D01*
X98368081Y-91225731D01*
X98363623Y-91238483D01*
X98361049Y-91244465D01*
X98358233Y-91250178D01*
X98355164Y-91255618D01*
X98351834Y-91260783D01*
X98348232Y-91265667D01*
X98344348Y-91270267D01*
X98340174Y-91274579D01*
X98335698Y-91278598D01*
X98330913Y-91282322D01*
X98325806Y-91285747D01*
X98320370Y-91288867D01*
X98314595Y-91291680D01*
X98308470Y-91294181D01*
X98301986Y-91296367D01*
X98295133Y-91298233D01*
X98287902Y-91299776D01*
X98280282Y-91300992D01*
X98272265Y-91301876D01*
X98263839Y-91302426D01*
X98254997Y-91302636D01*
X96652718Y-91306770D01*
X95816387Y-91302946D01*
X95796534Y-91302279D01*
X95775714Y-91300257D01*
X95754106Y-91296883D01*
X95731890Y-91292158D01*
X95709249Y-91286085D01*
X95686361Y-91278666D01*
X95663408Y-91269902D01*
X95640570Y-91259796D01*
X95618029Y-91248350D01*
X95595964Y-91235566D01*
X95574556Y-91221445D01*
X95553986Y-91205990D01*
X95534434Y-91189202D01*
X95516081Y-91171085D01*
X95499108Y-91151639D01*
X95483695Y-91130867D01*
X95470023Y-91108771D01*
X95458273Y-91085352D01*
X95448624Y-91060613D01*
X95441258Y-91034556D01*
X95436356Y-91007183D01*
X95434097Y-90978496D01*
X95434663Y-90948496D01*
X95436916Y-90928740D01*
X95762438Y-90928740D01*
X95762934Y-90936712D01*
X95763975Y-90944532D01*
X95765548Y-90952182D01*
X95767640Y-90959641D01*
X95770237Y-90966889D01*
X95773325Y-90973906D01*
X95776892Y-90980671D01*
X95780923Y-90987165D01*
X95785406Y-90993368D01*
X95790326Y-90999260D01*
X95795670Y-91004819D01*
X95801426Y-91010028D01*
X95807578Y-91014865D01*
X95814114Y-91019310D01*
X95821021Y-91023343D01*
X95828285Y-91026944D01*
X95835892Y-91030094D01*
X95843828Y-91032771D01*
X95852082Y-91034957D01*
X95860638Y-91036630D01*
X95869484Y-91037771D01*
X95878606Y-91038360D01*
X97526928Y-91032162D01*
X97521605Y-89561657D01*
X97217387Y-89558502D01*
X97145380Y-89559061D01*
X97112051Y-89560169D01*
X97080313Y-89562077D01*
X97050024Y-89564971D01*
X97021042Y-89569035D01*
X96993222Y-89574455D01*
X96966422Y-89581416D01*
X96940498Y-89590103D01*
X96915309Y-89600703D01*
X96890710Y-89613399D01*
X96866560Y-89628378D01*
X96842714Y-89645824D01*
X96819030Y-89665924D01*
X96795364Y-89688862D01*
X96771575Y-89714823D01*
X95790446Y-90845142D01*
X95784746Y-90853518D01*
X95779726Y-90861944D01*
X95775373Y-90870400D01*
X95771673Y-90878866D01*
X95768613Y-90887321D01*
X95766179Y-90895746D01*
X95764358Y-90904120D01*
X95763137Y-90912424D01*
X95762501Y-90920637D01*
X95762438Y-90928740D01*
X95436916Y-90928740D01*
X95438234Y-90917187D01*
X95444990Y-90884569D01*
X95455113Y-90850645D01*
X95468783Y-90815417D01*
X95486181Y-90778886D01*
X95507486Y-90741056D01*
X95532881Y-90701927D01*
X95562545Y-90661503D01*
X95596658Y-90619784D01*
X96530245Y-89577419D01*
X96586185Y-89516003D01*
X96611155Y-89488578D01*
X96634966Y-89463313D01*
X96658249Y-89440188D01*
X96681637Y-89419182D01*
X96693566Y-89409466D01*
X96705759Y-89400272D01*
X96718293Y-89391598D01*
X96731247Y-89383440D01*
X96744701Y-89375795D01*
X96758733Y-89368662D01*
X96773423Y-89362037D01*
X96788848Y-89355919D01*
X96805088Y-89350303D01*
X96822222Y-89345189D01*
X96840329Y-89340572D01*
X96859488Y-89336451D01*
X96879777Y-89332822D01*
X96901275Y-89329684D01*
X96924062Y-89327033D01*
X96948216Y-89324868D01*
X96973817Y-89323184D01*
X97000942Y-89321980D01*
X97060084Y-89321000D01*
X98356593Y-89320329D01*
X98358291Y-89320364D01*
X98359869Y-89320470D01*
X98361331Y-89320649D01*
X98362682Y-89320899D01*
X98363926Y-89321220D01*
X98365067Y-89321613D01*
X98366110Y-89322077D01*
X98367059Y-89322612D01*
X98367918Y-89323218D01*
X98368692Y-89323896D01*
X98369386Y-89324644D01*
X98370002Y-89325463D01*
X98370547Y-89326352D01*
X98371024Y-89327312D01*
X98371437Y-89328343D01*
X98371791Y-89329444D01*
X98372090Y-89330615D01*
X98372340Y-89331857D01*
X98372543Y-89333169D01*
X98372704Y-89334550D01*
X98372828Y-89336002D01*
X98372919Y-89337523D01*
X98373020Y-89340775D01*
X98372975Y-89356554D01*
X98378729Y-91032162D01*
X98379124Y-91147194D01*
G37*
G36*
X99750190Y-91439021D02*
G01*
X99758373Y-91439666D01*
X99766276Y-91440722D01*
X99773902Y-91442175D01*
X99781251Y-91444011D01*
X99788322Y-91446215D01*
X99795119Y-91448772D01*
X99801639Y-91451668D01*
X99807886Y-91454888D01*
X99813859Y-91458418D01*
X99819558Y-91462243D01*
X99824986Y-91466348D01*
X99830142Y-91470720D01*
X99835026Y-91475342D01*
X99839641Y-91480201D01*
X99843986Y-91485283D01*
X99848063Y-91490572D01*
X99851871Y-91496054D01*
X99855412Y-91501714D01*
X99858686Y-91507538D01*
X99861694Y-91513511D01*
X99864437Y-91519619D01*
X99866915Y-91525847D01*
X99869130Y-91532180D01*
X99871081Y-91538605D01*
X99872770Y-91545105D01*
X99875363Y-91558277D01*
X99876915Y-91571578D01*
X99877430Y-91584893D01*
X99877430Y-92877733D01*
X99876893Y-92892848D01*
X99875284Y-92907434D01*
X99874079Y-92914510D01*
X99872606Y-92921431D01*
X99870866Y-92928189D01*
X99868861Y-92934776D01*
X99866589Y-92941185D01*
X99864052Y-92947408D01*
X99861249Y-92953438D01*
X99858182Y-92959265D01*
X99854850Y-92964884D01*
X99851253Y-92970286D01*
X99847393Y-92975464D01*
X99843269Y-92980409D01*
X99838882Y-92985114D01*
X99834233Y-92989571D01*
X99829320Y-92993774D01*
X99824146Y-92997713D01*
X99818709Y-93001381D01*
X99813012Y-93004770D01*
X99807053Y-93007874D01*
X99800833Y-93010683D01*
X99794353Y-93013191D01*
X99787613Y-93015390D01*
X99780613Y-93017271D01*
X99773353Y-93018828D01*
X99765835Y-93020052D01*
X99758058Y-93020936D01*
X99750022Y-93021472D01*
X99741728Y-93021652D01*
X97644802Y-93021652D01*
X97643559Y-93021620D01*
X97642340Y-93021524D01*
X97641146Y-93021367D01*
X97639977Y-93021149D01*
X97638835Y-93020873D01*
X97637721Y-93020540D01*
X97636636Y-93020151D01*
X97635581Y-93019709D01*
X97634556Y-93019215D01*
X97633564Y-93018670D01*
X97632604Y-93018077D01*
X97631679Y-93017437D01*
X97630789Y-93016751D01*
X97629934Y-93016021D01*
X97629117Y-93015250D01*
X97628338Y-93014437D01*
X97627599Y-93013586D01*
X97626899Y-93012698D01*
X97626241Y-93011773D01*
X97625625Y-93010815D01*
X97625052Y-93009825D01*
X97624524Y-93008804D01*
X97624041Y-93007753D01*
X97623605Y-93006675D01*
X97623216Y-93005572D01*
X97622876Y-93004444D01*
X97622585Y-93003294D01*
X97622344Y-93002122D01*
X97622156Y-93000932D01*
X97622020Y-92999724D01*
X97621937Y-92998500D01*
X97621909Y-92997261D01*
X97621909Y-92826832D01*
X97621937Y-92825393D01*
X97622020Y-92823980D01*
X97622156Y-92822596D01*
X97622344Y-92821242D01*
X97622585Y-92819918D01*
X97622876Y-92818626D01*
X97623216Y-92817368D01*
X97623605Y-92816144D01*
X97624041Y-92814956D01*
X97624524Y-92813805D01*
X97625052Y-92812692D01*
X97625625Y-92811618D01*
X97626241Y-92810585D01*
X97626899Y-92809593D01*
X97627599Y-92808644D01*
X97628338Y-92807740D01*
X97629117Y-92806881D01*
X97629935Y-92806069D01*
X97630789Y-92805304D01*
X97631679Y-92804589D01*
X97632604Y-92803924D01*
X97633564Y-92803310D01*
X97634556Y-92802749D01*
X97635581Y-92802242D01*
X97636636Y-92801790D01*
X97637721Y-92801394D01*
X97638835Y-92801056D01*
X97639977Y-92800776D01*
X97641146Y-92800557D01*
X97642340Y-92800399D01*
X97643559Y-92800303D01*
X97644802Y-92800271D01*
X99063165Y-92800271D01*
X99082880Y-92799698D01*
X99092205Y-92798981D01*
X99101180Y-92797974D01*
X99109805Y-92796678D01*
X99118084Y-92795090D01*
X99126019Y-92793209D01*
X99133612Y-92791034D01*
X99140867Y-92788564D01*
X99147785Y-92785798D01*
X99154369Y-92782734D01*
X99160621Y-92779372D01*
X99166544Y-92775710D01*
X99172141Y-92771746D01*
X99177414Y-92767480D01*
X99182365Y-92762910D01*
X99186996Y-92758036D01*
X99191311Y-92752855D01*
X99195312Y-92747368D01*
X99199001Y-92741571D01*
X99202381Y-92735466D01*
X99205453Y-92729049D01*
X99208222Y-92722320D01*
X99210688Y-92715278D01*
X99212855Y-92707921D01*
X99214725Y-92700249D01*
X99216301Y-92692259D01*
X99217584Y-92683951D01*
X99218578Y-92675324D01*
X99219285Y-92666377D01*
X99219848Y-92647515D01*
X99219848Y-92361951D01*
X99219820Y-92360712D01*
X99219738Y-92359488D01*
X99219602Y-92358280D01*
X99219413Y-92357089D01*
X99219173Y-92355918D01*
X99218882Y-92354768D01*
X99218541Y-92353640D01*
X99218153Y-92352536D01*
X99217716Y-92351458D01*
X99217233Y-92350408D01*
X99216705Y-92349387D01*
X99216132Y-92348396D01*
X99215516Y-92347438D01*
X99214858Y-92346514D01*
X99214159Y-92345625D01*
X99213419Y-92344774D01*
X99212640Y-92343962D01*
X99211823Y-92343190D01*
X99210969Y-92342461D01*
X99210078Y-92341775D01*
X99209153Y-92341135D01*
X99208194Y-92340541D01*
X99207201Y-92339997D01*
X99206177Y-92339503D01*
X99205121Y-92339061D01*
X99204036Y-92338672D01*
X99202922Y-92338339D01*
X99201780Y-92338063D01*
X99200612Y-92337845D01*
X99199417Y-92337688D01*
X99198198Y-92337592D01*
X99196955Y-92337560D01*
X98411318Y-92337560D01*
X98410260Y-92337534D01*
X98409235Y-92337457D01*
X98408244Y-92337328D01*
X98407286Y-92337149D01*
X98406362Y-92336920D01*
X98405471Y-92336641D01*
X98404614Y-92336313D01*
X98403791Y-92335936D01*
X98403001Y-92335510D01*
X98402245Y-92335036D01*
X98401522Y-92334514D01*
X98400833Y-92333944D01*
X98400178Y-92333328D01*
X98399556Y-92332665D01*
X98398968Y-92331956D01*
X98398413Y-92331201D01*
X98397892Y-92330401D01*
X98397405Y-92329555D01*
X98396951Y-92328665D01*
X98396531Y-92327731D01*
X98396144Y-92326753D01*
X98395791Y-92325732D01*
X98395472Y-92324668D01*
X98395186Y-92323561D01*
X98394934Y-92322412D01*
X98394715Y-92321221D01*
X98394530Y-92319988D01*
X98394379Y-92318715D01*
X98394261Y-92317401D01*
X98394177Y-92316047D01*
X98394127Y-92314653D01*
X98394110Y-92313220D01*
X98394110Y-92105119D01*
X98394177Y-92101537D01*
X98394379Y-92098257D01*
X98394715Y-92095269D01*
X98395186Y-92092563D01*
X98395791Y-92090130D01*
X98396530Y-92087959D01*
X98396950Y-92086969D01*
X98397404Y-92086041D01*
X98397891Y-92085174D01*
X98398412Y-92084367D01*
X98398967Y-92083617D01*
X98399555Y-92082925D01*
X98400177Y-92082289D01*
X98400832Y-92081708D01*
X98401521Y-92081180D01*
X98402244Y-92080705D01*
X98403000Y-92080280D01*
X98403790Y-92079906D01*
X98404613Y-92079580D01*
X98405470Y-92079301D01*
X98407285Y-92078881D01*
X98409235Y-92078637D01*
X98411318Y-92078557D01*
X99196955Y-92078557D01*
X99198198Y-92078525D01*
X99199417Y-92078429D01*
X99200612Y-92078271D01*
X99201780Y-92078051D01*
X99202922Y-92077772D01*
X99204036Y-92077434D01*
X99205122Y-92077038D01*
X99206177Y-92076586D01*
X99207201Y-92076079D01*
X99208194Y-92075518D01*
X99209153Y-92074904D01*
X99210079Y-92074239D01*
X99210969Y-92073523D01*
X99211823Y-92072759D01*
X99212640Y-92071947D01*
X99213419Y-92071088D01*
X99214159Y-92070183D01*
X99214858Y-92069235D01*
X99215517Y-92068243D01*
X99216133Y-92067210D01*
X99216705Y-92066136D01*
X99217233Y-92065023D01*
X99217716Y-92063872D01*
X99218153Y-92062683D01*
X99218542Y-92061460D01*
X99218882Y-92060201D01*
X99219173Y-92058910D01*
X99219413Y-92057586D01*
X99219602Y-92056232D01*
X99219738Y-92054847D01*
X99219820Y-92053435D01*
X99219848Y-92051995D01*
X99219848Y-91655741D01*
X99219738Y-91652134D01*
X99219602Y-91650427D01*
X99219413Y-91648784D01*
X99219173Y-91647204D01*
X99218882Y-91645686D01*
X99218541Y-91644231D01*
X99218153Y-91642838D01*
X99217716Y-91641507D01*
X99217233Y-91640237D01*
X99216705Y-91639027D01*
X99216132Y-91637878D01*
X99215516Y-91636789D01*
X99214858Y-91635760D01*
X99214159Y-91634789D01*
X99213419Y-91633878D01*
X99212640Y-91633025D01*
X99211823Y-91632229D01*
X99210969Y-91631492D01*
X99210078Y-91630811D01*
X99209153Y-91630188D01*
X99208194Y-91629620D01*
X99207201Y-91629109D01*
X99206177Y-91628653D01*
X99205121Y-91628252D01*
X99204036Y-91627906D01*
X99202922Y-91627615D01*
X99201780Y-91627377D01*
X99199417Y-91627062D01*
X99196955Y-91626957D01*
X97644802Y-91626957D01*
X97643559Y-91626932D01*
X97642340Y-91626854D01*
X97641146Y-91626726D01*
X97639977Y-91626547D01*
X97638835Y-91626318D01*
X97637721Y-91626039D01*
X97636636Y-91625711D01*
X97635581Y-91625334D01*
X97634556Y-91624908D01*
X97633564Y-91624434D01*
X97632604Y-91623912D01*
X97631679Y-91623342D01*
X97630789Y-91622726D01*
X97629934Y-91622063D01*
X97629117Y-91621354D01*
X97628338Y-91620599D01*
X97627599Y-91619799D01*
X97626899Y-91618954D01*
X97626241Y-91618064D01*
X97625625Y-91617129D01*
X97625052Y-91616151D01*
X97624524Y-91615130D01*
X97624041Y-91614066D01*
X97623605Y-91612959D01*
X97623216Y-91611810D01*
X97622876Y-91610619D01*
X97622585Y-91609386D01*
X97622344Y-91608113D01*
X97622156Y-91606799D01*
X97622020Y-91605445D01*
X97621937Y-91604051D01*
X97621909Y-91602618D01*
X97621909Y-91467587D01*
X97622020Y-91464345D01*
X97622344Y-91461265D01*
X97622876Y-91458354D01*
X97623216Y-91456964D01*
X97623605Y-91455618D01*
X97624041Y-91454318D01*
X97624524Y-91453063D01*
X97625052Y-91451856D01*
X97625625Y-91450697D01*
X97626241Y-91449586D01*
X97626899Y-91448525D01*
X97627599Y-91447514D01*
X97628338Y-91446554D01*
X97629117Y-91445646D01*
X97629935Y-91444790D01*
X97630789Y-91443988D01*
X97631679Y-91443241D01*
X97632604Y-91442549D01*
X97633564Y-91441912D01*
X97634556Y-91441332D01*
X97635581Y-91440810D01*
X97636636Y-91440347D01*
X97637721Y-91439942D01*
X97638835Y-91439597D01*
X97639977Y-91439314D01*
X97641146Y-91439092D01*
X97642340Y-91438932D01*
X97643559Y-91438836D01*
X97644802Y-91438803D01*
X99741728Y-91438803D01*
X99750190Y-91439021D01*
G37*
G36*
X95876693Y-92877733D02*
G01*
X95876138Y-92891024D01*
X95874495Y-92904256D01*
X95871793Y-92917321D01*
X95868064Y-92930106D01*
X95863338Y-92942503D01*
X95857647Y-92954401D01*
X95851020Y-92965690D01*
X95847366Y-92971071D01*
X95843489Y-92976258D01*
X95839394Y-92981238D01*
X95835085Y-92985996D01*
X95830564Y-92990520D01*
X95825837Y-92994794D01*
X95820907Y-92998806D01*
X95815778Y-93002541D01*
X95810453Y-93005986D01*
X95804937Y-93009127D01*
X95799233Y-93011950D01*
X95793345Y-93014441D01*
X95787278Y-93016587D01*
X95781034Y-93018374D01*
X95774618Y-93019788D01*
X95768034Y-93020814D01*
X95761285Y-93021441D01*
X95754375Y-93021652D01*
X95238230Y-93021652D01*
X95236819Y-93021620D01*
X95235453Y-93021524D01*
X95234131Y-93021367D01*
X95232854Y-93021149D01*
X95231622Y-93020873D01*
X95230435Y-93020540D01*
X95229292Y-93020151D01*
X95228194Y-93019709D01*
X95227141Y-93019215D01*
X95226133Y-93018670D01*
X95225170Y-93018077D01*
X95224251Y-93017437D01*
X95223377Y-93016751D01*
X95222548Y-93016021D01*
X95221764Y-93015250D01*
X95221024Y-93014437D01*
X95220330Y-93013586D01*
X95219680Y-93012698D01*
X95219075Y-93011773D01*
X95218514Y-93010815D01*
X95217999Y-93009825D01*
X95217528Y-93008804D01*
X95217102Y-93007753D01*
X95216721Y-93006675D01*
X95216385Y-93005572D01*
X95216093Y-93004444D01*
X95215847Y-93003294D01*
X95215645Y-93002122D01*
X95215488Y-93000932D01*
X95215376Y-92999724D01*
X95215286Y-92997261D01*
X95215286Y-92452695D01*
X95215219Y-92449868D01*
X95215014Y-92447200D01*
X95214669Y-92444694D01*
X95214182Y-92442354D01*
X95213549Y-92440183D01*
X95213177Y-92439162D01*
X95212767Y-92438184D01*
X95212320Y-92437250D01*
X95211835Y-92436360D01*
X95211311Y-92435514D01*
X95210748Y-92434714D01*
X95210146Y-92433959D01*
X95209504Y-92433250D01*
X95208822Y-92432587D01*
X95208100Y-92431971D01*
X95207338Y-92431401D01*
X95206534Y-92430879D01*
X95205690Y-92430405D01*
X95204803Y-92429979D01*
X95203874Y-92429602D01*
X95202903Y-92429274D01*
X95201889Y-92428995D01*
X95200832Y-92428766D01*
X95199732Y-92428587D01*
X95198588Y-92428459D01*
X95197399Y-92428381D01*
X95196166Y-92428356D01*
X94315032Y-92428356D01*
X94313951Y-92428381D01*
X94312859Y-92428457D01*
X94310649Y-92428756D01*
X94308410Y-92429243D01*
X94306151Y-92429908D01*
X94303880Y-92430740D01*
X94301605Y-92431732D01*
X94299336Y-92432872D01*
X94297080Y-92434152D01*
X94294847Y-92435562D01*
X94292645Y-92437091D01*
X94290483Y-92438732D01*
X94288368Y-92440472D01*
X94286310Y-92442304D01*
X94284318Y-92444218D01*
X94282400Y-92446203D01*
X94280563Y-92448251D01*
X93795063Y-93014987D01*
X93791119Y-93018983D01*
X93787168Y-93022675D01*
X93783200Y-93026069D01*
X93779208Y-93029171D01*
X93775182Y-93031987D01*
X93771115Y-93034526D01*
X93766998Y-93036791D01*
X93762822Y-93038791D01*
X93758579Y-93040532D01*
X93754260Y-93042019D01*
X93749857Y-93043260D01*
X93745361Y-93044261D01*
X93740764Y-93045028D01*
X93736057Y-93045568D01*
X93731233Y-93045887D01*
X93726281Y-93045992D01*
X93721976Y-93045882D01*
X93717669Y-93045552D01*
X93713369Y-93045004D01*
X93709084Y-93044237D01*
X93704825Y-93043253D01*
X93700600Y-93042053D01*
X93696418Y-93040637D01*
X93692289Y-93039006D01*
X93688221Y-93037161D01*
X93684224Y-93035103D01*
X93680306Y-93032833D01*
X93676478Y-93030350D01*
X93672747Y-93027658D01*
X93669123Y-93024755D01*
X93665616Y-93021643D01*
X93662234Y-93018323D01*
X93658986Y-93014795D01*
X93655882Y-93011060D01*
X93652930Y-93007120D01*
X93650140Y-93002974D01*
X93647521Y-92998624D01*
X93645082Y-92994071D01*
X93642832Y-92989315D01*
X93640780Y-92984357D01*
X93638935Y-92979198D01*
X93637307Y-92973839D01*
X93635904Y-92968280D01*
X93634736Y-92962523D01*
X93633812Y-92956568D01*
X93633140Y-92950416D01*
X93632731Y-92944067D01*
X93632592Y-92937524D01*
X93632683Y-92931788D01*
X93632958Y-92926196D01*
X93633424Y-92920733D01*
X93634086Y-92915386D01*
X93634950Y-92910144D01*
X93636021Y-92904992D01*
X93637305Y-92899919D01*
X93638807Y-92894910D01*
X93640533Y-92889953D01*
X93642489Y-92885035D01*
X93644680Y-92880142D01*
X93647112Y-92875263D01*
X93649790Y-92870384D01*
X93652721Y-92865492D01*
X93655909Y-92860574D01*
X93659360Y-92855616D01*
X94189870Y-92240201D01*
X94716402Y-92240201D01*
X94716430Y-92241622D01*
X94716514Y-92242978D01*
X94716654Y-92244272D01*
X94716849Y-92245505D01*
X94717099Y-92246678D01*
X94717403Y-92247792D01*
X94717761Y-92248848D01*
X94718174Y-92249847D01*
X94718639Y-92250792D01*
X94719158Y-92251682D01*
X94719729Y-92252520D01*
X94720353Y-92253306D01*
X94721028Y-92254042D01*
X94721755Y-92254729D01*
X94722533Y-92255368D01*
X94723362Y-92255960D01*
X94724241Y-92256507D01*
X94725170Y-92257010D01*
X94726149Y-92257469D01*
X94727177Y-92257887D01*
X94728254Y-92258265D01*
X94729380Y-92258603D01*
X94730554Y-92258904D01*
X94731775Y-92259167D01*
X94733044Y-92259395D01*
X94734360Y-92259588D01*
X94737131Y-92259877D01*
X94740086Y-92260043D01*
X94743222Y-92260097D01*
X95196166Y-92260097D01*
X95197398Y-92260077D01*
X95198586Y-92260017D01*
X95199730Y-92259916D01*
X95200829Y-92259773D01*
X95201886Y-92259585D01*
X95202899Y-92259353D01*
X95203870Y-92259075D01*
X95204798Y-92258749D01*
X95205685Y-92258374D01*
X95206530Y-92257950D01*
X95207333Y-92257474D01*
X95208096Y-92256947D01*
X95208818Y-92256366D01*
X95209500Y-92255730D01*
X95210141Y-92255038D01*
X95210744Y-92254289D01*
X95211307Y-92253481D01*
X95211831Y-92252614D01*
X95212317Y-92251686D01*
X95212765Y-92250697D01*
X95213174Y-92249643D01*
X95213547Y-92248526D01*
X95213882Y-92247342D01*
X95214180Y-92246092D01*
X95214442Y-92244774D01*
X95214668Y-92243386D01*
X95214859Y-92241928D01*
X95215014Y-92240398D01*
X95215133Y-92238795D01*
X95215219Y-92237117D01*
X95215286Y-92233535D01*
X95215286Y-91711086D01*
X95215220Y-91707430D01*
X95215020Y-91703941D01*
X95214687Y-91700626D01*
X95214220Y-91697497D01*
X95213619Y-91694563D01*
X95212884Y-91691834D01*
X95212015Y-91689318D01*
X95211012Y-91687027D01*
X95209874Y-91684969D01*
X95208602Y-91683154D01*
X95207915Y-91682341D01*
X95207195Y-91681592D01*
X95206440Y-91680909D01*
X95205652Y-91680292D01*
X95204831Y-91679744D01*
X95203975Y-91679264D01*
X95203086Y-91678856D01*
X95202162Y-91678519D01*
X95201205Y-91678254D01*
X95200214Y-91678064D01*
X95199189Y-91677949D01*
X95198130Y-91677910D01*
X95197035Y-91677937D01*
X95195902Y-91678022D01*
X95194742Y-91678172D01*
X95193561Y-91678393D01*
X95192370Y-91678692D01*
X95191175Y-91679075D01*
X95189986Y-91679549D01*
X95188810Y-91680120D01*
X95187657Y-91680795D01*
X95187092Y-91681173D01*
X95186535Y-91681579D01*
X95185988Y-91682015D01*
X95185452Y-91682481D01*
X95184928Y-91682978D01*
X95184417Y-91683506D01*
X95183920Y-91684067D01*
X95183438Y-91684661D01*
X95182972Y-91685289D01*
X95182523Y-91685952D01*
X95182093Y-91686651D01*
X95181681Y-91687386D01*
X95181291Y-91688158D01*
X95180921Y-91688969D01*
X94727874Y-92213640D01*
X94726486Y-92215300D01*
X94725188Y-92216960D01*
X94723978Y-92218620D01*
X94722858Y-92220280D01*
X94721828Y-92221940D01*
X94720887Y-92223600D01*
X94720035Y-92225260D01*
X94719273Y-92226920D01*
X94718600Y-92228580D01*
X94718017Y-92230240D01*
X94717524Y-92231900D01*
X94717120Y-92233560D01*
X94716806Y-92235221D01*
X94716581Y-92236881D01*
X94716447Y-92238541D01*
X94716402Y-92240201D01*
X94189870Y-92240201D01*
X94808180Y-91522933D01*
X94818136Y-91512138D01*
X94827979Y-91502157D01*
X94837777Y-91492974D01*
X94847596Y-91484572D01*
X94857504Y-91476935D01*
X94867569Y-91470047D01*
X94877857Y-91463892D01*
X94888437Y-91458454D01*
X94899375Y-91453716D01*
X94910738Y-91449663D01*
X94922595Y-91446277D01*
X94935012Y-91443544D01*
X94948057Y-91441446D01*
X94961797Y-91439967D01*
X94976299Y-91439092D01*
X94991631Y-91438804D01*
X95739027Y-91438803D01*
X95746990Y-91438958D01*
X95754748Y-91439422D01*
X95762298Y-91440191D01*
X95769638Y-91441262D01*
X95776764Y-91442634D01*
X95783672Y-91444302D01*
X95790361Y-91446265D01*
X95796825Y-91448519D01*
X95803063Y-91451061D01*
X95809071Y-91453890D01*
X95814846Y-91457001D01*
X95820385Y-91460392D01*
X95825685Y-91464060D01*
X95830742Y-91468003D01*
X95835553Y-91472217D01*
X95840116Y-91476700D01*
X95844427Y-91481449D01*
X95848482Y-91486461D01*
X95852279Y-91491734D01*
X95855815Y-91497264D01*
X95859086Y-91503048D01*
X95862089Y-91509084D01*
X95864821Y-91515369D01*
X95867279Y-91521900D01*
X95869459Y-91528675D01*
X95871360Y-91535690D01*
X95872976Y-91542942D01*
X95874306Y-91550430D01*
X95875345Y-91558149D01*
X95876092Y-91566097D01*
X95876542Y-91574272D01*
X95876693Y-91582671D01*
X95876693Y-91711086D01*
X95876693Y-92877733D01*
G37*
D11*
G36*
X91452284Y-87573000D02*
G01*
X91300463Y-87573000D01*
X91300463Y-87083244D01*
X91060714Y-87083244D01*
X90825068Y-87573000D01*
X90664161Y-87573000D01*
X90663282Y-87563034D01*
X90917978Y-87050418D01*
X90865088Y-87023473D01*
X90827413Y-86998540D01*
X90782472Y-86959140D01*
X90756485Y-86928491D01*
X90725879Y-86878302D01*
X90710177Y-86840271D01*
X90696431Y-86782383D01*
X90693177Y-86733000D01*
X90693288Y-86731241D01*
X90846464Y-86731241D01*
X90853490Y-86791431D01*
X90866394Y-86827375D01*
X90900045Y-86878644D01*
X90919737Y-86898010D01*
X90969800Y-86929903D01*
X90999751Y-86941974D01*
X91058713Y-86955415D01*
X91096178Y-86958094D01*
X91300463Y-86958094D01*
X91300463Y-86497940D01*
X91100281Y-86497940D01*
X91040982Y-86503381D01*
X90998578Y-86513767D01*
X90942842Y-86539318D01*
X90917978Y-86557438D01*
X90878698Y-86604652D01*
X90865515Y-86630418D01*
X90849608Y-86686888D01*
X90846464Y-86731241D01*
X90693288Y-86731241D01*
X90696918Y-86673507D01*
X90709530Y-86614925D01*
X90724831Y-86575316D01*
X90754468Y-86524318D01*
X90795148Y-86477835D01*
X90811879Y-86463355D01*
X90864340Y-86428694D01*
X90919283Y-86404244D01*
X90942012Y-86396824D01*
X90999027Y-86383003D01*
X91058845Y-86374952D01*
X91100281Y-86372790D01*
X91452284Y-86372790D01*
X91452284Y-87573000D01*
G37*
G36*
X90077978Y-86843495D02*
G01*
X90333554Y-86372790D01*
X90512340Y-86372790D01*
X90163854Y-86968059D01*
X90521426Y-87573000D01*
X90340881Y-87573000D01*
X90074754Y-87093209D01*
X89809213Y-87573000D01*
X89631307Y-87573000D01*
X89988292Y-86968059D01*
X89639514Y-86372790D01*
X89819179Y-86372790D01*
X90077978Y-86843495D01*
G37*
G36*
X106927414Y-85668000D02*
G01*
X106794644Y-85668000D01*
X106416263Y-84467790D01*
X106578635Y-84467790D01*
X106843883Y-85362305D01*
X106862055Y-85422389D01*
X106879347Y-85363771D01*
X107143129Y-84467790D01*
X107306381Y-84467790D01*
X106927414Y-85668000D01*
G37*
G36*
X105435872Y-85306911D02*
G01*
X105588572Y-85306911D01*
X105600247Y-85365736D01*
X105614071Y-85408027D01*
X105641594Y-85461242D01*
X105662725Y-85488334D01*
X105708664Y-85527037D01*
X105737463Y-85541970D01*
X105795353Y-85557632D01*
X105841510Y-85560728D01*
X105902331Y-85554528D01*
X105938230Y-85543143D01*
X105989663Y-85512326D01*
X106009745Y-85494196D01*
X106046670Y-85447448D01*
X106060157Y-85423268D01*
X106082775Y-85367658D01*
X106092103Y-85336513D01*
X106104858Y-85279177D01*
X106109982Y-85243896D01*
X106114634Y-85182840D01*
X106115258Y-85151866D01*
X106115258Y-84983045D01*
X106112986Y-84923311D01*
X106109982Y-84891014D01*
X106100388Y-84832579D01*
X106092103Y-84798397D01*
X106072539Y-84740917D01*
X106059570Y-84712521D01*
X106026915Y-84661617D01*
X106008866Y-84641593D01*
X105960104Y-84604438D01*
X105937644Y-84593526D01*
X105880583Y-84578162D01*
X105841510Y-84575648D01*
X105782221Y-84581355D01*
X105737463Y-84595871D01*
X105687523Y-84627104D01*
X105662725Y-84651558D01*
X105629431Y-84700468D01*
X105614071Y-84734210D01*
X105596316Y-84792481D01*
X105588572Y-84835327D01*
X105435872Y-84835327D01*
X105446313Y-84773201D01*
X105462690Y-84715196D01*
X105476905Y-84678816D01*
X105505247Y-84624476D01*
X105540264Y-84576715D01*
X105558677Y-84556890D01*
X105607315Y-84517155D01*
X105659211Y-84488095D01*
X105680896Y-84478928D01*
X105741621Y-84461090D01*
X105803170Y-84452695D01*
X105841510Y-84451377D01*
X105900055Y-84454860D01*
X105957693Y-84466400D01*
X105976919Y-84472480D01*
X106033705Y-84497392D01*
X106083897Y-84530512D01*
X106128300Y-84570885D01*
X106165963Y-84618146D01*
X106197250Y-84671049D01*
X106221125Y-84724638D01*
X106222529Y-84728348D01*
X106241385Y-84785205D01*
X106255090Y-84844766D01*
X106256528Y-84852912D01*
X106264715Y-84914234D01*
X106268395Y-84976200D01*
X106268545Y-84984510D01*
X106268545Y-85151866D01*
X106265466Y-85214192D01*
X106257880Y-85275874D01*
X106256528Y-85284050D01*
X106243510Y-85343761D01*
X106225341Y-85400897D01*
X106222529Y-85408321D01*
X106199006Y-85462103D01*
X106168094Y-85515070D01*
X106165963Y-85518230D01*
X106128300Y-85565051D01*
X106083897Y-85605278D01*
X106033558Y-85638471D01*
X105976332Y-85663603D01*
X105916492Y-85678540D01*
X105855295Y-85684230D01*
X105841510Y-85684413D01*
X105778931Y-85680538D01*
X105720885Y-85668915D01*
X105684706Y-85656862D01*
X105630411Y-85630704D01*
X105582308Y-85597000D01*
X105562194Y-85578900D01*
X105521017Y-85531744D01*
X105489412Y-85481125D01*
X105478956Y-85459905D01*
X105456292Y-85401003D01*
X105441640Y-85342682D01*
X105435872Y-85306911D01*
G37*
G36*
X104427637Y-85306911D02*
G01*
X104580338Y-85306911D01*
X104592012Y-85365736D01*
X104605837Y-85408027D01*
X104633360Y-85461242D01*
X104654490Y-85488334D01*
X104700430Y-85527037D01*
X104729228Y-85541970D01*
X104787118Y-85557632D01*
X104833276Y-85560728D01*
X104894097Y-85554528D01*
X104929996Y-85543143D01*
X104981429Y-85512326D01*
X105001510Y-85494196D01*
X105038435Y-85447448D01*
X105051922Y-85423268D01*
X105074540Y-85367658D01*
X105083869Y-85336513D01*
X105096623Y-85279177D01*
X105101748Y-85243896D01*
X105106400Y-85182840D01*
X105107023Y-85151866D01*
X105107023Y-84983045D01*
X105104751Y-84923311D01*
X105101748Y-84891014D01*
X105092153Y-84832579D01*
X105083869Y-84798397D01*
X105064304Y-84740917D01*
X105051336Y-84712521D01*
X105018680Y-84661617D01*
X105000631Y-84641593D01*
X104951870Y-84604438D01*
X104929410Y-84593526D01*
X104872349Y-84578162D01*
X104833276Y-84575648D01*
X104773986Y-84581355D01*
X104729228Y-84595871D01*
X104679288Y-84627104D01*
X104654490Y-84651558D01*
X104621197Y-84700468D01*
X104605837Y-84734210D01*
X104588081Y-84792481D01*
X104580338Y-84835327D01*
X104427637Y-84835327D01*
X104438079Y-84773201D01*
X104454455Y-84715196D01*
X104468670Y-84678816D01*
X104497012Y-84624476D01*
X104532029Y-84576715D01*
X104550443Y-84556890D01*
X104599081Y-84517155D01*
X104650976Y-84488095D01*
X104672662Y-84478928D01*
X104733387Y-84461090D01*
X104794936Y-84452695D01*
X104833276Y-84451377D01*
X104891820Y-84454860D01*
X104949459Y-84466400D01*
X104968684Y-84472480D01*
X105025471Y-84497392D01*
X105075662Y-84530512D01*
X105120066Y-84570885D01*
X105157728Y-84618146D01*
X105189016Y-84671049D01*
X105212891Y-84724638D01*
X105214295Y-84728348D01*
X105233151Y-84785205D01*
X105246855Y-84844766D01*
X105248293Y-84852912D01*
X105256481Y-84914234D01*
X105260160Y-84976200D01*
X105260310Y-84984510D01*
X105260310Y-85151866D01*
X105257232Y-85214192D01*
X105249645Y-85275874D01*
X105248293Y-85284050D01*
X105235276Y-85343761D01*
X105217107Y-85400897D01*
X105214295Y-85408321D01*
X105190772Y-85462103D01*
X105159860Y-85515070D01*
X105157728Y-85518230D01*
X105120066Y-85565051D01*
X105075662Y-85605278D01*
X105025324Y-85638471D01*
X104968098Y-85663603D01*
X104908257Y-85678540D01*
X104847061Y-85684230D01*
X104833276Y-85684413D01*
X104770696Y-85680538D01*
X104712650Y-85668915D01*
X104676472Y-85656862D01*
X104622177Y-85630704D01*
X104574073Y-85597000D01*
X104553960Y-85578900D01*
X104512783Y-85531744D01*
X104481177Y-85481125D01*
X104470722Y-85459905D01*
X104448058Y-85401003D01*
X104433406Y-85342682D01*
X104427637Y-85306911D01*
G37*
D12*
G36*
X106444986Y-89320609D02*
G01*
X106447623Y-88880386D01*
X106836556Y-88880386D01*
X106836556Y-89009053D01*
X106592704Y-89009053D01*
X106594169Y-89278404D01*
X106636161Y-89319384D01*
X106641357Y-89322661D01*
X106695434Y-89347405D01*
X106701441Y-89349332D01*
X106759431Y-89361610D01*
X106767972Y-89362521D01*
X106827428Y-89365236D01*
X106833332Y-89365159D01*
X106893935Y-89357916D01*
X106930638Y-89345815D01*
X106982258Y-89315768D01*
X107005669Y-89295697D01*
X107044588Y-89250502D01*
X107061650Y-89223303D01*
X107087272Y-89169814D01*
X107099459Y-89135962D01*
X107115052Y-89077389D01*
X107121441Y-89041586D01*
X107127829Y-88982396D01*
X107129354Y-88948090D01*
X107129354Y-88807113D01*
X107126830Y-88747253D01*
X107123492Y-88714789D01*
X107113303Y-88655507D01*
X107104441Y-88620707D01*
X107085093Y-88564653D01*
X107070736Y-88532780D01*
X107039138Y-88482699D01*
X107018859Y-88460093D01*
X106970750Y-88423067D01*
X106945586Y-88410267D01*
X106888021Y-88394147D01*
X106848866Y-88391510D01*
X106789350Y-88397167D01*
X106749214Y-88409388D01*
X106697974Y-88438402D01*
X106675062Y-88458334D01*
X106638553Y-88507551D01*
X106625530Y-88533952D01*
X106605723Y-88591998D01*
X106597686Y-88629793D01*
X106446744Y-88629793D01*
X106455743Y-88568972D01*
X106473399Y-88508199D01*
X106486311Y-88477678D01*
X106515892Y-88425623D01*
X106555322Y-88376704D01*
X106571308Y-88361028D01*
X106620948Y-88323433D01*
X106673271Y-88296059D01*
X106694993Y-88287462D01*
X106754609Y-88270573D01*
X106813589Y-88262625D01*
X106849745Y-88261377D01*
X106908955Y-88265053D01*
X106967203Y-88277235D01*
X106986618Y-88283652D01*
X107040873Y-88307948D01*
X107092357Y-88341388D01*
X107095355Y-88343736D01*
X107140491Y-88385868D01*
X107178593Y-88434887D01*
X107208505Y-88485729D01*
X107233393Y-88540434D01*
X107236332Y-88548020D01*
X107255399Y-88606543D01*
X107269185Y-88667255D01*
X107270624Y-88675515D01*
X107278811Y-88737743D01*
X107282491Y-88800228D01*
X107282641Y-88808579D01*
X107282641Y-88948090D01*
X107279627Y-89006907D01*
X107272126Y-89065386D01*
X107269159Y-89082033D01*
X107254299Y-89142779D01*
X107233902Y-89200821D01*
X107230764Y-89208355D01*
X107204768Y-89263576D01*
X107173491Y-89314933D01*
X107168921Y-89321489D01*
X107131320Y-89367032D01*
X107085250Y-89408798D01*
X107082166Y-89411175D01*
X107033171Y-89443774D01*
X106978508Y-89469032D01*
X106970792Y-89471845D01*
X106913923Y-89486839D01*
X106852566Y-89493868D01*
X106834211Y-89494413D01*
X106775600Y-89492176D01*
X106715076Y-89483168D01*
X106694113Y-89478293D01*
X106637381Y-89460253D01*
X106584126Y-89435368D01*
X106569549Y-89427002D01*
X106520310Y-89393314D01*
X106504483Y-89380400D01*
X106461068Y-89338610D01*
X106444986Y-89320609D01*
G37*
G36*
X105461664Y-89478000D02*
G01*
X105461664Y-88277790D01*
X105615830Y-88277790D01*
X105618175Y-89172891D01*
X106083897Y-88277790D01*
X106238942Y-88277790D01*
X106238942Y-89478000D01*
X106084776Y-89478000D01*
X106082138Y-88581140D01*
X105616416Y-89478000D01*
X105461664Y-89478000D01*
G37*
G36*
X105220743Y-89478000D02*
G01*
X104942892Y-89478000D01*
X104879735Y-89474702D01*
X104819959Y-89466129D01*
X104781985Y-89457483D01*
X104723775Y-89438484D01*
X104666714Y-89411749D01*
X104647749Y-89400623D01*
X104597650Y-89364156D01*
X104552317Y-89321248D01*
X104546632Y-89315041D01*
X104509855Y-89268743D01*
X104479024Y-89218069D01*
X104471308Y-89202787D01*
X104448756Y-89148538D01*
X104431365Y-89089914D01*
X104427344Y-89072361D01*
X104417476Y-89013377D01*
X104412639Y-88951685D01*
X104412103Y-88922298D01*
X104412103Y-88834078D01*
X104412171Y-88832612D01*
X104564511Y-88832612D01*
X104564511Y-88922298D01*
X104567819Y-88983133D01*
X104573597Y-89028397D01*
X104586339Y-89086129D01*
X104598510Y-89122773D01*
X104622328Y-89176866D01*
X104649801Y-89219786D01*
X104690203Y-89263990D01*
X104726884Y-89292473D01*
X104781135Y-89322176D01*
X104823018Y-89337023D01*
X104883708Y-89349391D01*
X104942892Y-89353436D01*
X105065697Y-89353436D01*
X105065697Y-88402940D01*
X104942892Y-88402940D01*
X104881800Y-88407453D01*
X104838258Y-88415836D01*
X104782090Y-88434521D01*
X104751796Y-88449249D01*
X104701531Y-88482441D01*
X104659766Y-88524573D01*
X104626060Y-88573959D01*
X104599975Y-88628914D01*
X104581794Y-88687349D01*
X104574183Y-88725048D01*
X104566795Y-88784471D01*
X104564511Y-88832612D01*
X104412171Y-88832612D01*
X104414906Y-88773710D01*
X104422780Y-88711474D01*
X104429103Y-88679325D01*
X104444429Y-88622202D01*
X104466452Y-88565013D01*
X104475704Y-88545676D01*
X104504198Y-88494211D01*
X104542323Y-88443852D01*
X104565976Y-88419060D01*
X104610572Y-88380922D01*
X104659949Y-88348718D01*
X104695523Y-88330547D01*
X104750697Y-88308711D01*
X104810708Y-88292445D01*
X104870699Y-88282364D01*
X104929827Y-88278068D01*
X104942892Y-88277790D01*
X105220743Y-88277790D01*
X105220743Y-89478000D01*
G37*
D11*
G36*
X106412159Y-86502923D02*
G01*
X106412159Y-86372790D01*
X107302278Y-86372790D01*
X107302278Y-86502923D01*
X106931517Y-86502923D01*
X106931517Y-87573000D01*
X106782920Y-87573000D01*
X106782920Y-86502923D01*
X106412159Y-86502923D01*
G37*
G36*
X105841510Y-86843495D02*
G01*
X106097086Y-86372790D01*
X106275872Y-86372790D01*
X105927386Y-86968059D01*
X106284958Y-87573000D01*
X106104413Y-87573000D01*
X105838286Y-87093209D01*
X105572745Y-87573000D01*
X105394839Y-87573000D01*
X105751824Y-86968059D01*
X105403046Y-86372790D01*
X105582711Y-86372790D01*
X105841510Y-86843495D01*
G37*
D12*
G36*
X91689689Y-89320609D02*
G01*
X91692326Y-88880386D01*
X92081259Y-88880386D01*
X92081259Y-89009053D01*
X91837407Y-89009053D01*
X91838872Y-89278404D01*
X91880864Y-89319384D01*
X91886060Y-89322661D01*
X91940137Y-89347405D01*
X91946144Y-89349332D01*
X92004134Y-89361610D01*
X92012675Y-89362521D01*
X92072131Y-89365236D01*
X92078035Y-89365159D01*
X92138638Y-89357916D01*
X92175341Y-89345815D01*
X92226961Y-89315768D01*
X92250372Y-89295697D01*
X92289291Y-89250502D01*
X92306353Y-89223303D01*
X92331975Y-89169814D01*
X92344162Y-89135962D01*
X92359755Y-89077389D01*
X92366144Y-89041586D01*
X92372532Y-88982396D01*
X92374057Y-88948090D01*
X92374057Y-88807113D01*
X92371533Y-88747253D01*
X92368195Y-88714789D01*
X92358006Y-88655507D01*
X92349144Y-88620707D01*
X92329796Y-88564653D01*
X92315439Y-88532780D01*
X92283841Y-88482699D01*
X92263562Y-88460093D01*
X92215453Y-88423067D01*
X92190289Y-88410267D01*
X92132724Y-88394147D01*
X92093569Y-88391510D01*
X92034053Y-88397167D01*
X91993917Y-88409388D01*
X91942677Y-88438402D01*
X91919765Y-88458334D01*
X91883256Y-88507551D01*
X91870233Y-88533952D01*
X91850426Y-88591998D01*
X91842389Y-88629793D01*
X91691447Y-88629793D01*
X91700446Y-88568972D01*
X91718102Y-88508199D01*
X91731014Y-88477678D01*
X91760595Y-88425623D01*
X91800025Y-88376704D01*
X91816011Y-88361028D01*
X91865651Y-88323433D01*
X91917974Y-88296059D01*
X91939696Y-88287462D01*
X91999312Y-88270573D01*
X92058292Y-88262625D01*
X92094448Y-88261377D01*
X92153658Y-88265053D01*
X92211906Y-88277235D01*
X92231321Y-88283652D01*
X92285576Y-88307948D01*
X92337060Y-88341388D01*
X92340058Y-88343736D01*
X92385194Y-88385868D01*
X92423296Y-88434887D01*
X92453208Y-88485729D01*
X92478096Y-88540434D01*
X92481035Y-88548020D01*
X92500102Y-88606543D01*
X92513888Y-88667255D01*
X92515327Y-88675515D01*
X92523514Y-88737743D01*
X92527194Y-88800228D01*
X92527344Y-88808579D01*
X92527344Y-88948090D01*
X92524330Y-89006907D01*
X92516829Y-89065386D01*
X92513862Y-89082033D01*
X92499002Y-89142779D01*
X92478605Y-89200821D01*
X92475467Y-89208355D01*
X92449471Y-89263576D01*
X92418194Y-89314933D01*
X92413624Y-89321489D01*
X92376023Y-89367032D01*
X92329953Y-89408798D01*
X92326869Y-89411175D01*
X92277874Y-89443774D01*
X92223211Y-89469032D01*
X92215495Y-89471845D01*
X92158626Y-89486839D01*
X92097269Y-89493868D01*
X92078914Y-89494413D01*
X92020303Y-89492176D01*
X91959779Y-89483168D01*
X91938816Y-89478293D01*
X91882084Y-89460253D01*
X91828829Y-89435368D01*
X91814252Y-89427002D01*
X91765013Y-89393314D01*
X91749186Y-89380400D01*
X91705771Y-89338610D01*
X91689689Y-89320609D01*
G37*
G36*
X90706367Y-89478000D02*
G01*
X90706367Y-88277790D01*
X90860533Y-88277790D01*
X90862878Y-89172891D01*
X91328600Y-88277790D01*
X91483645Y-88277790D01*
X91483645Y-89478000D01*
X91329479Y-89478000D01*
X91326841Y-88581140D01*
X90861119Y-89478000D01*
X90706367Y-89478000D01*
G37*
G36*
X90465446Y-89478000D02*
G01*
X90187595Y-89478000D01*
X90124438Y-89474702D01*
X90064662Y-89466129D01*
X90026688Y-89457483D01*
X89968478Y-89438484D01*
X89911417Y-89411749D01*
X89892452Y-89400623D01*
X89842353Y-89364156D01*
X89797020Y-89321248D01*
X89791335Y-89315041D01*
X89754558Y-89268743D01*
X89723727Y-89218069D01*
X89716011Y-89202787D01*
X89693459Y-89148538D01*
X89676068Y-89089914D01*
X89672047Y-89072361D01*
X89662179Y-89013377D01*
X89657342Y-88951685D01*
X89656806Y-88922298D01*
X89656806Y-88834078D01*
X89656874Y-88832612D01*
X89809214Y-88832612D01*
X89809214Y-88922298D01*
X89812522Y-88983133D01*
X89818300Y-89028397D01*
X89831042Y-89086129D01*
X89843213Y-89122773D01*
X89867031Y-89176866D01*
X89894504Y-89219786D01*
X89934906Y-89263990D01*
X89971587Y-89292473D01*
X90025838Y-89322176D01*
X90067721Y-89337023D01*
X90128411Y-89349391D01*
X90187595Y-89353436D01*
X90310400Y-89353436D01*
X90310400Y-88402940D01*
X90187595Y-88402940D01*
X90126503Y-88407453D01*
X90082961Y-88415836D01*
X90026793Y-88434521D01*
X89996499Y-88449249D01*
X89946234Y-88482441D01*
X89904469Y-88524573D01*
X89870763Y-88573959D01*
X89844678Y-88628914D01*
X89826497Y-88687349D01*
X89818886Y-88725048D01*
X89811498Y-88784471D01*
X89809214Y-88832612D01*
X89656874Y-88832612D01*
X89659609Y-88773710D01*
X89667483Y-88711474D01*
X89673806Y-88679325D01*
X89689132Y-88622202D01*
X89711155Y-88565013D01*
X89720407Y-88545676D01*
X89748901Y-88494211D01*
X89787026Y-88443852D01*
X89810679Y-88419060D01*
X89855275Y-88380922D01*
X89904652Y-88348718D01*
X89940226Y-88330547D01*
X89995400Y-88308711D01*
X90055411Y-88292445D01*
X90115402Y-88282364D01*
X90174530Y-88278068D01*
X90187595Y-88277790D01*
X90465446Y-88277790D01*
X90465446Y-89478000D01*
G37*
D11*
G36*
X106874402Y-76898532D02*
G01*
X106925218Y-76909042D01*
X106960309Y-76921793D01*
X107006024Y-76947297D01*
X107045530Y-76980943D01*
X107061670Y-76999218D01*
X107090212Y-77040548D01*
X107113190Y-77088336D01*
X107125418Y-77123782D01*
X107137010Y-77172005D01*
X107144308Y-77224475D01*
X107147206Y-77275327D01*
X107147399Y-77293042D01*
X107147399Y-77527271D01*
X107145661Y-77579289D01*
X107140444Y-77627907D01*
X107130570Y-77677938D01*
X107125418Y-77696775D01*
X107107967Y-77744687D01*
X107083598Y-77790568D01*
X107061670Y-77820607D01*
X107027587Y-77855652D01*
X106984849Y-77885478D01*
X106959332Y-77898032D01*
X106911705Y-77913659D01*
X106859681Y-77922074D01*
X106822556Y-77923677D01*
X106771683Y-77920589D01*
X106720793Y-77910176D01*
X106685780Y-77897543D01*
X106640265Y-77872238D01*
X106600957Y-77838790D01*
X106584908Y-77820607D01*
X106556664Y-77779723D01*
X106533846Y-77732175D01*
X106521649Y-77696775D01*
X106510057Y-77648423D01*
X106502759Y-77595873D01*
X106499861Y-77544988D01*
X106499667Y-77527271D01*
X106499667Y-77373154D01*
X106627406Y-77373154D01*
X106627406Y-77412721D01*
X106627406Y-77554138D01*
X106629502Y-77606562D01*
X106636500Y-77657231D01*
X106642305Y-77681877D01*
X106659747Y-77728202D01*
X106688467Y-77769804D01*
X106727472Y-77799335D01*
X106745620Y-77807662D01*
X106793961Y-77819077D01*
X106822556Y-77820607D01*
X106873156Y-77815452D01*
X106896806Y-77808639D01*
X106940770Y-77784230D01*
X106952982Y-77773224D01*
X106983407Y-77732955D01*
X106994259Y-77710453D01*
X107009028Y-77663802D01*
X107016241Y-77622281D01*
X106627406Y-77324794D01*
X106627406Y-77373154D01*
X106499667Y-77373154D01*
X106499667Y-77293042D01*
X106501406Y-77241043D01*
X106505643Y-77203161D01*
X106630093Y-77203161D01*
X107019660Y-77501870D01*
X107019660Y-77466943D01*
X107019660Y-77432505D01*
X107019660Y-77264954D01*
X107017703Y-77214751D01*
X107011163Y-77165713D01*
X107005739Y-77141612D01*
X106987909Y-77093251D01*
X106962752Y-77054661D01*
X106924540Y-77023943D01*
X106903889Y-77013872D01*
X106856338Y-77001699D01*
X106823778Y-76999706D01*
X106774693Y-77004356D01*
X106745376Y-77012896D01*
X106701900Y-77038317D01*
X106687979Y-77051974D01*
X106659580Y-77092904D01*
X106649877Y-77115478D01*
X106636068Y-77164770D01*
X106630093Y-77203161D01*
X106505643Y-77203161D01*
X106507417Y-77187300D01*
X106517721Y-77137803D01*
X106521649Y-77123782D01*
X106539042Y-77075784D01*
X106563216Y-77029610D01*
X106584908Y-76999218D01*
X106621866Y-76961814D01*
X106664870Y-76932552D01*
X106686757Y-76921793D01*
X106734190Y-76905719D01*
X106786363Y-76897063D01*
X106823778Y-76895415D01*
X106874402Y-76898532D01*
G37*
G36*
X106034207Y-76898532D02*
G01*
X106085022Y-76909042D01*
X106120114Y-76921793D01*
X106165828Y-76947297D01*
X106205335Y-76980943D01*
X106221475Y-76999218D01*
X106250017Y-77040548D01*
X106272995Y-77088336D01*
X106285222Y-77123782D01*
X106296814Y-77172005D01*
X106304113Y-77224475D01*
X106307011Y-77275327D01*
X106307204Y-77293042D01*
X106307204Y-77527271D01*
X106305465Y-77579289D01*
X106300249Y-77627907D01*
X106290374Y-77677938D01*
X106285222Y-77696775D01*
X106267772Y-77744687D01*
X106243403Y-77790568D01*
X106221475Y-77820607D01*
X106187391Y-77855652D01*
X106144654Y-77885478D01*
X106119137Y-77898032D01*
X106071510Y-77913659D01*
X106019486Y-77922074D01*
X105982361Y-77923677D01*
X105931487Y-77920589D01*
X105880597Y-77910176D01*
X105845585Y-77897543D01*
X105800069Y-77872238D01*
X105760761Y-77838790D01*
X105744713Y-77820607D01*
X105716468Y-77779723D01*
X105693651Y-77732175D01*
X105681454Y-77696775D01*
X105669862Y-77648423D01*
X105662563Y-77595873D01*
X105659665Y-77544988D01*
X105659472Y-77527271D01*
X105659472Y-77373154D01*
X105787211Y-77373154D01*
X105787211Y-77412721D01*
X105787211Y-77554138D01*
X105789306Y-77606562D01*
X105796305Y-77657231D01*
X105802110Y-77681877D01*
X105819551Y-77728202D01*
X105848272Y-77769804D01*
X105887277Y-77799335D01*
X105905425Y-77807662D01*
X105953765Y-77819077D01*
X105982361Y-77820607D01*
X106032961Y-77815452D01*
X106056611Y-77808639D01*
X106100575Y-77784230D01*
X106112787Y-77773224D01*
X106143211Y-77732955D01*
X106154064Y-77710453D01*
X106168833Y-77663802D01*
X106176046Y-77622281D01*
X105787211Y-77324794D01*
X105787211Y-77373154D01*
X105659472Y-77373154D01*
X105659472Y-77293042D01*
X105661211Y-77241043D01*
X105665447Y-77203161D01*
X105789898Y-77203161D01*
X106179465Y-77501870D01*
X106179465Y-77466943D01*
X106179465Y-77432505D01*
X106179465Y-77264954D01*
X106177507Y-77214751D01*
X106170968Y-77165713D01*
X106165543Y-77141612D01*
X106147713Y-77093251D01*
X106122556Y-77054661D01*
X106084345Y-77023943D01*
X106063694Y-77013872D01*
X106016143Y-77001699D01*
X105983582Y-76999706D01*
X105934498Y-77004356D01*
X105905180Y-77012896D01*
X105861704Y-77038317D01*
X105847783Y-77051974D01*
X105819384Y-77092904D01*
X105809681Y-77115478D01*
X105795873Y-77164770D01*
X105789898Y-77203161D01*
X105665447Y-77203161D01*
X105667221Y-77187300D01*
X105677525Y-77137803D01*
X105681454Y-77123782D01*
X105698846Y-77075784D01*
X105723021Y-77029610D01*
X105744713Y-76999218D01*
X105781670Y-76961814D01*
X105824675Y-76932552D01*
X105846562Y-76921793D01*
X105893995Y-76905719D01*
X105946167Y-76897063D01*
X105983582Y-76895415D01*
X106034207Y-76898532D01*
G37*
G36*
X105298725Y-77348729D02*
G01*
X105298725Y-77451800D01*
X105208111Y-77451800D01*
X105157278Y-77455278D01*
X105121161Y-77462791D01*
X105074172Y-77482265D01*
X105053505Y-77496496D01*
X105020365Y-77534953D01*
X105010763Y-77553161D01*
X104997330Y-77600559D01*
X104995131Y-77633761D01*
X104999382Y-77683048D01*
X105008565Y-77715826D01*
X105033679Y-77759878D01*
X105046667Y-77773956D01*
X105087553Y-77801479D01*
X105106506Y-77808883D01*
X105155924Y-77818791D01*
X105184664Y-77820118D01*
X105235650Y-77815252D01*
X105263310Y-77807662D01*
X105308668Y-77784456D01*
X105323394Y-77772491D01*
X105354306Y-77733290D01*
X105361740Y-77717780D01*
X105373641Y-77669998D01*
X105374929Y-77646217D01*
X105502180Y-77646217D01*
X105498028Y-77697420D01*
X105484270Y-77747241D01*
X105477023Y-77763698D01*
X105451691Y-77805753D01*
X105417183Y-77844067D01*
X105409367Y-77850893D01*
X105369189Y-77878822D01*
X105323027Y-77900207D01*
X105308739Y-77905115D01*
X105260219Y-77917133D01*
X105209119Y-77923025D01*
X105184664Y-77923677D01*
X105135560Y-77920929D01*
X105085232Y-77911751D01*
X105059367Y-77904138D01*
X105011496Y-77883534D01*
X104969608Y-77855919D01*
X104958739Y-77846741D01*
X104925106Y-77810984D01*
X104898579Y-77768682D01*
X104892305Y-77755394D01*
X104876650Y-77708718D01*
X104868975Y-77656803D01*
X104868125Y-77631074D01*
X104872163Y-77581317D01*
X104875941Y-77561709D01*
X104892113Y-77515186D01*
X104903052Y-77495031D01*
X104934808Y-77456307D01*
X104955808Y-77438122D01*
X104997531Y-77412560D01*
X105037141Y-77396845D01*
X104993042Y-77373529D01*
X104967532Y-77354103D01*
X104933692Y-77318545D01*
X104919660Y-77298660D01*
X104897312Y-77254330D01*
X104892305Y-77239064D01*
X104883586Y-77189949D01*
X104883268Y-77178981D01*
X104886359Y-77129293D01*
X104896685Y-77080735D01*
X104905250Y-77056859D01*
X104929776Y-77010981D01*
X104962137Y-76972724D01*
X104967044Y-76968199D01*
X105007855Y-76938632D01*
X105052241Y-76918009D01*
X105062542Y-76914466D01*
X105113346Y-76901943D01*
X105164623Y-76896595D01*
X105185397Y-76896147D01*
X105235634Y-76899204D01*
X105286028Y-76909415D01*
X105311426Y-76917885D01*
X105357922Y-76939684D01*
X105398247Y-76967466D01*
X105408635Y-76976503D01*
X105442674Y-77014610D01*
X105468770Y-77058406D01*
X105471649Y-77064675D01*
X105487603Y-77113469D01*
X105493789Y-77165053D01*
X105493875Y-77172142D01*
X105366136Y-77172142D01*
X105360018Y-77121987D01*
X105353191Y-77101556D01*
X105327225Y-77059012D01*
X105315822Y-77047090D01*
X105275385Y-77019292D01*
X105259402Y-77012651D01*
X105210045Y-77001632D01*
X105185397Y-77000439D01*
X105136605Y-77004637D01*
X105110903Y-77011186D01*
X105066323Y-77034304D01*
X105056192Y-77043182D01*
X105027558Y-77084386D01*
X105021998Y-77098381D01*
X105011660Y-77146922D01*
X105010275Y-77176294D01*
X105016508Y-77225462D01*
X105023464Y-77245903D01*
X105049475Y-77288081D01*
X105061077Y-77299881D01*
X105103522Y-77327612D01*
X105123359Y-77335785D01*
X105173639Y-77346909D01*
X105208111Y-77348729D01*
X105298725Y-77348729D01*
G37*
G36*
X104194748Y-77910000D02*
G01*
X104194748Y-76909825D01*
X104205006Y-76909825D01*
X104583582Y-77055394D01*
X104583582Y-77171653D01*
X104321754Y-77072002D01*
X104321754Y-77910000D01*
X104194748Y-77910000D01*
G37*
G36*
X103834734Y-77602986D02*
G01*
X103834734Y-77677725D01*
X103378732Y-77677725D01*
X103378732Y-77910000D01*
X103251482Y-77910000D01*
X103251482Y-77677725D01*
X103112019Y-77677725D01*
X103112019Y-77574166D01*
X103251482Y-77574166D01*
X103378732Y-77574166D01*
X103693806Y-77574166D01*
X103399249Y-77117187D01*
X103378732Y-77078841D01*
X103378732Y-77574166D01*
X103251482Y-77574166D01*
X103251482Y-76909825D01*
X103386792Y-76909825D01*
X103834734Y-77602986D01*
G37*
G36*
X102402982Y-77657208D02*
G01*
X102410766Y-77706440D01*
X102421056Y-77728283D01*
X102453571Y-77767072D01*
X102466974Y-77777376D01*
X102511514Y-77800614D01*
X102531210Y-77806685D01*
X102581375Y-77815060D01*
X102604482Y-77815966D01*
X102654723Y-77811947D01*
X102690700Y-77803265D01*
X102736324Y-77782428D01*
X102760309Y-77765163D01*
X102795327Y-77727732D01*
X102809891Y-77704347D01*
X102828036Y-77657719D01*
X102835292Y-77621549D01*
X102964985Y-77621549D01*
X102959366Y-77671964D01*
X102944300Y-77721839D01*
X102936653Y-77738541D01*
X102909758Y-77781965D01*
X102875665Y-77820339D01*
X102864601Y-77830376D01*
X102823958Y-77861311D01*
X102778231Y-77886338D01*
X102744922Y-77899741D01*
X102697142Y-77913369D01*
X102648842Y-77921340D01*
X102604482Y-77923677D01*
X102552123Y-77920451D01*
X102503503Y-77911679D01*
X102484803Y-77906824D01*
X102438240Y-77890390D01*
X102392692Y-77866561D01*
X102377581Y-77856510D01*
X102339487Y-77824387D01*
X102308124Y-77785718D01*
X102300400Y-77773468D01*
X102280031Y-77726171D01*
X102271330Y-77676391D01*
X102270602Y-77655743D01*
X102275198Y-77604345D01*
X102290425Y-77554764D01*
X102298446Y-77538506D01*
X102326008Y-77496926D01*
X102360396Y-77461516D01*
X102371475Y-77452533D01*
X102413690Y-77421978D01*
X102459551Y-77396567D01*
X102473324Y-77390251D01*
X102521884Y-77370282D01*
X102570537Y-77353118D01*
X102584455Y-77348729D01*
X102632878Y-77333008D01*
X102656262Y-77324794D01*
X102701600Y-77304815D01*
X102726604Y-77290355D01*
X102764937Y-77259431D01*
X102781070Y-77240041D01*
X102800019Y-77194931D01*
X102802808Y-77166769D01*
X102795188Y-77116530D01*
X102786688Y-77096671D01*
X102756188Y-77056737D01*
X102743212Y-77045868D01*
X102700554Y-77021450D01*
X102681663Y-77014849D01*
X102633167Y-77005593D01*
X102610589Y-77004591D01*
X102559999Y-77009585D01*
X102529256Y-77018757D01*
X102486124Y-77041974D01*
X102466974Y-77058080D01*
X102436004Y-77097961D01*
X102425208Y-77119141D01*
X102409371Y-77166253D01*
X102403715Y-77197543D01*
X102273289Y-77197543D01*
X102278132Y-77147924D01*
X102291828Y-77098355D01*
X102302843Y-77073468D01*
X102328728Y-77030923D01*
X102360740Y-76993779D01*
X102377581Y-76978457D01*
X102417940Y-76949608D01*
X102462814Y-76926563D01*
X102485048Y-76917885D01*
X102534870Y-76903811D01*
X102586305Y-76896912D01*
X102610589Y-76896147D01*
X102662167Y-76899654D01*
X102713464Y-76910172D01*
X102728069Y-76914466D01*
X102776762Y-76933506D01*
X102820687Y-76958998D01*
X102832361Y-76967466D01*
X102869387Y-77001233D01*
X102899680Y-77040983D01*
X102907099Y-77053440D01*
X102926467Y-77100510D01*
X102934740Y-77148906D01*
X102935432Y-77168722D01*
X102930756Y-77218530D01*
X102915261Y-77265947D01*
X102907099Y-77281318D01*
X102876606Y-77323178D01*
X102841464Y-77357212D01*
X102833094Y-77363872D01*
X102792114Y-77392089D01*
X102747395Y-77416472D01*
X102733931Y-77422735D01*
X102686434Y-77442584D01*
X102639684Y-77459814D01*
X102626464Y-77464256D01*
X102579619Y-77479846D01*
X102550505Y-77490390D01*
X102503622Y-77511075D01*
X102477965Y-77526050D01*
X102439842Y-77559108D01*
X102423987Y-77579783D01*
X102405464Y-77627343D01*
X102402982Y-77657208D01*
G37*
G36*
X101472905Y-77910000D02*
G01*
X101472905Y-77806196D01*
X101975069Y-77806196D01*
X101706402Y-77515059D01*
X101671944Y-77476308D01*
X101639096Y-77437450D01*
X101634838Y-77432260D01*
X101604552Y-77393066D01*
X101576152Y-77350667D01*
X101574510Y-77347997D01*
X101550417Y-77302567D01*
X101533966Y-77262023D01*
X101521721Y-77212530D01*
X101518823Y-77173607D01*
X101522843Y-77122977D01*
X101536074Y-77072570D01*
X101539828Y-77062965D01*
X101563491Y-77018343D01*
X101595097Y-76979732D01*
X101599912Y-76975038D01*
X101640587Y-76943829D01*
X101685427Y-76921189D01*
X101695899Y-76917152D01*
X101744236Y-76903552D01*
X101792934Y-76897153D01*
X101823150Y-76896147D01*
X101874081Y-76899062D01*
X101925166Y-76908891D01*
X101960414Y-76920816D01*
X102006088Y-76943721D01*
X102048243Y-76974790D01*
X102061531Y-76987494D01*
X102094456Y-77026797D01*
X102119714Y-77071617D01*
X102125522Y-77085436D01*
X102140549Y-77135778D01*
X102146967Y-77185037D01*
X102147504Y-77204626D01*
X102019765Y-77204626D01*
X102015978Y-77154806D01*
X102007797Y-77120118D01*
X101986404Y-77075163D01*
X101970917Y-77055394D01*
X101932002Y-77025001D01*
X101910344Y-77014849D01*
X101861813Y-77002817D01*
X101823150Y-77000439D01*
X101772870Y-77006540D01*
X101749388Y-77014605D01*
X101707262Y-77040016D01*
X101693457Y-77052707D01*
X101665430Y-77093557D01*
X101658774Y-77109371D01*
X101647753Y-77158564D01*
X101646806Y-77178981D01*
X101652197Y-77228871D01*
X101654378Y-77237843D01*
X101672386Y-77284283D01*
X101679779Y-77297927D01*
X101706646Y-77340421D01*
X101727162Y-77368025D01*
X101760318Y-77408569D01*
X101792563Y-77445468D01*
X101800679Y-77454487D01*
X102128209Y-77818653D01*
X102128209Y-77910000D01*
X101472905Y-77910000D01*
G37*
G36*
X101259193Y-77910000D02*
G01*
X101027651Y-77910000D01*
X100975020Y-77907252D01*
X100925206Y-77900108D01*
X100893561Y-77892903D01*
X100845053Y-77877070D01*
X100797502Y-77854791D01*
X100781698Y-77845519D01*
X100739949Y-77815130D01*
X100702171Y-77779373D01*
X100697434Y-77774200D01*
X100666787Y-77735619D01*
X100641094Y-77693390D01*
X100634664Y-77680655D01*
X100615871Y-77635449D01*
X100601378Y-77586595D01*
X100598027Y-77571967D01*
X100589804Y-77522814D01*
X100585773Y-77471404D01*
X100585327Y-77446915D01*
X100585327Y-77373398D01*
X100585384Y-77372177D01*
X100712333Y-77372177D01*
X100712333Y-77446915D01*
X100715089Y-77497611D01*
X100719905Y-77535331D01*
X100730523Y-77583441D01*
X100740665Y-77613977D01*
X100760514Y-77659055D01*
X100783408Y-77694822D01*
X100817076Y-77731658D01*
X100847644Y-77755394D01*
X100892853Y-77780147D01*
X100927755Y-77792519D01*
X100978331Y-77802826D01*
X101027651Y-77806196D01*
X101129988Y-77806196D01*
X101129988Y-77014117D01*
X101027651Y-77014117D01*
X100976740Y-77017878D01*
X100940456Y-77024863D01*
X100893649Y-77040434D01*
X100868404Y-77052707D01*
X100826517Y-77080368D01*
X100791712Y-77115478D01*
X100763624Y-77156632D01*
X100741887Y-77202428D01*
X100726736Y-77251124D01*
X100720393Y-77282540D01*
X100714237Y-77332059D01*
X100712333Y-77372177D01*
X100585384Y-77372177D01*
X100587662Y-77323092D01*
X100594224Y-77271229D01*
X100599493Y-77244438D01*
X100612265Y-77196835D01*
X100630617Y-77149177D01*
X100638328Y-77133063D01*
X100662073Y-77090175D01*
X100693843Y-77048210D01*
X100713554Y-77027550D01*
X100750717Y-76995768D01*
X100791865Y-76968932D01*
X100821510Y-76953789D01*
X100867488Y-76935593D01*
X100917497Y-76922037D01*
X100967489Y-76913637D01*
X101016763Y-76910057D01*
X101027651Y-76909825D01*
X101259193Y-76909825D01*
X101259193Y-77910000D01*
G37*
G36*
X99850156Y-77524584D02*
G01*
X99850156Y-77420293D01*
X100375766Y-77420293D01*
X100375766Y-77524584D01*
X99850156Y-77524584D01*
G37*
G36*
X99629605Y-77910000D02*
G01*
X99502598Y-77910000D01*
X99422242Y-77651102D01*
X99088362Y-77651102D01*
X99009228Y-77910000D01*
X98882954Y-77910000D01*
X99000178Y-77540460D01*
X99122068Y-77540460D01*
X99387804Y-77540460D01*
X99253959Y-77106196D01*
X99122068Y-77540460D01*
X99000178Y-77540460D01*
X99200226Y-76909825D01*
X99306716Y-76909825D01*
X99629605Y-77910000D01*
G37*
G36*
X98202005Y-77657208D02*
G01*
X98209789Y-77706440D01*
X98220079Y-77728283D01*
X98252594Y-77767072D01*
X98265997Y-77777376D01*
X98310537Y-77800614D01*
X98330233Y-77806685D01*
X98380398Y-77815060D01*
X98403505Y-77815966D01*
X98453746Y-77811947D01*
X98489723Y-77803265D01*
X98535347Y-77782428D01*
X98559332Y-77765163D01*
X98594350Y-77727732D01*
X98608914Y-77704347D01*
X98627059Y-77657719D01*
X98634315Y-77621549D01*
X98764008Y-77621549D01*
X98758389Y-77671964D01*
X98743323Y-77721839D01*
X98735676Y-77738541D01*
X98708781Y-77781965D01*
X98674688Y-77820339D01*
X98663624Y-77830376D01*
X98622981Y-77861311D01*
X98577254Y-77886338D01*
X98543945Y-77899741D01*
X98496165Y-77913369D01*
X98447865Y-77921340D01*
X98403505Y-77923677D01*
X98351146Y-77920451D01*
X98302526Y-77911679D01*
X98283826Y-77906824D01*
X98237263Y-77890390D01*
X98191715Y-77866561D01*
X98176604Y-77856510D01*
X98138510Y-77824387D01*
X98107147Y-77785718D01*
X98099423Y-77773468D01*
X98079054Y-77726171D01*
X98070353Y-77676391D01*
X98069626Y-77655743D01*
X98074221Y-77604345D01*
X98089448Y-77554764D01*
X98097469Y-77538506D01*
X98125031Y-77496926D01*
X98159419Y-77461516D01*
X98170498Y-77452533D01*
X98212713Y-77421978D01*
X98258574Y-77396567D01*
X98272347Y-77390251D01*
X98320907Y-77370282D01*
X98369560Y-77353118D01*
X98383478Y-77348729D01*
X98431901Y-77333008D01*
X98455285Y-77324794D01*
X98500623Y-77304815D01*
X98525627Y-77290355D01*
X98563960Y-77259431D01*
X98580093Y-77240041D01*
X98599042Y-77194931D01*
X98601831Y-77166769D01*
X98594211Y-77116530D01*
X98585711Y-77096671D01*
X98555211Y-77056737D01*
X98542235Y-77045868D01*
X98499577Y-77021450D01*
X98480686Y-77014849D01*
X98432190Y-77005593D01*
X98409612Y-77004591D01*
X98359023Y-77009585D01*
X98328279Y-77018757D01*
X98285147Y-77041974D01*
X98265997Y-77058080D01*
X98235027Y-77097961D01*
X98224231Y-77119141D01*
X98208394Y-77166253D01*
X98202738Y-77197543D01*
X98072312Y-77197543D01*
X98077155Y-77147924D01*
X98090851Y-77098355D01*
X98101866Y-77073468D01*
X98127751Y-77030923D01*
X98159763Y-76993779D01*
X98176604Y-76978457D01*
X98216963Y-76949608D01*
X98261837Y-76926563D01*
X98284071Y-76917885D01*
X98333893Y-76903811D01*
X98385328Y-76896912D01*
X98409612Y-76896147D01*
X98461190Y-76899654D01*
X98512487Y-76910172D01*
X98527092Y-76914466D01*
X98575785Y-76933506D01*
X98619710Y-76958998D01*
X98631384Y-76967466D01*
X98668410Y-77001233D01*
X98698704Y-77040983D01*
X98706122Y-77053440D01*
X98725490Y-77100510D01*
X98733763Y-77148906D01*
X98734455Y-77168722D01*
X98729779Y-77218530D01*
X98714284Y-77265947D01*
X98706122Y-77281318D01*
X98675629Y-77323178D01*
X98640487Y-77357212D01*
X98632117Y-77363872D01*
X98591137Y-77392089D01*
X98546418Y-77416472D01*
X98532954Y-77422735D01*
X98485457Y-77442584D01*
X98438707Y-77459814D01*
X98425487Y-77464256D01*
X98378642Y-77479846D01*
X98349528Y-77490390D01*
X98302645Y-77511075D01*
X98276988Y-77526050D01*
X98238865Y-77559108D01*
X98223010Y-77579783D01*
X98204487Y-77627343D01*
X98202005Y-77657208D01*
G37*
G36*
X97237490Y-77609092D02*
G01*
X97364741Y-77609092D01*
X97374469Y-77658114D01*
X97385990Y-77693356D01*
X97408926Y-77737701D01*
X97426534Y-77760279D01*
X97464817Y-77792531D01*
X97488816Y-77804975D01*
X97537058Y-77818027D01*
X97575522Y-77820607D01*
X97626206Y-77815440D01*
X97656122Y-77805952D01*
X97698983Y-77780271D01*
X97715718Y-77765163D01*
X97746488Y-77726207D01*
X97757727Y-77706057D01*
X97776576Y-77659715D01*
X97784350Y-77633761D01*
X97794978Y-77585981D01*
X97799249Y-77556580D01*
X97803126Y-77505700D01*
X97803645Y-77479888D01*
X97803645Y-77339204D01*
X97801752Y-77289426D01*
X97799249Y-77262512D01*
X97791254Y-77213816D01*
X97784350Y-77185331D01*
X97768046Y-77137431D01*
X97757239Y-77113768D01*
X97730026Y-77071348D01*
X97714985Y-77054661D01*
X97674351Y-77023698D01*
X97655634Y-77014605D01*
X97608083Y-77001802D01*
X97575522Y-76999706D01*
X97526114Y-77004463D01*
X97488816Y-77016559D01*
X97447199Y-77042586D01*
X97426534Y-77062965D01*
X97398790Y-77103723D01*
X97385990Y-77131842D01*
X97371193Y-77180401D01*
X97364741Y-77216106D01*
X97237490Y-77216106D01*
X97246191Y-77164334D01*
X97259838Y-77115997D01*
X97271684Y-77085680D01*
X97295302Y-77040397D01*
X97324484Y-77000596D01*
X97339828Y-76984075D01*
X97380360Y-76950963D01*
X97423606Y-76926746D01*
X97441677Y-76919106D01*
X97492281Y-76904241D01*
X97543572Y-76897246D01*
X97575522Y-76896147D01*
X97624309Y-76899050D01*
X97672341Y-76908667D01*
X97688362Y-76913733D01*
X97735684Y-76934494D01*
X97777511Y-76962093D01*
X97814514Y-76995737D01*
X97845899Y-77035122D01*
X97871972Y-77079207D01*
X97891868Y-77123865D01*
X97893038Y-77126957D01*
X97908752Y-77174337D01*
X97920172Y-77223972D01*
X97921370Y-77230760D01*
X97928193Y-77281862D01*
X97931259Y-77333500D01*
X97931384Y-77340425D01*
X97931384Y-77479888D01*
X97928819Y-77531826D01*
X97922497Y-77583228D01*
X97921370Y-77590041D01*
X97910522Y-77639801D01*
X97895381Y-77687414D01*
X97893038Y-77693600D01*
X97873435Y-77738419D01*
X97847675Y-77782558D01*
X97845899Y-77785191D01*
X97814514Y-77824209D01*
X97777511Y-77857732D01*
X97735562Y-77885392D01*
X97687874Y-77906336D01*
X97638007Y-77918783D01*
X97587010Y-77923525D01*
X97575522Y-77923677D01*
X97523373Y-77920449D01*
X97475001Y-77910763D01*
X97444852Y-77900718D01*
X97399606Y-77878920D01*
X97359520Y-77850834D01*
X97342759Y-77835750D01*
X97308445Y-77796453D01*
X97282107Y-77754271D01*
X97273394Y-77736587D01*
X97254507Y-77687502D01*
X97242297Y-77638902D01*
X97237490Y-77609092D01*
G37*
G36*
X97045271Y-76909825D02*
G01*
X97045271Y-77020467D01*
X96811042Y-77020467D01*
X96811042Y-77800090D01*
X97045271Y-77800090D01*
X97045271Y-77910000D01*
X96440770Y-77910000D01*
X96440770Y-77800090D01*
X96680372Y-77800090D01*
X96680372Y-77020467D01*
X96440770Y-77020467D01*
X96440770Y-76909825D01*
X97045271Y-76909825D01*
G37*
G36*
X96205076Y-76909825D02*
G01*
X96205076Y-77020467D01*
X95970847Y-77020467D01*
X95970847Y-77800090D01*
X96205076Y-77800090D01*
X96205076Y-77910000D01*
X95600575Y-77910000D01*
X95600575Y-77800090D01*
X95840177Y-77800090D01*
X95840177Y-77020467D01*
X95600575Y-77020467D01*
X95600575Y-76909825D01*
X96205076Y-76909825D01*
G37*
G36*
X91864636Y-76909825D02*
G01*
X92021928Y-76909825D01*
X92021928Y-77910000D01*
X91898097Y-77910000D01*
X91898097Y-77510907D01*
X91908600Y-77107662D01*
X91738851Y-77631807D01*
X91666067Y-77631807D01*
X91481175Y-77093251D01*
X91491433Y-77510907D01*
X91491433Y-77910000D01*
X91367846Y-77910000D01*
X91367846Y-76909825D01*
X91525871Y-76909825D01*
X91701726Y-77409790D01*
X91864636Y-76909825D01*
G37*
G36*
X90941154Y-77563175D02*
G01*
X90668579Y-77910000D01*
X90507134Y-77910000D01*
X90853959Y-77476468D01*
X90553052Y-77166769D01*
X90707658Y-77166769D01*
X90951656Y-77411256D01*
X91034699Y-77500648D01*
X91034699Y-76854870D01*
X91162438Y-76854870D01*
X91162438Y-77910000D01*
X91034699Y-77910000D01*
X91034699Y-77653056D01*
X90941154Y-77563175D01*
G37*
G36*
X90323708Y-76909825D02*
G01*
X90323708Y-77020467D01*
X90089479Y-77020467D01*
X90089479Y-77800090D01*
X90323708Y-77800090D01*
X90323708Y-77910000D01*
X89719207Y-77910000D01*
X89719207Y-77800090D01*
X89958809Y-77800090D01*
X89958809Y-77020467D01*
X89719207Y-77020467D01*
X89719207Y-76909825D01*
X90323708Y-76909825D01*
G37*
G36*
X92172117Y-85668000D02*
G01*
X92039347Y-85668000D01*
X91660966Y-84467790D01*
X91823338Y-84467790D01*
X92088586Y-85362305D01*
X92106758Y-85422389D01*
X92124050Y-85363771D01*
X92387832Y-84467790D01*
X92551084Y-84467790D01*
X92172117Y-85668000D01*
G37*
G36*
X90680575Y-85306911D02*
G01*
X90833275Y-85306911D01*
X90844950Y-85365736D01*
X90858774Y-85408027D01*
X90886297Y-85461242D01*
X90907428Y-85488334D01*
X90953367Y-85527037D01*
X90982166Y-85541970D01*
X91040056Y-85557632D01*
X91086213Y-85560728D01*
X91147034Y-85554528D01*
X91182933Y-85543143D01*
X91234366Y-85512326D01*
X91254448Y-85494196D01*
X91291373Y-85447448D01*
X91304860Y-85423268D01*
X91327478Y-85367658D01*
X91336806Y-85336513D01*
X91349561Y-85279177D01*
X91354685Y-85243896D01*
X91359337Y-85182840D01*
X91359961Y-85151866D01*
X91359961Y-84983045D01*
X91357689Y-84923311D01*
X91354685Y-84891014D01*
X91345091Y-84832579D01*
X91336806Y-84798397D01*
X91317242Y-84740917D01*
X91304273Y-84712521D01*
X91271618Y-84661617D01*
X91253569Y-84641593D01*
X91204807Y-84604438D01*
X91182347Y-84593526D01*
X91125286Y-84578162D01*
X91086213Y-84575648D01*
X91026924Y-84581355D01*
X90982166Y-84595871D01*
X90932226Y-84627104D01*
X90907428Y-84651558D01*
X90874134Y-84700468D01*
X90858774Y-84734210D01*
X90841019Y-84792481D01*
X90833275Y-84835327D01*
X90680575Y-84835327D01*
X90691016Y-84773201D01*
X90707393Y-84715196D01*
X90721608Y-84678816D01*
X90749950Y-84624476D01*
X90784967Y-84576715D01*
X90803380Y-84556890D01*
X90852018Y-84517155D01*
X90903914Y-84488095D01*
X90925599Y-84478928D01*
X90986324Y-84461090D01*
X91047873Y-84452695D01*
X91086213Y-84451377D01*
X91144758Y-84454860D01*
X91202396Y-84466400D01*
X91221622Y-84472480D01*
X91278408Y-84497392D01*
X91328600Y-84530512D01*
X91373003Y-84570885D01*
X91410666Y-84618146D01*
X91441953Y-84671049D01*
X91465828Y-84724638D01*
X91467232Y-84728348D01*
X91486088Y-84785205D01*
X91499793Y-84844766D01*
X91501231Y-84852912D01*
X91509418Y-84914234D01*
X91513098Y-84976200D01*
X91513248Y-84984510D01*
X91513248Y-85151866D01*
X91510169Y-85214192D01*
X91502583Y-85275874D01*
X91501231Y-85284050D01*
X91488213Y-85343761D01*
X91470044Y-85400897D01*
X91467232Y-85408321D01*
X91443709Y-85462103D01*
X91412797Y-85515070D01*
X91410666Y-85518230D01*
X91373003Y-85565051D01*
X91328600Y-85605278D01*
X91278261Y-85638471D01*
X91221035Y-85663603D01*
X91161195Y-85678540D01*
X91099998Y-85684230D01*
X91086213Y-85684413D01*
X91023634Y-85680538D01*
X90965588Y-85668915D01*
X90929409Y-85656862D01*
X90875114Y-85630704D01*
X90827011Y-85597000D01*
X90806897Y-85578900D01*
X90765720Y-85531744D01*
X90734115Y-85481125D01*
X90723659Y-85459905D01*
X90700995Y-85401003D01*
X90686343Y-85342682D01*
X90680575Y-85306911D01*
G37*
G36*
X89672340Y-85306911D02*
G01*
X89825041Y-85306911D01*
X89836715Y-85365736D01*
X89850540Y-85408027D01*
X89878063Y-85461242D01*
X89899193Y-85488334D01*
X89945133Y-85527037D01*
X89973931Y-85541970D01*
X90031821Y-85557632D01*
X90077979Y-85560728D01*
X90138800Y-85554528D01*
X90174699Y-85543143D01*
X90226132Y-85512326D01*
X90246213Y-85494196D01*
X90283138Y-85447448D01*
X90296625Y-85423268D01*
X90319243Y-85367658D01*
X90328572Y-85336513D01*
X90341326Y-85279177D01*
X90346451Y-85243896D01*
X90351103Y-85182840D01*
X90351726Y-85151866D01*
X90351726Y-84983045D01*
X90349454Y-84923311D01*
X90346451Y-84891014D01*
X90336856Y-84832579D01*
X90328572Y-84798397D01*
X90309007Y-84740917D01*
X90296039Y-84712521D01*
X90263383Y-84661617D01*
X90245334Y-84641593D01*
X90196573Y-84604438D01*
X90174113Y-84593526D01*
X90117052Y-84578162D01*
X90077979Y-84575648D01*
X90018689Y-84581355D01*
X89973931Y-84595871D01*
X89923991Y-84627104D01*
X89899193Y-84651558D01*
X89865900Y-84700468D01*
X89850540Y-84734210D01*
X89832784Y-84792481D01*
X89825041Y-84835327D01*
X89672340Y-84835327D01*
X89682782Y-84773201D01*
X89699158Y-84715196D01*
X89713373Y-84678816D01*
X89741715Y-84624476D01*
X89776732Y-84576715D01*
X89795146Y-84556890D01*
X89843784Y-84517155D01*
X89895679Y-84488095D01*
X89917365Y-84478928D01*
X89978090Y-84461090D01*
X90039639Y-84452695D01*
X90077979Y-84451377D01*
X90136523Y-84454860D01*
X90194162Y-84466400D01*
X90213387Y-84472480D01*
X90270174Y-84497392D01*
X90320365Y-84530512D01*
X90364769Y-84570885D01*
X90402431Y-84618146D01*
X90433719Y-84671049D01*
X90457594Y-84724638D01*
X90458998Y-84728348D01*
X90477854Y-84785205D01*
X90491558Y-84844766D01*
X90492996Y-84852912D01*
X90501184Y-84914234D01*
X90504863Y-84976200D01*
X90505013Y-84984510D01*
X90505013Y-85151866D01*
X90501935Y-85214192D01*
X90494348Y-85275874D01*
X90492996Y-85284050D01*
X90479979Y-85343761D01*
X90461810Y-85400897D01*
X90458998Y-85408321D01*
X90435475Y-85462103D01*
X90404563Y-85515070D01*
X90402431Y-85518230D01*
X90364769Y-85565051D01*
X90320365Y-85605278D01*
X90270027Y-85638471D01*
X90212801Y-85663603D01*
X90152960Y-85678540D01*
X90091764Y-85684230D01*
X90077979Y-85684413D01*
X90015399Y-85680538D01*
X89957353Y-85668915D01*
X89921175Y-85656862D01*
X89866880Y-85630704D01*
X89818776Y-85597000D01*
X89798663Y-85578900D01*
X89757486Y-85531744D01*
X89725880Y-85481125D01*
X89715425Y-85459905D01*
X89692761Y-85401003D01*
X89678109Y-85342682D01*
X89672340Y-85306911D01*
G37*
D13*
%TO.C,C1*%
X96815581Y-86055000D02*
X96534419Y-86055000D01*
X96815581Y-85035000D02*
X96534419Y-85035000D01*
%TO.C,R1*%
X101497500Y-83144758D02*
X101497500Y-82670242D01*
X100452500Y-83144758D02*
X100452500Y-82670242D01*
%TO.C,R2*%
X96397500Y-82919758D02*
X96397500Y-82445242D01*
X95352500Y-82919758D02*
X95352500Y-82445242D01*
%TO.C,TP1*%
X101575000Y-88745000D02*
G75*
G02*
X100175000Y-88745000I-700000J0D01*
G01*
X100175000Y-88745000D02*
G75*
G02*
X101575000Y-88745000I700000J0D01*
G01*
%TO.C,C2*%
X96815581Y-87605000D02*
X96534419Y-87605000D01*
X96815581Y-86585000D02*
X96534419Y-86585000D01*
%TD*%
M02*
