%TF.GenerationSoftware,KiCad,Pcbnew,8.0.4*%
%TF.CreationDate,2024-09-13T11:56:01+01:00*%
%TF.ProjectId,MkI,4d6b492e-6b69-4636-9164-5f7063625858,rev?*%
%TF.SameCoordinates,Original*%
%TF.FileFunction,Legend,Top*%
%TF.FilePolarity,Positive*%
%FSLAX46Y46*%
G04 Gerber Fmt 4.6, Leading zero omitted, Abs format (unit mm)*
G04 Created by KiCad (PCBNEW 8.0.4) date 2024-09-13 11:56:01*
%MOMM*%
%LPD*%
G01*
G04 APERTURE LIST*
%ADD10C,0.200000*%
%ADD11C,0.120000*%
G04 APERTURE END LIST*
D10*
G36*
X88409592Y-96860000D02*
G01*
X88409592Y-95859825D01*
X88399334Y-95859825D01*
X87963849Y-96017117D01*
X87963849Y-96183447D01*
X88216640Y-96092588D01*
X88216640Y-96860000D01*
X88409592Y-96860000D01*
G37*
D11*
%TO.C,U1*%
X101350000Y-83135000D02*
X101110000Y-82805000D01*
X101590000Y-82805000D01*
X101350000Y-83135000D01*
G36*
X101350000Y-83135000D02*
G01*
X101110000Y-82805000D01*
X101590000Y-82805000D01*
X101350000Y-83135000D01*
G37*
X101810000Y-86995000D02*
X101810000Y-89195000D01*
X101810000Y-86995000D02*
X101810000Y-84795000D01*
X95040000Y-86995000D02*
X95040000Y-89195000D01*
X95040000Y-86995000D02*
X95040000Y-84795000D01*
%TO.C,RN2*%
X109065000Y-90675000D02*
X109065000Y-91675000D01*
X105705000Y-90675000D02*
X105705000Y-91675000D01*
%TO.C,RN1*%
X91145000Y-90675000D02*
X91145000Y-91675000D01*
X87785000Y-90675000D02*
X87785000Y-91675000D01*
%TO.C,RN4*%
X109065000Y-82315000D02*
X109065000Y-83315000D01*
X105705000Y-82315000D02*
X105705000Y-83315000D01*
%TO.C,RN3*%
X91145000Y-82315000D02*
X91145000Y-83315000D01*
X87785000Y-82315000D02*
X87785000Y-83315000D01*
%TD*%
M02*
