%TF.GenerationSoftware,KiCad,Pcbnew,8.0.4*%
%TF.CreationDate,2024-09-13T11:55:58+01:00*%
%TF.ProjectId,MkI,4d6b492e-6b69-4636-9164-5f7063625858,rev?*%
%TF.SameCoordinates,Original*%
%TF.FileFunction,Drillmap*%
%TF.FilePolarity,Positive*%
%FSLAX45Y45*%
G04 Gerber Fmt 4.5, Leading zero omitted, Abs format (unit mm)*
G04 Created by KiCad (PCBNEW 8.0.4) date 2024-09-13 11:55:58*
%MOMM*%
%LPD*%
G01*
G04 APERTURE LIST*
%ADD10C,0.050000*%
%ADD11C,0.200000*%
%ADD12C,0.100000*%
%ADD13C,0.120000*%
G04 APERTURE END LIST*
D10*
X10982500Y-7659500D02*
G75*
G02*
X11082496Y-7759500I-4J-100000D01*
G01*
X8602500Y-7759500D02*
G75*
G02*
X8702500Y-7659504I99996J0D01*
G01*
X8602500Y-7759500D02*
X8602500Y-9639500D01*
X10982500Y-9739500D02*
X8702500Y-9739500D01*
X8702500Y-7659500D02*
X10982500Y-7659500D01*
X8702500Y-9739500D02*
G75*
G02*
X8602496Y-9639500I-4J100000D01*
G01*
X11082500Y-7759500D02*
X11082500Y-9639500D01*
X11082500Y-9639500D02*
G75*
G02*
X10982500Y-9739504I-100004J0D01*
G01*
D11*
D12*
X8709546Y-9103000D02*
X8739546Y-9133000D01*
X8739546Y-9103000D02*
X8709546Y-9133000D01*
X8929546Y-9103000D02*
X8959546Y-9133000D01*
X8959546Y-9103000D02*
X8929546Y-9133000D01*
X8937500Y-8684500D02*
X8967500Y-8714500D01*
X8967500Y-8684500D02*
X8937500Y-8714500D01*
X8943500Y-9581500D02*
X8973500Y-9611500D01*
X8973500Y-9581500D02*
X8943500Y-9611500D01*
X9010000Y-8267000D02*
X9040000Y-8297000D01*
X9040000Y-8267000D02*
X9010000Y-8297000D01*
X9147500Y-8359500D02*
X9177500Y-8389500D01*
X9177500Y-8359500D02*
X9147500Y-8389500D01*
X9149546Y-9103000D02*
X9179546Y-9133000D01*
X9179546Y-9103000D02*
X9149546Y-9133000D01*
X9247500Y-8359500D02*
X9277500Y-8389500D01*
X9277500Y-8359500D02*
X9247500Y-8389500D01*
X9387500Y-8265750D02*
X9417500Y-8295750D01*
X9417500Y-8265750D02*
X9387500Y-8295750D01*
X9451500Y-9581500D02*
X9481500Y-9611500D01*
X9481500Y-9581500D02*
X9451500Y-9611500D01*
X9600000Y-8294500D02*
X9630000Y-8324500D01*
X9630000Y-8294500D02*
X9600000Y-8324500D01*
X9732500Y-8264500D02*
X9762500Y-8294500D01*
X9762500Y-8264500D02*
X9732500Y-8294500D01*
X9762500Y-8809500D02*
X9792500Y-8839500D01*
X9792500Y-8809500D02*
X9762500Y-8839500D01*
X9829546Y-9103000D02*
X9859546Y-9133000D01*
X9859546Y-9103000D02*
X9829546Y-9133000D01*
X9954500Y-9319500D02*
X9984500Y-9349500D01*
X9984500Y-9319500D02*
X9954500Y-9349500D01*
X9959500Y-8057500D02*
X9989500Y-8087500D01*
X9989500Y-8057500D02*
X9959500Y-8087500D01*
X9990000Y-9084500D02*
X10020000Y-9114500D01*
X10020000Y-9084500D02*
X9990000Y-9114500D01*
X9997500Y-8194500D02*
X10027500Y-8224500D01*
X10027500Y-8194500D02*
X9997500Y-8224500D01*
X10213500Y-9581500D02*
X10243500Y-9611500D01*
X10243500Y-9581500D02*
X10213500Y-9611500D01*
X10267500Y-8265750D02*
X10297500Y-8295750D01*
X10297500Y-8265750D02*
X10267500Y-8295750D01*
X10457500Y-8364500D02*
X10487500Y-8394500D01*
X10487500Y-8364500D02*
X10457500Y-8394500D01*
X10504546Y-9103000D02*
X10534546Y-9133000D01*
X10534546Y-9103000D02*
X10504546Y-9133000D01*
X10645000Y-8267000D02*
X10675000Y-8297000D01*
X10675000Y-8267000D02*
X10645000Y-8297000D01*
X10714546Y-8613000D02*
X10744546Y-8643000D01*
X10744546Y-8613000D02*
X10714546Y-8643000D01*
X10714546Y-8753000D02*
X10744546Y-8783000D01*
X10744546Y-8753000D02*
X10714546Y-8783000D01*
X10721500Y-9581500D02*
X10751500Y-9611500D01*
X10751500Y-9581500D02*
X10721500Y-9611500D01*
X10724546Y-9103000D02*
X10754546Y-9133000D01*
X10754546Y-9103000D02*
X10724546Y-9133000D01*
X10944546Y-9103000D02*
X10974546Y-9133000D01*
X10974546Y-9103000D02*
X10944546Y-9133000D01*
D13*
X8886500Y-7937500D02*
G75*
G02*
X8766500Y-7937500I-60000J0D01*
G01*
X8766500Y-7937500D02*
G75*
G02*
X8886500Y-7937500I60000J0D01*
G01*
X8886500Y-9461500D02*
G75*
G02*
X8766500Y-9461500I-60000J0D01*
G01*
X8766500Y-9461500D02*
G75*
G02*
X8886500Y-9461500I60000J0D01*
G01*
X9140500Y-7937500D02*
G75*
G02*
X9020500Y-7937500I-60000J0D01*
G01*
X9020500Y-7937500D02*
G75*
G02*
X9140500Y-7937500I60000J0D01*
G01*
X9140500Y-9461500D02*
G75*
G02*
X9020500Y-9461500I-60000J0D01*
G01*
X9020500Y-9461500D02*
G75*
G02*
X9140500Y-9461500I60000J0D01*
G01*
X9394500Y-7937500D02*
G75*
G02*
X9274500Y-7937500I-60000J0D01*
G01*
X9274500Y-7937500D02*
G75*
G02*
X9394500Y-7937500I60000J0D01*
G01*
X9394500Y-9461500D02*
G75*
G02*
X9274500Y-9461500I-60000J0D01*
G01*
X9274500Y-9461500D02*
G75*
G02*
X9394500Y-9461500I60000J0D01*
G01*
X9648500Y-7937500D02*
G75*
G02*
X9528500Y-7937500I-60000J0D01*
G01*
X9528500Y-7937500D02*
G75*
G02*
X9648500Y-7937500I60000J0D01*
G01*
X9648500Y-9461500D02*
G75*
G02*
X9528500Y-9461500I-60000J0D01*
G01*
X9528500Y-9461500D02*
G75*
G02*
X9648500Y-9461500I60000J0D01*
G01*
X9902500Y-7937500D02*
G75*
G02*
X9782500Y-7937500I-60000J0D01*
G01*
X9782500Y-7937500D02*
G75*
G02*
X9902500Y-7937500I60000J0D01*
G01*
X9902500Y-9461500D02*
G75*
G02*
X9782500Y-9461500I-60000J0D01*
G01*
X9782500Y-9461500D02*
G75*
G02*
X9902500Y-9461500I60000J0D01*
G01*
X10156500Y-7937500D02*
G75*
G02*
X10036500Y-7937500I-60000J0D01*
G01*
X10036500Y-7937500D02*
G75*
G02*
X10156500Y-7937500I60000J0D01*
G01*
X10156500Y-9461500D02*
G75*
G02*
X10036500Y-9461500I-60000J0D01*
G01*
X10036500Y-9461500D02*
G75*
G02*
X10156500Y-9461500I60000J0D01*
G01*
X10410500Y-7937500D02*
G75*
G02*
X10290500Y-7937500I-60000J0D01*
G01*
X10290500Y-7937500D02*
G75*
G02*
X10410500Y-7937500I60000J0D01*
G01*
X10410500Y-9461500D02*
G75*
G02*
X10290500Y-9461500I-60000J0D01*
G01*
X10290500Y-9461500D02*
G75*
G02*
X10410500Y-9461500I60000J0D01*
G01*
X10664500Y-7937500D02*
G75*
G02*
X10544500Y-7937500I-60000J0D01*
G01*
X10544500Y-7937500D02*
G75*
G02*
X10664500Y-7937500I60000J0D01*
G01*
X10664500Y-9461500D02*
G75*
G02*
X10544500Y-9461500I-60000J0D01*
G01*
X10544500Y-9461500D02*
G75*
G02*
X10664500Y-9461500I60000J0D01*
G01*
X10918500Y-7937500D02*
G75*
G02*
X10798500Y-7937500I-60000J0D01*
G01*
X10798500Y-7937500D02*
G75*
G02*
X10918500Y-7937500I60000J0D01*
G01*
X10918500Y-9461500D02*
G75*
G02*
X10798500Y-9461500I-60000J0D01*
G01*
X10798500Y-9461500D02*
G75*
G02*
X10918500Y-9461500I60000J0D01*
G01*
D11*
X8860777Y-10053484D02*
X8860777Y-9853484D01*
X8860777Y-9853484D02*
X8908396Y-9853484D01*
X8908396Y-9853484D02*
X8936967Y-9863008D01*
X8936967Y-9863008D02*
X8956015Y-9882055D01*
X8956015Y-9882055D02*
X8965539Y-9901103D01*
X8965539Y-9901103D02*
X8975063Y-9939198D01*
X8975063Y-9939198D02*
X8975063Y-9967770D01*
X8975063Y-9967770D02*
X8965539Y-10005865D01*
X8965539Y-10005865D02*
X8956015Y-10024912D01*
X8956015Y-10024912D02*
X8936967Y-10043960D01*
X8936967Y-10043960D02*
X8908396Y-10053484D01*
X8908396Y-10053484D02*
X8860777Y-10053484D01*
X9060777Y-10053484D02*
X9060777Y-9920150D01*
X9060777Y-9958246D02*
X9070301Y-9939198D01*
X9070301Y-9939198D02*
X9079824Y-9929674D01*
X9079824Y-9929674D02*
X9098872Y-9920150D01*
X9098872Y-9920150D02*
X9117920Y-9920150D01*
X9184586Y-10053484D02*
X9184586Y-9920150D01*
X9184586Y-9853484D02*
X9175063Y-9863008D01*
X9175063Y-9863008D02*
X9184586Y-9872531D01*
X9184586Y-9872531D02*
X9194110Y-9863008D01*
X9194110Y-9863008D02*
X9184586Y-9853484D01*
X9184586Y-9853484D02*
X9184586Y-9872531D01*
X9308396Y-10053484D02*
X9289348Y-10043960D01*
X9289348Y-10043960D02*
X9279824Y-10024912D01*
X9279824Y-10024912D02*
X9279824Y-9853484D01*
X9413158Y-10053484D02*
X9394110Y-10043960D01*
X9394110Y-10043960D02*
X9384586Y-10024912D01*
X9384586Y-10024912D02*
X9384586Y-9853484D01*
X9641729Y-10053484D02*
X9641729Y-9853484D01*
X9641729Y-9853484D02*
X9708396Y-9996341D01*
X9708396Y-9996341D02*
X9775063Y-9853484D01*
X9775063Y-9853484D02*
X9775063Y-10053484D01*
X9956015Y-10053484D02*
X9956015Y-9948722D01*
X9956015Y-9948722D02*
X9946491Y-9929674D01*
X9946491Y-9929674D02*
X9927444Y-9920150D01*
X9927444Y-9920150D02*
X9889348Y-9920150D01*
X9889348Y-9920150D02*
X9870301Y-9929674D01*
X9956015Y-10043960D02*
X9936967Y-10053484D01*
X9936967Y-10053484D02*
X9889348Y-10053484D01*
X9889348Y-10053484D02*
X9870301Y-10043960D01*
X9870301Y-10043960D02*
X9860777Y-10024912D01*
X9860777Y-10024912D02*
X9860777Y-10005865D01*
X9860777Y-10005865D02*
X9870301Y-9986817D01*
X9870301Y-9986817D02*
X9889348Y-9977293D01*
X9889348Y-9977293D02*
X9936967Y-9977293D01*
X9936967Y-9977293D02*
X9956015Y-9967770D01*
X10051253Y-9920150D02*
X10051253Y-10120150D01*
X10051253Y-9929674D02*
X10070301Y-9920150D01*
X10070301Y-9920150D02*
X10108396Y-9920150D01*
X10108396Y-9920150D02*
X10127444Y-9929674D01*
X10127444Y-9929674D02*
X10136967Y-9939198D01*
X10136967Y-9939198D02*
X10146491Y-9958246D01*
X10146491Y-9958246D02*
X10146491Y-10015389D01*
X10146491Y-10015389D02*
X10136967Y-10034436D01*
X10136967Y-10034436D02*
X10127444Y-10043960D01*
X10127444Y-10043960D02*
X10108396Y-10053484D01*
X10108396Y-10053484D02*
X10070301Y-10053484D01*
X10070301Y-10053484D02*
X10051253Y-10043960D01*
X10232205Y-10034436D02*
X10241729Y-10043960D01*
X10241729Y-10043960D02*
X10232205Y-10053484D01*
X10232205Y-10053484D02*
X10222682Y-10043960D01*
X10222682Y-10043960D02*
X10232205Y-10034436D01*
X10232205Y-10034436D02*
X10232205Y-10053484D01*
X10232205Y-9929674D02*
X10241729Y-9939198D01*
X10241729Y-9939198D02*
X10232205Y-9948722D01*
X10232205Y-9948722D02*
X10222682Y-9939198D01*
X10222682Y-9939198D02*
X10232205Y-9929674D01*
X10232205Y-9929674D02*
X10232205Y-9948722D01*
D12*
X8570000Y-10367000D02*
X8600000Y-10397000D01*
X8600000Y-10367000D02*
X8570000Y-10397000D01*
D11*
X8898872Y-10273484D02*
X8917920Y-10273484D01*
X8917920Y-10273484D02*
X8936967Y-10283008D01*
X8936967Y-10283008D02*
X8946491Y-10292531D01*
X8946491Y-10292531D02*
X8956015Y-10311579D01*
X8956015Y-10311579D02*
X8965539Y-10349674D01*
X8965539Y-10349674D02*
X8965539Y-10397293D01*
X8965539Y-10397293D02*
X8956015Y-10435389D01*
X8956015Y-10435389D02*
X8946491Y-10454436D01*
X8946491Y-10454436D02*
X8936967Y-10463960D01*
X8936967Y-10463960D02*
X8917920Y-10473484D01*
X8917920Y-10473484D02*
X8898872Y-10473484D01*
X8898872Y-10473484D02*
X8879824Y-10463960D01*
X8879824Y-10463960D02*
X8870301Y-10454436D01*
X8870301Y-10454436D02*
X8860777Y-10435389D01*
X8860777Y-10435389D02*
X8851253Y-10397293D01*
X8851253Y-10397293D02*
X8851253Y-10349674D01*
X8851253Y-10349674D02*
X8860777Y-10311579D01*
X8860777Y-10311579D02*
X8870301Y-10292531D01*
X8870301Y-10292531D02*
X8879824Y-10283008D01*
X8879824Y-10283008D02*
X8898872Y-10273484D01*
X9051253Y-10454436D02*
X9060777Y-10463960D01*
X9060777Y-10463960D02*
X9051253Y-10473484D01*
X9051253Y-10473484D02*
X9041729Y-10463960D01*
X9041729Y-10463960D02*
X9051253Y-10454436D01*
X9051253Y-10454436D02*
X9051253Y-10473484D01*
X9127444Y-10273484D02*
X9251253Y-10273484D01*
X9251253Y-10273484D02*
X9184586Y-10349674D01*
X9184586Y-10349674D02*
X9213158Y-10349674D01*
X9213158Y-10349674D02*
X9232205Y-10359198D01*
X9232205Y-10359198D02*
X9241729Y-10368722D01*
X9241729Y-10368722D02*
X9251253Y-10387770D01*
X9251253Y-10387770D02*
X9251253Y-10435389D01*
X9251253Y-10435389D02*
X9241729Y-10454436D01*
X9241729Y-10454436D02*
X9232205Y-10463960D01*
X9232205Y-10463960D02*
X9213158Y-10473484D01*
X9213158Y-10473484D02*
X9156015Y-10473484D01*
X9156015Y-10473484D02*
X9136967Y-10463960D01*
X9136967Y-10463960D02*
X9127444Y-10454436D01*
X9375063Y-10273484D02*
X9394110Y-10273484D01*
X9394110Y-10273484D02*
X9413158Y-10283008D01*
X9413158Y-10283008D02*
X9422682Y-10292531D01*
X9422682Y-10292531D02*
X9432205Y-10311579D01*
X9432205Y-10311579D02*
X9441729Y-10349674D01*
X9441729Y-10349674D02*
X9441729Y-10397293D01*
X9441729Y-10397293D02*
X9432205Y-10435389D01*
X9432205Y-10435389D02*
X9422682Y-10454436D01*
X9422682Y-10454436D02*
X9413158Y-10463960D01*
X9413158Y-10463960D02*
X9394110Y-10473484D01*
X9394110Y-10473484D02*
X9375063Y-10473484D01*
X9375063Y-10473484D02*
X9356015Y-10463960D01*
X9356015Y-10463960D02*
X9346491Y-10454436D01*
X9346491Y-10454436D02*
X9336967Y-10435389D01*
X9336967Y-10435389D02*
X9327444Y-10397293D01*
X9327444Y-10397293D02*
X9327444Y-10349674D01*
X9327444Y-10349674D02*
X9336967Y-10311579D01*
X9336967Y-10311579D02*
X9346491Y-10292531D01*
X9346491Y-10292531D02*
X9356015Y-10283008D01*
X9356015Y-10283008D02*
X9375063Y-10273484D01*
X9565539Y-10273484D02*
X9584586Y-10273484D01*
X9584586Y-10273484D02*
X9603634Y-10283008D01*
X9603634Y-10283008D02*
X9613158Y-10292531D01*
X9613158Y-10292531D02*
X9622682Y-10311579D01*
X9622682Y-10311579D02*
X9632205Y-10349674D01*
X9632205Y-10349674D02*
X9632205Y-10397293D01*
X9632205Y-10397293D02*
X9622682Y-10435389D01*
X9622682Y-10435389D02*
X9613158Y-10454436D01*
X9613158Y-10454436D02*
X9603634Y-10463960D01*
X9603634Y-10463960D02*
X9584586Y-10473484D01*
X9584586Y-10473484D02*
X9565539Y-10473484D01*
X9565539Y-10473484D02*
X9546491Y-10463960D01*
X9546491Y-10463960D02*
X9536967Y-10454436D01*
X9536967Y-10454436D02*
X9527444Y-10435389D01*
X9527444Y-10435389D02*
X9517920Y-10397293D01*
X9517920Y-10397293D02*
X9517920Y-10349674D01*
X9517920Y-10349674D02*
X9527444Y-10311579D01*
X9527444Y-10311579D02*
X9536967Y-10292531D01*
X9536967Y-10292531D02*
X9546491Y-10283008D01*
X9546491Y-10283008D02*
X9565539Y-10273484D01*
X9717920Y-10473484D02*
X9717920Y-10340150D01*
X9717920Y-10359198D02*
X9727444Y-10349674D01*
X9727444Y-10349674D02*
X9746491Y-10340150D01*
X9746491Y-10340150D02*
X9775063Y-10340150D01*
X9775063Y-10340150D02*
X9794110Y-10349674D01*
X9794110Y-10349674D02*
X9803634Y-10368722D01*
X9803634Y-10368722D02*
X9803634Y-10473484D01*
X9803634Y-10368722D02*
X9813158Y-10349674D01*
X9813158Y-10349674D02*
X9832205Y-10340150D01*
X9832205Y-10340150D02*
X9860777Y-10340150D01*
X9860777Y-10340150D02*
X9879825Y-10349674D01*
X9879825Y-10349674D02*
X9889348Y-10368722D01*
X9889348Y-10368722D02*
X9889348Y-10473484D01*
X9984586Y-10473484D02*
X9984586Y-10340150D01*
X9984586Y-10359198D02*
X9994110Y-10349674D01*
X9994110Y-10349674D02*
X10013158Y-10340150D01*
X10013158Y-10340150D02*
X10041729Y-10340150D01*
X10041729Y-10340150D02*
X10060777Y-10349674D01*
X10060777Y-10349674D02*
X10070301Y-10368722D01*
X10070301Y-10368722D02*
X10070301Y-10473484D01*
X10070301Y-10368722D02*
X10079825Y-10349674D01*
X10079825Y-10349674D02*
X10098872Y-10340150D01*
X10098872Y-10340150D02*
X10127444Y-10340150D01*
X10127444Y-10340150D02*
X10146491Y-10349674D01*
X10146491Y-10349674D02*
X10156015Y-10368722D01*
X10156015Y-10368722D02*
X10156015Y-10473484D01*
X10546491Y-10263960D02*
X10375063Y-10521103D01*
X10803634Y-10273484D02*
X10822682Y-10273484D01*
X10822682Y-10273484D02*
X10841729Y-10283008D01*
X10841729Y-10283008D02*
X10851253Y-10292531D01*
X10851253Y-10292531D02*
X10860777Y-10311579D01*
X10860777Y-10311579D02*
X10870301Y-10349674D01*
X10870301Y-10349674D02*
X10870301Y-10397293D01*
X10870301Y-10397293D02*
X10860777Y-10435389D01*
X10860777Y-10435389D02*
X10851253Y-10454436D01*
X10851253Y-10454436D02*
X10841729Y-10463960D01*
X10841729Y-10463960D02*
X10822682Y-10473484D01*
X10822682Y-10473484D02*
X10803634Y-10473484D01*
X10803634Y-10473484D02*
X10784587Y-10463960D01*
X10784587Y-10463960D02*
X10775063Y-10454436D01*
X10775063Y-10454436D02*
X10765539Y-10435389D01*
X10765539Y-10435389D02*
X10756015Y-10397293D01*
X10756015Y-10397293D02*
X10756015Y-10349674D01*
X10756015Y-10349674D02*
X10765539Y-10311579D01*
X10765539Y-10311579D02*
X10775063Y-10292531D01*
X10775063Y-10292531D02*
X10784587Y-10283008D01*
X10784587Y-10283008D02*
X10803634Y-10273484D01*
X10956015Y-10454436D02*
X10965539Y-10463960D01*
X10965539Y-10463960D02*
X10956015Y-10473484D01*
X10956015Y-10473484D02*
X10946491Y-10463960D01*
X10946491Y-10463960D02*
X10956015Y-10454436D01*
X10956015Y-10454436D02*
X10956015Y-10473484D01*
X11089348Y-10273484D02*
X11108396Y-10273484D01*
X11108396Y-10273484D02*
X11127444Y-10283008D01*
X11127444Y-10283008D02*
X11136968Y-10292531D01*
X11136968Y-10292531D02*
X11146491Y-10311579D01*
X11146491Y-10311579D02*
X11156015Y-10349674D01*
X11156015Y-10349674D02*
X11156015Y-10397293D01*
X11156015Y-10397293D02*
X11146491Y-10435389D01*
X11146491Y-10435389D02*
X11136968Y-10454436D01*
X11136968Y-10454436D02*
X11127444Y-10463960D01*
X11127444Y-10463960D02*
X11108396Y-10473484D01*
X11108396Y-10473484D02*
X11089348Y-10473484D01*
X11089348Y-10473484D02*
X11070301Y-10463960D01*
X11070301Y-10463960D02*
X11060777Y-10454436D01*
X11060777Y-10454436D02*
X11051253Y-10435389D01*
X11051253Y-10435389D02*
X11041729Y-10397293D01*
X11041729Y-10397293D02*
X11041729Y-10349674D01*
X11041729Y-10349674D02*
X11051253Y-10311579D01*
X11051253Y-10311579D02*
X11060777Y-10292531D01*
X11060777Y-10292531D02*
X11070301Y-10283008D01*
X11070301Y-10283008D02*
X11089348Y-10273484D01*
X11346491Y-10473484D02*
X11232206Y-10473484D01*
X11289348Y-10473484D02*
X11289348Y-10273484D01*
X11289348Y-10273484D02*
X11270301Y-10302055D01*
X11270301Y-10302055D02*
X11251253Y-10321103D01*
X11251253Y-10321103D02*
X11232206Y-10330627D01*
X11536967Y-10473484D02*
X11422682Y-10473484D01*
X11479825Y-10473484D02*
X11479825Y-10273484D01*
X11479825Y-10273484D02*
X11460777Y-10302055D01*
X11460777Y-10302055D02*
X11441729Y-10321103D01*
X11441729Y-10321103D02*
X11422682Y-10330627D01*
X11651253Y-10359198D02*
X11632206Y-10349674D01*
X11632206Y-10349674D02*
X11622682Y-10340150D01*
X11622682Y-10340150D02*
X11613158Y-10321103D01*
X11613158Y-10321103D02*
X11613158Y-10311579D01*
X11613158Y-10311579D02*
X11622682Y-10292531D01*
X11622682Y-10292531D02*
X11632206Y-10283008D01*
X11632206Y-10283008D02*
X11651253Y-10273484D01*
X11651253Y-10273484D02*
X11689348Y-10273484D01*
X11689348Y-10273484D02*
X11708396Y-10283008D01*
X11708396Y-10283008D02*
X11717920Y-10292531D01*
X11717920Y-10292531D02*
X11727444Y-10311579D01*
X11727444Y-10311579D02*
X11727444Y-10321103D01*
X11727444Y-10321103D02*
X11717920Y-10340150D01*
X11717920Y-10340150D02*
X11708396Y-10349674D01*
X11708396Y-10349674D02*
X11689348Y-10359198D01*
X11689348Y-10359198D02*
X11651253Y-10359198D01*
X11651253Y-10359198D02*
X11632206Y-10368722D01*
X11632206Y-10368722D02*
X11622682Y-10378246D01*
X11622682Y-10378246D02*
X11613158Y-10397293D01*
X11613158Y-10397293D02*
X11613158Y-10435389D01*
X11613158Y-10435389D02*
X11622682Y-10454436D01*
X11622682Y-10454436D02*
X11632206Y-10463960D01*
X11632206Y-10463960D02*
X11651253Y-10473484D01*
X11651253Y-10473484D02*
X11689348Y-10473484D01*
X11689348Y-10473484D02*
X11708396Y-10463960D01*
X11708396Y-10463960D02*
X11717920Y-10454436D01*
X11717920Y-10454436D02*
X11727444Y-10435389D01*
X11727444Y-10435389D02*
X11727444Y-10397293D01*
X11727444Y-10397293D02*
X11717920Y-10378246D01*
X11717920Y-10378246D02*
X11708396Y-10368722D01*
X11708396Y-10368722D02*
X11689348Y-10359198D01*
X11803634Y-10273484D02*
X11803634Y-10311579D01*
X11879825Y-10273484D02*
X11879825Y-10311579D01*
X12175063Y-10549674D02*
X12165539Y-10540150D01*
X12165539Y-10540150D02*
X12146491Y-10511579D01*
X12146491Y-10511579D02*
X12136968Y-10492531D01*
X12136968Y-10492531D02*
X12127444Y-10463960D01*
X12127444Y-10463960D02*
X12117920Y-10416341D01*
X12117920Y-10416341D02*
X12117920Y-10378246D01*
X12117920Y-10378246D02*
X12127444Y-10330627D01*
X12127444Y-10330627D02*
X12136968Y-10302055D01*
X12136968Y-10302055D02*
X12146491Y-10283008D01*
X12146491Y-10283008D02*
X12165539Y-10254436D01*
X12165539Y-10254436D02*
X12175063Y-10244912D01*
X12241729Y-10292531D02*
X12251253Y-10283008D01*
X12251253Y-10283008D02*
X12270301Y-10273484D01*
X12270301Y-10273484D02*
X12317920Y-10273484D01*
X12317920Y-10273484D02*
X12336968Y-10283008D01*
X12336968Y-10283008D02*
X12346491Y-10292531D01*
X12346491Y-10292531D02*
X12356015Y-10311579D01*
X12356015Y-10311579D02*
X12356015Y-10330627D01*
X12356015Y-10330627D02*
X12346491Y-10359198D01*
X12346491Y-10359198D02*
X12232206Y-10473484D01*
X12232206Y-10473484D02*
X12356015Y-10473484D01*
X12470301Y-10359198D02*
X12451253Y-10349674D01*
X12451253Y-10349674D02*
X12441729Y-10340150D01*
X12441729Y-10340150D02*
X12432206Y-10321103D01*
X12432206Y-10321103D02*
X12432206Y-10311579D01*
X12432206Y-10311579D02*
X12441729Y-10292531D01*
X12441729Y-10292531D02*
X12451253Y-10283008D01*
X12451253Y-10283008D02*
X12470301Y-10273484D01*
X12470301Y-10273484D02*
X12508396Y-10273484D01*
X12508396Y-10273484D02*
X12527444Y-10283008D01*
X12527444Y-10283008D02*
X12536968Y-10292531D01*
X12536968Y-10292531D02*
X12546491Y-10311579D01*
X12546491Y-10311579D02*
X12546491Y-10321103D01*
X12546491Y-10321103D02*
X12536968Y-10340150D01*
X12536968Y-10340150D02*
X12527444Y-10349674D01*
X12527444Y-10349674D02*
X12508396Y-10359198D01*
X12508396Y-10359198D02*
X12470301Y-10359198D01*
X12470301Y-10359198D02*
X12451253Y-10368722D01*
X12451253Y-10368722D02*
X12441729Y-10378246D01*
X12441729Y-10378246D02*
X12432206Y-10397293D01*
X12432206Y-10397293D02*
X12432206Y-10435389D01*
X12432206Y-10435389D02*
X12441729Y-10454436D01*
X12441729Y-10454436D02*
X12451253Y-10463960D01*
X12451253Y-10463960D02*
X12470301Y-10473484D01*
X12470301Y-10473484D02*
X12508396Y-10473484D01*
X12508396Y-10473484D02*
X12527444Y-10463960D01*
X12527444Y-10463960D02*
X12536968Y-10454436D01*
X12536968Y-10454436D02*
X12546491Y-10435389D01*
X12546491Y-10435389D02*
X12546491Y-10397293D01*
X12546491Y-10397293D02*
X12536968Y-10378246D01*
X12536968Y-10378246D02*
X12527444Y-10368722D01*
X12527444Y-10368722D02*
X12508396Y-10359198D01*
X12784587Y-10473484D02*
X12784587Y-10273484D01*
X12870301Y-10473484D02*
X12870301Y-10368722D01*
X12870301Y-10368722D02*
X12860777Y-10349674D01*
X12860777Y-10349674D02*
X12841730Y-10340150D01*
X12841730Y-10340150D02*
X12813158Y-10340150D01*
X12813158Y-10340150D02*
X12794110Y-10349674D01*
X12794110Y-10349674D02*
X12784587Y-10359198D01*
X12994110Y-10473484D02*
X12975063Y-10463960D01*
X12975063Y-10463960D02*
X12965539Y-10454436D01*
X12965539Y-10454436D02*
X12956015Y-10435389D01*
X12956015Y-10435389D02*
X12956015Y-10378246D01*
X12956015Y-10378246D02*
X12965539Y-10359198D01*
X12965539Y-10359198D02*
X12975063Y-10349674D01*
X12975063Y-10349674D02*
X12994110Y-10340150D01*
X12994110Y-10340150D02*
X13022682Y-10340150D01*
X13022682Y-10340150D02*
X13041730Y-10349674D01*
X13041730Y-10349674D02*
X13051253Y-10359198D01*
X13051253Y-10359198D02*
X13060777Y-10378246D01*
X13060777Y-10378246D02*
X13060777Y-10435389D01*
X13060777Y-10435389D02*
X13051253Y-10454436D01*
X13051253Y-10454436D02*
X13041730Y-10463960D01*
X13041730Y-10463960D02*
X13022682Y-10473484D01*
X13022682Y-10473484D02*
X12994110Y-10473484D01*
X13175063Y-10473484D02*
X13156015Y-10463960D01*
X13156015Y-10463960D02*
X13146491Y-10444912D01*
X13146491Y-10444912D02*
X13146491Y-10273484D01*
X13327444Y-10463960D02*
X13308396Y-10473484D01*
X13308396Y-10473484D02*
X13270301Y-10473484D01*
X13270301Y-10473484D02*
X13251253Y-10463960D01*
X13251253Y-10463960D02*
X13241730Y-10444912D01*
X13241730Y-10444912D02*
X13241730Y-10368722D01*
X13241730Y-10368722D02*
X13251253Y-10349674D01*
X13251253Y-10349674D02*
X13270301Y-10340150D01*
X13270301Y-10340150D02*
X13308396Y-10340150D01*
X13308396Y-10340150D02*
X13327444Y-10349674D01*
X13327444Y-10349674D02*
X13336968Y-10368722D01*
X13336968Y-10368722D02*
X13336968Y-10387770D01*
X13336968Y-10387770D02*
X13241730Y-10406817D01*
X13413158Y-10463960D02*
X13432206Y-10473484D01*
X13432206Y-10473484D02*
X13470301Y-10473484D01*
X13470301Y-10473484D02*
X13489349Y-10463960D01*
X13489349Y-10463960D02*
X13498872Y-10444912D01*
X13498872Y-10444912D02*
X13498872Y-10435389D01*
X13498872Y-10435389D02*
X13489349Y-10416341D01*
X13489349Y-10416341D02*
X13470301Y-10406817D01*
X13470301Y-10406817D02*
X13441730Y-10406817D01*
X13441730Y-10406817D02*
X13422682Y-10397293D01*
X13422682Y-10397293D02*
X13413158Y-10378246D01*
X13413158Y-10378246D02*
X13413158Y-10368722D01*
X13413158Y-10368722D02*
X13422682Y-10349674D01*
X13422682Y-10349674D02*
X13441730Y-10340150D01*
X13441730Y-10340150D02*
X13470301Y-10340150D01*
X13470301Y-10340150D02*
X13489349Y-10349674D01*
X13565539Y-10549674D02*
X13575063Y-10540150D01*
X13575063Y-10540150D02*
X13594111Y-10511579D01*
X13594111Y-10511579D02*
X13603634Y-10492531D01*
X13603634Y-10492531D02*
X13613158Y-10463960D01*
X13613158Y-10463960D02*
X13622682Y-10416341D01*
X13622682Y-10416341D02*
X13622682Y-10378246D01*
X13622682Y-10378246D02*
X13613158Y-10330627D01*
X13613158Y-10330627D02*
X13603634Y-10302055D01*
X13603634Y-10302055D02*
X13594111Y-10283008D01*
X13594111Y-10283008D02*
X13575063Y-10254436D01*
X13575063Y-10254436D02*
X13565539Y-10244912D01*
D13*
X8600000Y-10646000D02*
G75*
G02*
X8480000Y-10646000I-60000J0D01*
G01*
X8480000Y-10646000D02*
G75*
G02*
X8600000Y-10646000I60000J0D01*
G01*
D11*
X8965539Y-10737484D02*
X8851253Y-10737484D01*
X8908396Y-10737484D02*
X8908396Y-10537484D01*
X8908396Y-10537484D02*
X8889348Y-10566055D01*
X8889348Y-10566055D02*
X8870301Y-10585103D01*
X8870301Y-10585103D02*
X8851253Y-10594627D01*
X9051253Y-10718436D02*
X9060777Y-10727960D01*
X9060777Y-10727960D02*
X9051253Y-10737484D01*
X9051253Y-10737484D02*
X9041729Y-10727960D01*
X9041729Y-10727960D02*
X9051253Y-10718436D01*
X9051253Y-10718436D02*
X9051253Y-10737484D01*
X9136967Y-10556531D02*
X9146491Y-10547008D01*
X9146491Y-10547008D02*
X9165539Y-10537484D01*
X9165539Y-10537484D02*
X9213158Y-10537484D01*
X9213158Y-10537484D02*
X9232205Y-10547008D01*
X9232205Y-10547008D02*
X9241729Y-10556531D01*
X9241729Y-10556531D02*
X9251253Y-10575579D01*
X9251253Y-10575579D02*
X9251253Y-10594627D01*
X9251253Y-10594627D02*
X9241729Y-10623198D01*
X9241729Y-10623198D02*
X9127444Y-10737484D01*
X9127444Y-10737484D02*
X9251253Y-10737484D01*
X9375063Y-10537484D02*
X9394110Y-10537484D01*
X9394110Y-10537484D02*
X9413158Y-10547008D01*
X9413158Y-10547008D02*
X9422682Y-10556531D01*
X9422682Y-10556531D02*
X9432205Y-10575579D01*
X9432205Y-10575579D02*
X9441729Y-10613674D01*
X9441729Y-10613674D02*
X9441729Y-10661293D01*
X9441729Y-10661293D02*
X9432205Y-10699389D01*
X9432205Y-10699389D02*
X9422682Y-10718436D01*
X9422682Y-10718436D02*
X9413158Y-10727960D01*
X9413158Y-10727960D02*
X9394110Y-10737484D01*
X9394110Y-10737484D02*
X9375063Y-10737484D01*
X9375063Y-10737484D02*
X9356015Y-10727960D01*
X9356015Y-10727960D02*
X9346491Y-10718436D01*
X9346491Y-10718436D02*
X9336967Y-10699389D01*
X9336967Y-10699389D02*
X9327444Y-10661293D01*
X9327444Y-10661293D02*
X9327444Y-10613674D01*
X9327444Y-10613674D02*
X9336967Y-10575579D01*
X9336967Y-10575579D02*
X9346491Y-10556531D01*
X9346491Y-10556531D02*
X9356015Y-10547008D01*
X9356015Y-10547008D02*
X9375063Y-10537484D01*
X9565539Y-10537484D02*
X9584586Y-10537484D01*
X9584586Y-10537484D02*
X9603634Y-10547008D01*
X9603634Y-10547008D02*
X9613158Y-10556531D01*
X9613158Y-10556531D02*
X9622682Y-10575579D01*
X9622682Y-10575579D02*
X9632205Y-10613674D01*
X9632205Y-10613674D02*
X9632205Y-10661293D01*
X9632205Y-10661293D02*
X9622682Y-10699389D01*
X9622682Y-10699389D02*
X9613158Y-10718436D01*
X9613158Y-10718436D02*
X9603634Y-10727960D01*
X9603634Y-10727960D02*
X9584586Y-10737484D01*
X9584586Y-10737484D02*
X9565539Y-10737484D01*
X9565539Y-10737484D02*
X9546491Y-10727960D01*
X9546491Y-10727960D02*
X9536967Y-10718436D01*
X9536967Y-10718436D02*
X9527444Y-10699389D01*
X9527444Y-10699389D02*
X9517920Y-10661293D01*
X9517920Y-10661293D02*
X9517920Y-10613674D01*
X9517920Y-10613674D02*
X9527444Y-10575579D01*
X9527444Y-10575579D02*
X9536967Y-10556531D01*
X9536967Y-10556531D02*
X9546491Y-10547008D01*
X9546491Y-10547008D02*
X9565539Y-10537484D01*
X9717920Y-10737484D02*
X9717920Y-10604150D01*
X9717920Y-10623198D02*
X9727444Y-10613674D01*
X9727444Y-10613674D02*
X9746491Y-10604150D01*
X9746491Y-10604150D02*
X9775063Y-10604150D01*
X9775063Y-10604150D02*
X9794110Y-10613674D01*
X9794110Y-10613674D02*
X9803634Y-10632722D01*
X9803634Y-10632722D02*
X9803634Y-10737484D01*
X9803634Y-10632722D02*
X9813158Y-10613674D01*
X9813158Y-10613674D02*
X9832205Y-10604150D01*
X9832205Y-10604150D02*
X9860777Y-10604150D01*
X9860777Y-10604150D02*
X9879825Y-10613674D01*
X9879825Y-10613674D02*
X9889348Y-10632722D01*
X9889348Y-10632722D02*
X9889348Y-10737484D01*
X9984586Y-10737484D02*
X9984586Y-10604150D01*
X9984586Y-10623198D02*
X9994110Y-10613674D01*
X9994110Y-10613674D02*
X10013158Y-10604150D01*
X10013158Y-10604150D02*
X10041729Y-10604150D01*
X10041729Y-10604150D02*
X10060777Y-10613674D01*
X10060777Y-10613674D02*
X10070301Y-10632722D01*
X10070301Y-10632722D02*
X10070301Y-10737484D01*
X10070301Y-10632722D02*
X10079825Y-10613674D01*
X10079825Y-10613674D02*
X10098872Y-10604150D01*
X10098872Y-10604150D02*
X10127444Y-10604150D01*
X10127444Y-10604150D02*
X10146491Y-10613674D01*
X10146491Y-10613674D02*
X10156015Y-10632722D01*
X10156015Y-10632722D02*
X10156015Y-10737484D01*
X10546491Y-10527960D02*
X10375063Y-10785103D01*
X10803634Y-10537484D02*
X10822682Y-10537484D01*
X10822682Y-10537484D02*
X10841729Y-10547008D01*
X10841729Y-10547008D02*
X10851253Y-10556531D01*
X10851253Y-10556531D02*
X10860777Y-10575579D01*
X10860777Y-10575579D02*
X10870301Y-10613674D01*
X10870301Y-10613674D02*
X10870301Y-10661293D01*
X10870301Y-10661293D02*
X10860777Y-10699389D01*
X10860777Y-10699389D02*
X10851253Y-10718436D01*
X10851253Y-10718436D02*
X10841729Y-10727960D01*
X10841729Y-10727960D02*
X10822682Y-10737484D01*
X10822682Y-10737484D02*
X10803634Y-10737484D01*
X10803634Y-10737484D02*
X10784587Y-10727960D01*
X10784587Y-10727960D02*
X10775063Y-10718436D01*
X10775063Y-10718436D02*
X10765539Y-10699389D01*
X10765539Y-10699389D02*
X10756015Y-10661293D01*
X10756015Y-10661293D02*
X10756015Y-10613674D01*
X10756015Y-10613674D02*
X10765539Y-10575579D01*
X10765539Y-10575579D02*
X10775063Y-10556531D01*
X10775063Y-10556531D02*
X10784587Y-10547008D01*
X10784587Y-10547008D02*
X10803634Y-10537484D01*
X10956015Y-10718436D02*
X10965539Y-10727960D01*
X10965539Y-10727960D02*
X10956015Y-10737484D01*
X10956015Y-10737484D02*
X10946491Y-10727960D01*
X10946491Y-10727960D02*
X10956015Y-10718436D01*
X10956015Y-10718436D02*
X10956015Y-10737484D01*
X11089348Y-10537484D02*
X11108396Y-10537484D01*
X11108396Y-10537484D02*
X11127444Y-10547008D01*
X11127444Y-10547008D02*
X11136968Y-10556531D01*
X11136968Y-10556531D02*
X11146491Y-10575579D01*
X11146491Y-10575579D02*
X11156015Y-10613674D01*
X11156015Y-10613674D02*
X11156015Y-10661293D01*
X11156015Y-10661293D02*
X11146491Y-10699389D01*
X11146491Y-10699389D02*
X11136968Y-10718436D01*
X11136968Y-10718436D02*
X11127444Y-10727960D01*
X11127444Y-10727960D02*
X11108396Y-10737484D01*
X11108396Y-10737484D02*
X11089348Y-10737484D01*
X11089348Y-10737484D02*
X11070301Y-10727960D01*
X11070301Y-10727960D02*
X11060777Y-10718436D01*
X11060777Y-10718436D02*
X11051253Y-10699389D01*
X11051253Y-10699389D02*
X11041729Y-10661293D01*
X11041729Y-10661293D02*
X11041729Y-10613674D01*
X11041729Y-10613674D02*
X11051253Y-10575579D01*
X11051253Y-10575579D02*
X11060777Y-10556531D01*
X11060777Y-10556531D02*
X11070301Y-10547008D01*
X11070301Y-10547008D02*
X11089348Y-10537484D01*
X11327444Y-10604150D02*
X11327444Y-10737484D01*
X11279825Y-10527960D02*
X11232206Y-10670817D01*
X11232206Y-10670817D02*
X11356015Y-10670817D01*
X11413158Y-10537484D02*
X11546491Y-10537484D01*
X11546491Y-10537484D02*
X11460777Y-10737484D01*
X11613158Y-10556531D02*
X11622682Y-10547008D01*
X11622682Y-10547008D02*
X11641729Y-10537484D01*
X11641729Y-10537484D02*
X11689348Y-10537484D01*
X11689348Y-10537484D02*
X11708396Y-10547008D01*
X11708396Y-10547008D02*
X11717920Y-10556531D01*
X11717920Y-10556531D02*
X11727444Y-10575579D01*
X11727444Y-10575579D02*
X11727444Y-10594627D01*
X11727444Y-10594627D02*
X11717920Y-10623198D01*
X11717920Y-10623198D02*
X11603634Y-10737484D01*
X11603634Y-10737484D02*
X11727444Y-10737484D01*
X11803634Y-10537484D02*
X11803634Y-10575579D01*
X11879825Y-10537484D02*
X11879825Y-10575579D01*
X12175063Y-10813674D02*
X12165539Y-10804150D01*
X12165539Y-10804150D02*
X12146491Y-10775579D01*
X12146491Y-10775579D02*
X12136968Y-10756531D01*
X12136968Y-10756531D02*
X12127444Y-10727960D01*
X12127444Y-10727960D02*
X12117920Y-10680341D01*
X12117920Y-10680341D02*
X12117920Y-10642246D01*
X12117920Y-10642246D02*
X12127444Y-10594627D01*
X12127444Y-10594627D02*
X12136968Y-10566055D01*
X12136968Y-10566055D02*
X12146491Y-10547008D01*
X12146491Y-10547008D02*
X12165539Y-10518436D01*
X12165539Y-10518436D02*
X12175063Y-10508912D01*
X12356015Y-10737484D02*
X12241729Y-10737484D01*
X12298872Y-10737484D02*
X12298872Y-10537484D01*
X12298872Y-10537484D02*
X12279825Y-10566055D01*
X12279825Y-10566055D02*
X12260777Y-10585103D01*
X12260777Y-10585103D02*
X12241729Y-10594627D01*
X12470301Y-10623198D02*
X12451253Y-10613674D01*
X12451253Y-10613674D02*
X12441729Y-10604150D01*
X12441729Y-10604150D02*
X12432206Y-10585103D01*
X12432206Y-10585103D02*
X12432206Y-10575579D01*
X12432206Y-10575579D02*
X12441729Y-10556531D01*
X12441729Y-10556531D02*
X12451253Y-10547008D01*
X12451253Y-10547008D02*
X12470301Y-10537484D01*
X12470301Y-10537484D02*
X12508396Y-10537484D01*
X12508396Y-10537484D02*
X12527444Y-10547008D01*
X12527444Y-10547008D02*
X12536968Y-10556531D01*
X12536968Y-10556531D02*
X12546491Y-10575579D01*
X12546491Y-10575579D02*
X12546491Y-10585103D01*
X12546491Y-10585103D02*
X12536968Y-10604150D01*
X12536968Y-10604150D02*
X12527444Y-10613674D01*
X12527444Y-10613674D02*
X12508396Y-10623198D01*
X12508396Y-10623198D02*
X12470301Y-10623198D01*
X12470301Y-10623198D02*
X12451253Y-10632722D01*
X12451253Y-10632722D02*
X12441729Y-10642246D01*
X12441729Y-10642246D02*
X12432206Y-10661293D01*
X12432206Y-10661293D02*
X12432206Y-10699389D01*
X12432206Y-10699389D02*
X12441729Y-10718436D01*
X12441729Y-10718436D02*
X12451253Y-10727960D01*
X12451253Y-10727960D02*
X12470301Y-10737484D01*
X12470301Y-10737484D02*
X12508396Y-10737484D01*
X12508396Y-10737484D02*
X12527444Y-10727960D01*
X12527444Y-10727960D02*
X12536968Y-10718436D01*
X12536968Y-10718436D02*
X12546491Y-10699389D01*
X12546491Y-10699389D02*
X12546491Y-10661293D01*
X12546491Y-10661293D02*
X12536968Y-10642246D01*
X12536968Y-10642246D02*
X12527444Y-10632722D01*
X12527444Y-10632722D02*
X12508396Y-10623198D01*
X12784587Y-10737484D02*
X12784587Y-10537484D01*
X12870301Y-10737484D02*
X12870301Y-10632722D01*
X12870301Y-10632722D02*
X12860777Y-10613674D01*
X12860777Y-10613674D02*
X12841730Y-10604150D01*
X12841730Y-10604150D02*
X12813158Y-10604150D01*
X12813158Y-10604150D02*
X12794110Y-10613674D01*
X12794110Y-10613674D02*
X12784587Y-10623198D01*
X12994110Y-10737484D02*
X12975063Y-10727960D01*
X12975063Y-10727960D02*
X12965539Y-10718436D01*
X12965539Y-10718436D02*
X12956015Y-10699389D01*
X12956015Y-10699389D02*
X12956015Y-10642246D01*
X12956015Y-10642246D02*
X12965539Y-10623198D01*
X12965539Y-10623198D02*
X12975063Y-10613674D01*
X12975063Y-10613674D02*
X12994110Y-10604150D01*
X12994110Y-10604150D02*
X13022682Y-10604150D01*
X13022682Y-10604150D02*
X13041730Y-10613674D01*
X13041730Y-10613674D02*
X13051253Y-10623198D01*
X13051253Y-10623198D02*
X13060777Y-10642246D01*
X13060777Y-10642246D02*
X13060777Y-10699389D01*
X13060777Y-10699389D02*
X13051253Y-10718436D01*
X13051253Y-10718436D02*
X13041730Y-10727960D01*
X13041730Y-10727960D02*
X13022682Y-10737484D01*
X13022682Y-10737484D02*
X12994110Y-10737484D01*
X13175063Y-10737484D02*
X13156015Y-10727960D01*
X13156015Y-10727960D02*
X13146491Y-10708912D01*
X13146491Y-10708912D02*
X13146491Y-10537484D01*
X13327444Y-10727960D02*
X13308396Y-10737484D01*
X13308396Y-10737484D02*
X13270301Y-10737484D01*
X13270301Y-10737484D02*
X13251253Y-10727960D01*
X13251253Y-10727960D02*
X13241730Y-10708912D01*
X13241730Y-10708912D02*
X13241730Y-10632722D01*
X13241730Y-10632722D02*
X13251253Y-10613674D01*
X13251253Y-10613674D02*
X13270301Y-10604150D01*
X13270301Y-10604150D02*
X13308396Y-10604150D01*
X13308396Y-10604150D02*
X13327444Y-10613674D01*
X13327444Y-10613674D02*
X13336968Y-10632722D01*
X13336968Y-10632722D02*
X13336968Y-10651770D01*
X13336968Y-10651770D02*
X13241730Y-10670817D01*
X13413158Y-10727960D02*
X13432206Y-10737484D01*
X13432206Y-10737484D02*
X13470301Y-10737484D01*
X13470301Y-10737484D02*
X13489349Y-10727960D01*
X13489349Y-10727960D02*
X13498872Y-10708912D01*
X13498872Y-10708912D02*
X13498872Y-10699389D01*
X13498872Y-10699389D02*
X13489349Y-10680341D01*
X13489349Y-10680341D02*
X13470301Y-10670817D01*
X13470301Y-10670817D02*
X13441730Y-10670817D01*
X13441730Y-10670817D02*
X13422682Y-10661293D01*
X13422682Y-10661293D02*
X13413158Y-10642246D01*
X13413158Y-10642246D02*
X13413158Y-10632722D01*
X13413158Y-10632722D02*
X13422682Y-10613674D01*
X13422682Y-10613674D02*
X13441730Y-10604150D01*
X13441730Y-10604150D02*
X13470301Y-10604150D01*
X13470301Y-10604150D02*
X13489349Y-10613674D01*
X13565539Y-10813674D02*
X13575063Y-10804150D01*
X13575063Y-10804150D02*
X13594111Y-10775579D01*
X13594111Y-10775579D02*
X13603634Y-10756531D01*
X13603634Y-10756531D02*
X13613158Y-10727960D01*
X13613158Y-10727960D02*
X13622682Y-10680341D01*
X13622682Y-10680341D02*
X13622682Y-10642246D01*
X13622682Y-10642246D02*
X13613158Y-10594627D01*
X13613158Y-10594627D02*
X13603634Y-10566055D01*
X13603634Y-10566055D02*
X13594111Y-10547008D01*
X13594111Y-10547008D02*
X13575063Y-10518436D01*
X13575063Y-10518436D02*
X13565539Y-10508912D01*
M02*
