%TF.GenerationSoftware,KiCad,Pcbnew,8.0.4*%
%TF.CreationDate,2024-09-13T11:56:00+01:00*%
%TF.ProjectId,MkI,4d6b492e-6b69-4636-9164-5f7063625858,rev?*%
%TF.SameCoordinates,Original*%
%TF.FileFunction,Copper,L1,Top*%
%TF.FilePolarity,Positive*%
%FSLAX46Y46*%
G04 Gerber Fmt 4.6, Leading zero omitted, Abs format (unit mm)*
G04 Created by KiCad (PCBNEW 8.0.4) date 2024-09-13 11:56:00*
%MOMM*%
%LPD*%
G01*
G04 APERTURE LIST*
G04 Aperture macros list*
%AMRoundRect*
0 Rectangle with rounded corners*
0 $1 Rounding radius*
0 $2 $3 $4 $5 $6 $7 $8 $9 X,Y pos of 4 corners*
0 Add a 4 corners polygon primitive as box body*
4,1,4,$2,$3,$4,$5,$6,$7,$8,$9,$2,$3,0*
0 Add four circle primitives for the rounded corners*
1,1,$1+$1,$2,$3*
1,1,$1+$1,$4,$5*
1,1,$1+$1,$6,$7*
1,1,$1+$1,$8,$9*
0 Add four rect primitives between the rounded corners*
20,1,$1+$1,$2,$3,$4,$5,0*
20,1,$1+$1,$4,$5,$6,$7,0*
20,1,$1+$1,$6,$7,$8,$9,0*
20,1,$1+$1,$8,$9,$2,$3,0*%
G04 Aperture macros list end*
%TA.AperFunction,SMDPad,CuDef*%
%ADD10RoundRect,0.100000X-0.100000X0.637500X-0.100000X-0.637500X0.100000X-0.637500X0.100000X0.637500X0*%
%TD*%
%TA.AperFunction,SMDPad,CuDef*%
%ADD11R,0.500000X0.800000*%
%TD*%
%TA.AperFunction,SMDPad,CuDef*%
%ADD12R,0.400000X0.800000*%
%TD*%
%TA.AperFunction,ComponentPad*%
%ADD13C,2.000000*%
%TD*%
%TA.AperFunction,ViaPad*%
%ADD14C,0.600000*%
%TD*%
%TA.AperFunction,Conductor*%
%ADD15C,0.300000*%
%TD*%
%TA.AperFunction,Conductor*%
%ADD16C,0.400000*%
%TD*%
G04 APERTURE END LIST*
D10*
%TO.P,U1,20,PD3*%
%TO.N,/GPIO_PD3*%
X101350000Y-89857500D03*
%TO.P,U1,19,PD2*%
%TO.N,/GPIO_PD2*%
X100700000Y-89857500D03*
%TO.P,U1,18,PD1*%
%TO.N,/GPIO_PD1*%
X100050000Y-89857500D03*
%TO.P,U1,17,PC7*%
%TO.N,/GPIO_PC7*%
X99400000Y-89857500D03*
%TO.P,U1,16,PC6*%
%TO.N,/GPIO_PC6*%
X98750000Y-89857500D03*
%TO.P,U1,15,PC5*%
%TO.N,/GPIO_PC5*%
X98100000Y-89857500D03*
%TO.P,U1,14,PC4*%
%TO.N,/GPIO_PC4*%
X97450000Y-89857500D03*
%TO.P,U1,13,PC3*%
%TO.N,/GPIO_PC3*%
X96800000Y-89857500D03*
%TO.P,U1,12,PC2*%
%TO.N,/GPIO_PC2*%
X96150000Y-89857500D03*
%TO.P,U1,11,PC1*%
%TO.N,/GPIO_PC1*%
X95500000Y-89857500D03*
%TO.P,U1,10,PC0*%
%TO.N,/GPIO_PC0*%
X95500000Y-84132500D03*
%TO.P,U1,9,VDD*%
%TO.N,VCC*%
X96150000Y-84132500D03*
%TO.P,U1,8,PD0*%
%TO.N,/GPIO_PD0*%
X96800000Y-84132500D03*
%TO.P,U1,7,VSS*%
%TO.N,GND*%
X97450000Y-84132500D03*
%TO.P,U1,6,PA2*%
%TO.N,/GPIO_PA2*%
X98100000Y-84132500D03*
%TO.P,U1,5,PA1*%
%TO.N,/GPIO_PA1*%
X98750000Y-84132500D03*
%TO.P,U1,4,PD7*%
%TO.N,/GPIO_PD7*%
X99400000Y-84132500D03*
%TO.P,U1,3,PD6*%
%TO.N,/GPIO_PD6*%
X100050000Y-84132500D03*
%TO.P,U1,2,PD5*%
%TO.N,/GPIO_PD5*%
X100700000Y-84132500D03*
%TO.P,U1,1,PD4*%
%TO.N,/GPIO_PD4*%
X101350000Y-84132500D03*
%TD*%
D11*
%TO.P,RN2,8,R1.2*%
%TO.N,/GPIO_PD3*%
X106185000Y-90275000D03*
D12*
%TO.P,RN2,7,R2.2*%
%TO.N,/GPIO_PD2*%
X106985000Y-90275000D03*
%TO.P,RN2,6,R3.2*%
%TO.N,/GPIO_PD1*%
X107785000Y-90275000D03*
D11*
%TO.P,RN2,5,R4.2*%
%TO.N,/GPIO_PC7*%
X108585000Y-90275000D03*
%TO.P,RN2,4,R4.1*%
%TO.N,/SEG_C*%
X108585000Y-92075000D03*
D12*
%TO.P,RN2,3,R3.1*%
%TO.N,/SEG_DP*%
X107785000Y-92075000D03*
%TO.P,RN2,2,R2.1*%
%TO.N,/SEG_D*%
X106985000Y-92075000D03*
D11*
%TO.P,RN2,1,R1.1*%
%TO.N,/SEG_G2*%
X106185000Y-92075000D03*
%TD*%
D13*
%TO.P,DISP1,18,F*%
%TO.N,/SEG_F*%
X88265000Y-79375000D03*
%TO.P,DISP1,17,H*%
%TO.N,/SEG_H*%
X90805000Y-79375000D03*
%TO.P,DISP1,16,DIGIT_1*%
%TO.N,/DIGIT_1*%
X93345000Y-79375000D03*
%TO.P,DISP1,15,I*%
%TO.N,/SEG_I*%
X95885000Y-79375000D03*
%TO.P,DISP1,14,J*%
%TO.N,/SEG_J*%
X98425000Y-79375000D03*
%TO.P,DISP1,13,G1*%
%TO.N,/SEG_G1*%
X100965000Y-79375000D03*
%TO.P,DISP1,12,A*%
%TO.N,/SEG_A*%
X103505000Y-79375000D03*
%TO.P,DISP1,11,DIGIT_2*%
%TO.N,/DIGIT_2*%
X106045000Y-79375000D03*
%TO.P,DISP1,10,B*%
%TO.N,/SEG_B*%
X108585000Y-79375000D03*
%TO.P,DISP1,9,C*%
%TO.N,/SEG_C*%
X108585000Y-94615000D03*
%TO.P,DISP1,8,DP*%
%TO.N,/SEG_DP*%
X106045000Y-94615000D03*
%TO.P,DISP1,7,D*%
%TO.N,/SEG_D*%
X103505000Y-94615000D03*
%TO.P,DISP1,6,G2*%
%TO.N,/SEG_G2*%
X100965000Y-94615000D03*
%TO.P,DISP1,5,K*%
%TO.N,/SEG_K*%
X98425000Y-94615000D03*
%TO.P,DISP1,4,L*%
%TO.N,/SEG_L*%
X95885000Y-94615000D03*
%TO.P,DISP1,3,NC*%
%TO.N,unconnected-(DISP1-NC-Pad3)*%
X93345000Y-94615000D03*
%TO.P,DISP1,2,M*%
%TO.N,/SEG_M*%
X90805000Y-94615000D03*
%TO.P,DISP1,1,E*%
%TO.N,/SEG_E*%
X88265000Y-94615000D03*
%TD*%
D11*
%TO.P,RN1,8,R1.2*%
%TO.N,/GPIO_PC4*%
X88265000Y-90275000D03*
D12*
%TO.P,RN1,7,R2.2*%
%TO.N,/GPIO_PC3*%
X89065000Y-90275000D03*
%TO.P,RN1,6,R3.2*%
%TO.N,/GPIO_PC2*%
X89865000Y-90275000D03*
D11*
%TO.P,RN1,5,R4.2*%
%TO.N,/GPIO_PC1*%
X90665000Y-90275000D03*
%TO.P,RN1,4,R4.1*%
%TO.N,/SEG_K*%
X90665000Y-92075000D03*
D12*
%TO.P,RN1,3,R3.1*%
%TO.N,/SEG_L*%
X89865000Y-92075000D03*
%TO.P,RN1,2,R2.1*%
%TO.N,/SEG_M*%
X89065000Y-92075000D03*
D11*
%TO.P,RN1,1,R1.1*%
%TO.N,/SEG_E*%
X88265000Y-92075000D03*
%TD*%
%TO.P,RN4,8,R1.2*%
%TO.N,/SEG_G1*%
X106185000Y-81915000D03*
D12*
%TO.P,RN4,7,R2.2*%
%TO.N,/SEG_A*%
X106985000Y-81915000D03*
%TO.P,RN4,6,R3.2*%
%TO.N,/SEG_B*%
X107785000Y-81915000D03*
D11*
%TO.P,RN4,5,R4.2*%
%TO.N,unconnected-(RN4-R4.2-Pad5)*%
X108585000Y-81915000D03*
%TO.P,RN4,4,R4.1*%
%TO.N,unconnected-(RN4-R4.1-Pad4)*%
X108585000Y-83715000D03*
D12*
%TO.P,RN4,3,R3.1*%
%TO.N,/GPIO_PC6*%
X107785000Y-83715000D03*
%TO.P,RN4,2,R2.1*%
%TO.N,/GPIO_PC5*%
X106985000Y-83715000D03*
D11*
%TO.P,RN4,1,R1.1*%
%TO.N,/GPIO_PD4*%
X106185000Y-83715000D03*
%TD*%
%TO.P,RN3,8,R1.2*%
%TO.N,/SEG_F*%
X88265000Y-81915000D03*
D12*
%TO.P,RN3,7,R2.2*%
%TO.N,/SEG_H*%
X89065000Y-81915000D03*
%TO.P,RN3,6,R3.2*%
%TO.N,/SEG_I*%
X89865000Y-81915000D03*
D11*
%TO.P,RN3,5,R4.2*%
%TO.N,/SEG_J*%
X90665000Y-81915000D03*
%TO.P,RN3,4,R4.1*%
%TO.N,/GPIO_PC0*%
X90665000Y-83715000D03*
D12*
%TO.P,RN3,3,R3.1*%
%TO.N,/GPIO_PD0*%
X89865000Y-83715000D03*
%TO.P,RN3,2,R2.1*%
%TO.N,/GPIO_PA2*%
X89065000Y-83715000D03*
D11*
%TO.P,RN3,1,R1.1*%
%TO.N,/GPIO_PA1*%
X88265000Y-83715000D03*
%TD*%
D14*
%TO.N,GND*%
X99695000Y-93345000D03*
X87245464Y-91180000D03*
X109595464Y-91180000D03*
X98445464Y-91180000D03*
X107295464Y-86280000D03*
X107295464Y-87680000D03*
X105195464Y-91180000D03*
X91645464Y-91180000D03*
X107395464Y-91180000D03*
X89445464Y-91180000D03*
X107365000Y-95965000D03*
X102825000Y-82807500D03*
X90250000Y-82820000D03*
X104725000Y-83795000D03*
X94665000Y-95965000D03*
X106600000Y-82820000D03*
X89585000Y-95965000D03*
X99745000Y-80725000D03*
X91625000Y-83745000D03*
X92625000Y-83745000D03*
X94025000Y-82807500D03*
X97475000Y-82795000D03*
X102285000Y-95965000D03*
%TO.N,VCC*%
X96150000Y-83095001D03*
%TO.N,/GPIO_PD7*%
X100125000Y-82095000D03*
%TO.N,/GPIO_PD1*%
X100050000Y-90995000D03*
%TO.N,/GPIO_PD5*%
X97775000Y-88245000D03*
%TO.N,/GPIO_PD6*%
X89525000Y-86995000D03*
%TD*%
D15*
%TO.N,/SEG_DP*%
X107492107Y-93167893D02*
X106045000Y-94615000D01*
X107785000Y-92075000D02*
X107785000Y-92460786D01*
X107785000Y-92460786D02*
G75*
G02*
X107492114Y-93167900I-1000000J-14D01*
G01*
%TO.N,/SEG_D*%
X104569486Y-93520514D02*
X103490000Y-94600000D01*
X106985000Y-92075000D02*
X106985000Y-92277893D01*
X106838553Y-92631447D02*
X106832893Y-92637107D01*
X106125786Y-92930000D02*
X105995112Y-92930000D01*
X106985000Y-92277893D02*
G75*
G02*
X106838556Y-92631450I-500000J-7D01*
G01*
X106125786Y-92930000D02*
G75*
G03*
X106832900Y-92637114I14J1000000D01*
G01*
X105995112Y-92930000D02*
G75*
G03*
X104569488Y-93520516I-12J-2016100D01*
G01*
%TO.N,/SEG_H*%
X89065000Y-81915000D02*
X89065000Y-81536486D01*
X89363035Y-80816965D02*
X90805000Y-79375000D01*
X89363035Y-80816965D02*
G75*
G03*
X89065003Y-81536486I719565J-719535D01*
G01*
%TO.N,/SEG_G1*%
X106185000Y-81915000D02*
X106185000Y-81695000D01*
X106185000Y-81695000D02*
X106165000Y-81675000D01*
X106165000Y-81675000D02*
X103916172Y-81675000D01*
X102804552Y-81214552D02*
X100965000Y-79375000D01*
X103916172Y-81675000D02*
G75*
G02*
X102804559Y-81214545I28J1572100D01*
G01*
%TO.N,/SEG_F*%
X88265000Y-81915000D02*
X88265000Y-79375000D01*
%TO.N,/SEG_B*%
X108390467Y-79569533D02*
X108585000Y-79375000D01*
X107785000Y-81915000D02*
X107785000Y-81031260D01*
X107785000Y-81031260D02*
G75*
G02*
X108390486Y-79569552I2067200J-40D01*
G01*
%TO.N,/SEG_I*%
X90422107Y-81060000D02*
X93374492Y-81060000D01*
X89865000Y-81915000D02*
X89865000Y-81617107D01*
X90011447Y-81263553D02*
X90068554Y-81206446D01*
X94783722Y-80476278D02*
X95885000Y-79375000D01*
X90011447Y-81263553D02*
G75*
G03*
X89865005Y-81617107I353553J-353547D01*
G01*
X94783722Y-80476278D02*
G75*
G02*
X93374492Y-81060010I-1409222J1409178D01*
G01*
X90068554Y-81206446D02*
G75*
G02*
X90422107Y-81060005I353546J-353554D01*
G01*
%TO.N,/SEG_J*%
X90665000Y-81695000D02*
X90700000Y-81660000D01*
X90700000Y-81660000D02*
X95097155Y-81660000D01*
X96877403Y-80922597D02*
X98425000Y-79375000D01*
X90665000Y-81915000D02*
X90665000Y-81695000D01*
X96877403Y-80922597D02*
G75*
G02*
X95097155Y-81659954I-1780203J1780297D01*
G01*
%TO.N,/SEG_C*%
X108585000Y-92075000D02*
X108585000Y-94615000D01*
%TO.N,/SEG_G2*%
X102175864Y-93374136D02*
X100950000Y-94600000D01*
X106185000Y-92075000D02*
X106185000Y-92295000D01*
X106150000Y-92330000D02*
X104696631Y-92330000D01*
X106185000Y-92295000D02*
X106150000Y-92330000D01*
X104696631Y-92330000D02*
G75*
G03*
X102175849Y-93374121I-31J-3564900D01*
G01*
%TO.N,/SEG_K*%
X97163501Y-93353501D02*
X98425000Y-94615000D01*
X90665000Y-92075000D02*
X90665000Y-92295000D01*
X90665000Y-92295000D02*
X90700000Y-92330000D01*
X90700000Y-92330000D02*
X94692552Y-92330000D01*
X94692552Y-92330000D02*
G75*
G02*
X97163515Y-93353487I48J-3494400D01*
G01*
%TO.N,/SEG_E*%
X88265000Y-92075000D02*
X88265000Y-94615000D01*
%TO.N,/SEG_L*%
X90011447Y-92631447D02*
X90017107Y-92637107D01*
X94989606Y-93719606D02*
X95885000Y-94615000D01*
X89865000Y-92075000D02*
X89865000Y-92277893D01*
X90724214Y-92930000D02*
X93083328Y-92930000D01*
X89865000Y-92277893D02*
G75*
G03*
X90011444Y-92631450I500000J-7D01*
G01*
X90724214Y-92930000D02*
G75*
G02*
X90017100Y-92637114I-14J1000000D01*
G01*
X93083328Y-92930000D02*
G75*
G02*
X94989595Y-93719617I-28J-2695900D01*
G01*
%TO.N,/SEG_M*%
X89357893Y-93167893D02*
X90805000Y-94615000D01*
X89065000Y-92075000D02*
X89065000Y-92460786D01*
X89065000Y-92460786D02*
G75*
G03*
X89357886Y-93167900I1000000J-14D01*
G01*
%TO.N,/SEG_A*%
X106357893Y-81075000D02*
X105540334Y-81075000D01*
X106838553Y-81348553D02*
X106711446Y-81221446D01*
X106985000Y-81915000D02*
X106985000Y-81702107D01*
X104967884Y-80837884D02*
X103505000Y-79375000D01*
X106711446Y-81221446D02*
G75*
G03*
X106357893Y-81075005I-353546J-353554D01*
G01*
X105540334Y-81075000D02*
G75*
G02*
X104967860Y-80837908I-34J809600D01*
G01*
X106838553Y-81348553D02*
G75*
G02*
X106984995Y-81702107I-353553J-353547D01*
G01*
D16*
%TO.N,GND*%
X97450000Y-82820000D02*
X97450000Y-84132500D01*
%TO.N,VCC*%
X96150000Y-83095001D02*
X96150000Y-84132500D01*
D15*
%TO.N,/GPIO_PA1*%
X88265000Y-83715000D02*
X88265000Y-84058553D01*
X88265000Y-84058553D02*
X89699819Y-85493372D01*
X98105796Y-85560479D02*
X98630031Y-85036244D01*
X91478197Y-86230000D02*
X96489429Y-86230000D01*
X98750000Y-84746613D02*
X98750000Y-84132500D01*
X91478197Y-86230000D02*
G75*
G02*
X89699822Y-85493369I3J2515000D01*
G01*
X98105796Y-85560479D02*
G75*
G02*
X96489429Y-86230017I-1616396J1616379D01*
G01*
X98750000Y-84746613D02*
G75*
G02*
X98630024Y-85036237I-409600J13D01*
G01*
%TO.N,/GPIO_PD0*%
X90011447Y-84241447D02*
X90562266Y-84792266D01*
X89865000Y-83715000D02*
X89865000Y-83887893D01*
X91619050Y-85230000D02*
X96213086Y-85230000D01*
X96800000Y-84662893D02*
X96800000Y-84132500D01*
X96600452Y-85069548D02*
X96653554Y-85016446D01*
X96213086Y-85230000D02*
G75*
G03*
X96600455Y-85069551I14J547800D01*
G01*
X89865000Y-83887893D02*
G75*
G03*
X90011444Y-84241450I500000J-7D01*
G01*
X91619050Y-85230000D02*
G75*
G02*
X90562245Y-84792287I-50J1494500D01*
G01*
X96653554Y-85016446D02*
G75*
G03*
X96799995Y-84662893I-353554J353546D01*
G01*
%TO.N,/GPIO_PC0*%
X95500000Y-84730000D02*
X91802069Y-84730000D01*
X90944983Y-84374983D02*
X90811446Y-84241446D01*
X95500000Y-84132500D02*
X95500000Y-84730000D01*
X90665000Y-83887893D02*
X90665000Y-83715000D01*
X91802069Y-84730000D02*
G75*
G02*
X90944999Y-84374967I31J1212100D01*
G01*
X90665000Y-83887893D02*
G75*
G03*
X90811443Y-84241449I500000J-7D01*
G01*
%TO.N,/GPIO_PA2*%
X91574605Y-85730000D02*
X96340909Y-85730000D01*
X89211447Y-84241447D02*
X90081560Y-85111560D01*
X98100000Y-84515976D02*
X98100000Y-84132500D01*
X89065000Y-83715000D02*
X89065000Y-83887893D01*
X97857326Y-85101842D02*
G75*
G02*
X96340909Y-85730020I-1516426J1516242D01*
G01*
X97857326Y-85101842D02*
G75*
G03*
X98099994Y-84515976I-585826J585842D01*
G01*
X89211447Y-84241447D02*
G75*
G02*
X89065005Y-83887893I353553J353547D01*
G01*
X91574605Y-85730000D02*
G75*
G02*
X90081554Y-85111566I-5J2111500D01*
G01*
%TO.N,/GPIO_PD4*%
X101400000Y-84730000D02*
X104943621Y-84730000D01*
X101350000Y-84680000D02*
X101400000Y-84730000D01*
X106185000Y-83922893D02*
X106185000Y-83715000D01*
X101350000Y-84132500D02*
X101350000Y-84680000D01*
X106038554Y-84276446D02*
G75*
G02*
X104943621Y-84730022I-1094954J1094846D01*
G01*
X106038554Y-84276446D02*
G75*
G03*
X106184995Y-83922893I-353554J353546D01*
G01*
%TO.N,/GPIO_PD7*%
X99400000Y-84132500D02*
X99400000Y-83488446D01*
X99872663Y-82347337D02*
X100125000Y-82095000D01*
X99400000Y-83488446D02*
G75*
G02*
X99872634Y-82347308I1613800J46D01*
G01*
%TO.N,/GPIO_PC1*%
X95500000Y-89230000D02*
X91990928Y-89230000D01*
X95500000Y-89857500D02*
X95500000Y-89230000D01*
X90665000Y-90072107D02*
X90665000Y-90275000D01*
X90665000Y-90072107D02*
G75*
G02*
X90811443Y-89718551I500000J7D01*
G01*
X91990928Y-89230000D02*
G75*
G03*
X90811421Y-89718529I-28J-1668100D01*
G01*
%TO.N,/GPIO_PC6*%
X107492107Y-84707893D02*
X107053714Y-85146286D01*
X107053714Y-85146286D02*
X106960112Y-85237241D01*
X107785000Y-84000786D02*
X107782955Y-84099077D01*
X105644502Y-85730000D02*
X103398382Y-85730000D01*
X107744608Y-84291882D02*
X107669384Y-84473501D01*
X106960112Y-85237241D02*
X106753048Y-85396135D01*
X107560174Y-84636956D02*
X107492107Y-84707893D01*
X106753048Y-85396135D02*
X106527015Y-85526641D01*
X107782955Y-84099077D02*
X107744608Y-84291882D01*
X100930226Y-86752344D02*
X98896446Y-88786124D01*
X106285882Y-85626528D02*
X106033773Y-85694086D01*
X106033773Y-85694086D02*
X105775004Y-85728159D01*
X98750000Y-89139677D02*
X98750000Y-89857500D01*
X106527015Y-85526641D02*
X106285882Y-85626528D01*
X105775004Y-85728159D02*
X105644502Y-85730000D01*
X107785000Y-83715000D02*
X107785000Y-84000786D01*
X107669384Y-84473501D02*
X107560174Y-84636956D01*
X103398382Y-85730000D02*
G75*
G03*
X100930235Y-86752353I18J-3490500D01*
G01*
X98750000Y-89139677D02*
G75*
G02*
X98896458Y-88786136I500000J-23D01*
G01*
%TO.N,/GPIO_PD2*%
X100695464Y-89337939D02*
X100695464Y-89857500D01*
X100934511Y-88891785D02*
X100841910Y-88984386D01*
X106834017Y-89718553D02*
X106462744Y-89347280D01*
X104972498Y-88730000D02*
X101325094Y-88730000D01*
X106980464Y-90275000D02*
X106980464Y-90072107D01*
X100695464Y-89337939D02*
G75*
G02*
X100841883Y-88984359I500036J39D01*
G01*
X101325094Y-88730000D02*
G75*
G03*
X100934507Y-88891781I6J-552400D01*
G01*
X104972498Y-88730000D02*
G75*
G02*
X106462740Y-89347284I2J-2107500D01*
G01*
X106980464Y-90072107D02*
G75*
G03*
X106834013Y-89718557I-499964J7D01*
G01*
%TO.N,/GPIO_PC2*%
X95910953Y-88891785D02*
X96003554Y-88984386D01*
X91872966Y-88730000D02*
X95520370Y-88730000D01*
X96150000Y-89337939D02*
X96150000Y-89857500D01*
X89865000Y-90275000D02*
X89865000Y-90072107D01*
X90011447Y-89718553D02*
X90382720Y-89347280D01*
X95520370Y-88730000D02*
G75*
G02*
X95910975Y-88891763I30J-552400D01*
G01*
X91872966Y-88730000D02*
G75*
G03*
X90382742Y-89347302I34J-2107500D01*
G01*
X89865000Y-90072107D02*
G75*
G02*
X90011444Y-89718550I500000J7D01*
G01*
X96150000Y-89337939D02*
G75*
G03*
X96003573Y-88984367I-500000J39D01*
G01*
%TO.N,/GPIO_PC7*%
X108434017Y-89820000D02*
X107026746Y-88412729D01*
X105378491Y-87730000D02*
X101215304Y-87730000D01*
X108580464Y-90275000D02*
X108580464Y-90173554D01*
X99395464Y-89430832D02*
X99395464Y-89857500D01*
X100305037Y-88107045D02*
X99688357Y-88723725D01*
X100305037Y-88107045D02*
G75*
G02*
X101215304Y-87729999I910263J-910255D01*
G01*
X108580464Y-90173554D02*
G75*
G03*
X108433986Y-89820031I-499964J-46D01*
G01*
X105378491Y-87730000D02*
G75*
G02*
X107026753Y-88412722I9J-2331000D01*
G01*
X99688357Y-88723725D02*
G75*
G03*
X99395497Y-89430832I707143J-707075D01*
G01*
%TO.N,/GPIO_PC4*%
X91466973Y-87730000D02*
X95630160Y-87730000D01*
X88265000Y-90275000D02*
X88265000Y-90173554D01*
X97450000Y-89430832D02*
X97450000Y-89857500D01*
X88411447Y-89820000D02*
X89818718Y-88412729D01*
X96540427Y-88107045D02*
X97157107Y-88723725D01*
X96540427Y-88107045D02*
G75*
G03*
X95630160Y-87730025I-910227J-910255D01*
G01*
X88265000Y-90173554D02*
G75*
G02*
X88411470Y-89820023I500000J-46D01*
G01*
X91466973Y-87730000D02*
G75*
G03*
X89818729Y-88412740I27J-2331000D01*
G01*
X97157107Y-88723725D02*
G75*
G02*
X97449978Y-89430832I-707107J-707075D01*
G01*
%TO.N,/GPIO_PD1*%
X100591686Y-88527503D02*
X100246142Y-88873047D01*
X107780464Y-90275000D02*
X107780464Y-90165001D01*
X105234097Y-88230000D02*
X101309922Y-88230000D01*
X107634017Y-89811447D02*
X106631318Y-88808748D01*
X100045464Y-89357527D02*
X100045464Y-89857500D01*
X100050000Y-90995000D02*
X100050000Y-89857500D01*
X106631318Y-88808748D02*
G75*
G03*
X105234097Y-88230011I-1397218J-1397252D01*
G01*
X107634017Y-89811447D02*
G75*
G02*
X107780474Y-90165001I-353517J-353553D01*
G01*
X100246142Y-88873047D02*
G75*
G03*
X100045476Y-89357527I484458J-484453D01*
G01*
X100591686Y-88527503D02*
G75*
G02*
X101309922Y-88230004I718214J-718197D01*
G01*
%TO.N,/GPIO_PC5*%
X98100000Y-89082571D02*
X98100000Y-89857500D01*
X105431638Y-85230000D02*
X103262354Y-85230000D01*
X100672861Y-86302603D02*
X98246446Y-88729018D01*
X106985000Y-83715000D02*
X106985000Y-84000786D01*
X98246446Y-88729018D02*
G75*
G03*
X98099979Y-89082571I353554J-353582D01*
G01*
X106692107Y-84707893D02*
G75*
G02*
X105431638Y-85230016I-1260507J1260493D01*
G01*
X106985000Y-84000786D02*
G75*
G02*
X106692114Y-84707900I-1000000J-14D01*
G01*
X103262354Y-85230000D02*
G75*
G03*
X100672883Y-86302625I46J-3662100D01*
G01*
%TO.N,/GPIO_PD5*%
X97775000Y-88245000D02*
X100229020Y-85790980D01*
X100700000Y-84653934D02*
X100700000Y-84132500D01*
X100700000Y-84653934D02*
G75*
G02*
X100228998Y-85790958I-1608000J34D01*
G01*
%TO.N,/GPIO_PD6*%
X100050000Y-84722631D02*
X100050000Y-84132500D01*
X98633863Y-86275305D02*
X99953454Y-84955714D01*
X89525000Y-86995000D02*
X96896367Y-86995000D01*
X99953454Y-84955714D02*
G75*
G03*
X100050031Y-84722631I-233054J233114D01*
G01*
X98633863Y-86275305D02*
G75*
G02*
X96896367Y-86994973I-1737463J1737505D01*
G01*
%TO.N,/GPIO_PC3*%
X91611367Y-88230000D02*
X95535542Y-88230000D01*
X96253778Y-88527503D02*
X96599322Y-88873047D01*
X89211447Y-89811447D02*
X90214146Y-88808748D01*
X89065000Y-90275000D02*
X89065000Y-90165001D01*
X96800000Y-89357527D02*
X96800000Y-89857500D01*
X96599322Y-88873047D02*
G75*
G02*
X96799969Y-89357527I-484522J-484453D01*
G01*
X96253778Y-88527503D02*
G75*
G03*
X95535542Y-88229959I-718278J-718197D01*
G01*
X90214146Y-88808748D02*
G75*
G02*
X91611367Y-88229986I1397254J-1397252D01*
G01*
X89211447Y-89811447D02*
G75*
G03*
X89065001Y-90165001I353553J-353553D01*
G01*
%TO.N,/GPIO_PD3*%
X106180464Y-90072107D02*
X106180464Y-90275000D01*
X101345464Y-89857500D02*
X101345464Y-89230000D01*
X101345464Y-89230000D02*
X104854536Y-89230000D01*
X106180464Y-90072107D02*
G75*
G03*
X106034014Y-89718558I-499964J7D01*
G01*
X104854536Y-89230000D02*
G75*
G02*
X106034011Y-89718561I-36J-1668100D01*
G01*
%TD*%
%TA.AperFunction,Conductor*%
%TO.N,GND*%
G36*
X109829818Y-76895977D02*
G01*
X109951736Y-76907996D01*
X109970762Y-76911782D01*
X110041048Y-76933107D01*
X110083327Y-76945936D01*
X110101255Y-76953363D01*
X110204992Y-77008817D01*
X110221126Y-77019598D01*
X110312055Y-77094223D01*
X110325776Y-77107944D01*
X110400401Y-77198873D01*
X110411182Y-77215007D01*
X110466636Y-77318744D01*
X110474063Y-77336672D01*
X110508216Y-77449234D01*
X110512003Y-77468265D01*
X110524022Y-77590180D01*
X110524500Y-77599893D01*
X110524500Y-96390138D01*
X110524023Y-96399842D01*
X110512014Y-96521762D01*
X110508228Y-96540796D01*
X110474084Y-96653354D01*
X110466657Y-96671285D01*
X110411208Y-96775022D01*
X110400426Y-96791158D01*
X110325806Y-96882083D01*
X110312083Y-96895806D01*
X110221158Y-96970426D01*
X110205022Y-96981208D01*
X110101285Y-97036657D01*
X110083354Y-97044084D01*
X109970796Y-97078228D01*
X109951763Y-97082014D01*
X109845719Y-97092459D01*
X109829841Y-97094023D01*
X109820139Y-97094500D01*
X87080575Y-97094500D01*
X87080500Y-97094494D01*
X87029832Y-97094499D01*
X87020127Y-97094023D01*
X86898210Y-97082026D01*
X86879174Y-97078241D01*
X86822894Y-97061173D01*
X86766616Y-97044105D01*
X86748683Y-97036678D01*
X86644946Y-96981235D01*
X86628810Y-96970453D01*
X86537883Y-96895832D01*
X86524167Y-96882116D01*
X86449545Y-96791187D01*
X86438767Y-96775058D01*
X86383319Y-96671312D01*
X86375896Y-96653387D01*
X86341756Y-96540817D01*
X86337974Y-96521797D01*
X86325975Y-96399862D01*
X86325500Y-96390175D01*
X86325505Y-96347435D01*
X86325504Y-96347432D01*
X86325505Y-96339972D01*
X86325500Y-96339892D01*
X86325500Y-94615000D01*
X87059357Y-94615000D01*
X87079885Y-94836536D01*
X87140771Y-95050528D01*
X87239942Y-95249689D01*
X87374019Y-95427236D01*
X87538438Y-95577124D01*
X87727599Y-95694247D01*
X87935060Y-95774618D01*
X88153757Y-95815500D01*
X88376243Y-95815500D01*
X88594940Y-95774618D01*
X88802401Y-95694247D01*
X88991562Y-95577124D01*
X89155981Y-95427236D01*
X89290058Y-95249689D01*
X89389229Y-95050528D01*
X89439780Y-94872859D01*
X89473889Y-94822065D01*
X89531342Y-94801021D01*
X89590191Y-94817765D01*
X89627960Y-94865902D01*
X89630215Y-94872845D01*
X89680771Y-95050528D01*
X89779942Y-95249689D01*
X89914019Y-95427236D01*
X90078438Y-95577124D01*
X90267599Y-95694247D01*
X90475060Y-95774618D01*
X90693757Y-95815500D01*
X90916243Y-95815500D01*
X91134940Y-95774618D01*
X91342401Y-95694247D01*
X91531562Y-95577124D01*
X91695981Y-95427236D01*
X91830058Y-95249689D01*
X91929229Y-95050528D01*
X91979780Y-94872859D01*
X92013889Y-94822065D01*
X92071342Y-94801021D01*
X92130191Y-94817765D01*
X92167960Y-94865902D01*
X92170215Y-94872845D01*
X92220771Y-95050528D01*
X92319942Y-95249689D01*
X92454019Y-95427236D01*
X92618438Y-95577124D01*
X92807599Y-95694247D01*
X93015060Y-95774618D01*
X93233757Y-95815500D01*
X93456243Y-95815500D01*
X93674940Y-95774618D01*
X93882401Y-95694247D01*
X94071562Y-95577124D01*
X94235981Y-95427236D01*
X94370058Y-95249689D01*
X94469229Y-95050528D01*
X94519780Y-94872859D01*
X94553889Y-94822065D01*
X94611342Y-94801021D01*
X94670191Y-94817765D01*
X94707960Y-94865902D01*
X94710215Y-94872845D01*
X94760771Y-95050528D01*
X94859942Y-95249689D01*
X94994019Y-95427236D01*
X95158438Y-95577124D01*
X95347599Y-95694247D01*
X95555060Y-95774618D01*
X95773757Y-95815500D01*
X95996243Y-95815500D01*
X96214940Y-95774618D01*
X96422401Y-95694247D01*
X96611562Y-95577124D01*
X96775981Y-95427236D01*
X96910058Y-95249689D01*
X97009229Y-95050528D01*
X97059780Y-94872859D01*
X97093889Y-94822065D01*
X97151342Y-94801021D01*
X97210191Y-94817765D01*
X97247960Y-94865902D01*
X97250215Y-94872845D01*
X97300771Y-95050528D01*
X97399942Y-95249689D01*
X97534019Y-95427236D01*
X97698438Y-95577124D01*
X97887599Y-95694247D01*
X98095060Y-95774618D01*
X98313757Y-95815500D01*
X98536243Y-95815500D01*
X98754940Y-95774618D01*
X98962401Y-95694247D01*
X99151562Y-95577124D01*
X99315981Y-95427236D01*
X99450058Y-95249689D01*
X99549229Y-95050528D01*
X99599780Y-94872859D01*
X99633889Y-94822065D01*
X99691342Y-94801021D01*
X99750191Y-94817765D01*
X99787960Y-94865902D01*
X99790215Y-94872845D01*
X99840771Y-95050528D01*
X99939942Y-95249689D01*
X100074019Y-95427236D01*
X100238438Y-95577124D01*
X100427599Y-95694247D01*
X100635060Y-95774618D01*
X100853757Y-95815500D01*
X101076243Y-95815500D01*
X101294940Y-95774618D01*
X101502401Y-95694247D01*
X101691562Y-95577124D01*
X101855981Y-95427236D01*
X101990058Y-95249689D01*
X102089229Y-95050528D01*
X102139780Y-94872859D01*
X102173889Y-94822065D01*
X102231342Y-94801021D01*
X102290191Y-94817765D01*
X102327960Y-94865902D01*
X102330215Y-94872845D01*
X102380771Y-95050528D01*
X102479942Y-95249689D01*
X102614019Y-95427236D01*
X102778438Y-95577124D01*
X102967599Y-95694247D01*
X103175060Y-95774618D01*
X103393757Y-95815500D01*
X103616243Y-95815500D01*
X103834940Y-95774618D01*
X104042401Y-95694247D01*
X104231562Y-95577124D01*
X104395981Y-95427236D01*
X104530058Y-95249689D01*
X104629229Y-95050528D01*
X104679780Y-94872859D01*
X104713889Y-94822065D01*
X104771342Y-94801021D01*
X104830191Y-94817765D01*
X104867960Y-94865902D01*
X104870215Y-94872845D01*
X104920771Y-95050528D01*
X105019942Y-95249689D01*
X105154019Y-95427236D01*
X105318438Y-95577124D01*
X105507599Y-95694247D01*
X105715060Y-95774618D01*
X105933757Y-95815500D01*
X106156243Y-95815500D01*
X106374940Y-95774618D01*
X106582401Y-95694247D01*
X106771562Y-95577124D01*
X106935981Y-95427236D01*
X107070058Y-95249689D01*
X107169229Y-95050528D01*
X107219780Y-94872859D01*
X107253889Y-94822065D01*
X107311342Y-94801021D01*
X107370191Y-94817765D01*
X107407960Y-94865902D01*
X107410215Y-94872845D01*
X107460771Y-95050528D01*
X107559942Y-95249689D01*
X107694019Y-95427236D01*
X107858438Y-95577124D01*
X108047599Y-95694247D01*
X108255060Y-95774618D01*
X108473757Y-95815500D01*
X108696243Y-95815500D01*
X108914940Y-95774618D01*
X109122401Y-95694247D01*
X109311562Y-95577124D01*
X109475981Y-95427236D01*
X109610058Y-95249689D01*
X109709229Y-95050528D01*
X109770115Y-94836536D01*
X109790643Y-94615000D01*
X109770115Y-94393464D01*
X109709229Y-94179472D01*
X109610058Y-93980311D01*
X109475981Y-93802764D01*
X109311562Y-93652876D01*
X109122401Y-93535753D01*
X109016307Y-93494652D01*
X108998737Y-93487845D01*
X108951306Y-93449193D01*
X108935500Y-93395530D01*
X108935500Y-92701903D01*
X108954407Y-92643712D01*
X108979497Y-92619588D01*
X108979552Y-92619552D01*
X109023867Y-92553231D01*
X109035500Y-92494748D01*
X109035500Y-91655252D01*
X109023867Y-91596769D01*
X108979552Y-91530448D01*
X108954998Y-91514041D01*
X108913233Y-91486134D01*
X108913231Y-91486133D01*
X108913228Y-91486132D01*
X108913227Y-91486132D01*
X108854758Y-91474501D01*
X108854748Y-91474500D01*
X108315252Y-91474500D01*
X108315251Y-91474500D01*
X108315241Y-91474501D01*
X108256772Y-91486132D01*
X108256766Y-91486134D01*
X108215002Y-91514041D01*
X108156114Y-91530650D01*
X108104998Y-91514041D01*
X108063233Y-91486134D01*
X108063231Y-91486133D01*
X108063228Y-91486132D01*
X108063227Y-91486132D01*
X108004758Y-91474501D01*
X108004748Y-91474500D01*
X107565252Y-91474500D01*
X107565251Y-91474500D01*
X107565241Y-91474501D01*
X107506772Y-91486132D01*
X107506766Y-91486134D01*
X107440002Y-91530746D01*
X107381114Y-91547355D01*
X107329998Y-91530746D01*
X107263233Y-91486134D01*
X107263231Y-91486133D01*
X107263228Y-91486132D01*
X107263227Y-91486132D01*
X107204758Y-91474501D01*
X107204748Y-91474500D01*
X106765252Y-91474500D01*
X106765251Y-91474500D01*
X106765241Y-91474501D01*
X106706772Y-91486132D01*
X106706766Y-91486134D01*
X106665002Y-91514041D01*
X106606114Y-91530650D01*
X106554998Y-91514041D01*
X106513233Y-91486134D01*
X106513231Y-91486133D01*
X106513228Y-91486132D01*
X106513227Y-91486132D01*
X106454758Y-91474501D01*
X106454748Y-91474500D01*
X105915252Y-91474500D01*
X105915251Y-91474500D01*
X105915241Y-91474501D01*
X105856772Y-91486132D01*
X105856766Y-91486134D01*
X105790451Y-91530445D01*
X105790445Y-91530451D01*
X105746134Y-91596766D01*
X105746132Y-91596772D01*
X105734501Y-91655241D01*
X105734500Y-91655253D01*
X105734500Y-91880500D01*
X105715593Y-91938691D01*
X105666093Y-91974655D01*
X105635500Y-91979500D01*
X104644442Y-91979500D01*
X104644107Y-91979521D01*
X104525676Y-91979521D01*
X104185092Y-92009315D01*
X104185083Y-92009316D01*
X103848385Y-92068682D01*
X103848377Y-92068684D01*
X103518129Y-92157170D01*
X103196843Y-92274108D01*
X102886973Y-92418599D01*
X102590890Y-92589541D01*
X102310819Y-92785646D01*
X102208457Y-92871537D01*
X102069505Y-92988131D01*
X102048898Y-93005422D01*
X101960653Y-93093665D01*
X101960645Y-93093671D01*
X101559664Y-93494652D01*
X101505148Y-93522429D01*
X101453898Y-93516963D01*
X101294940Y-93455382D01*
X101294939Y-93455381D01*
X101294937Y-93455381D01*
X101076243Y-93414500D01*
X100853757Y-93414500D01*
X100635062Y-93455381D01*
X100558797Y-93484926D01*
X100427599Y-93535753D01*
X100238438Y-93652876D01*
X100074019Y-93802764D01*
X100030550Y-93860326D01*
X99939943Y-93980309D01*
X99939938Y-93980318D01*
X99873183Y-94114380D01*
X99840771Y-94179472D01*
X99790219Y-94357140D01*
X99756111Y-94407934D01*
X99698658Y-94428978D01*
X99639809Y-94412234D01*
X99602040Y-94364097D01*
X99599784Y-94357154D01*
X99549229Y-94179472D01*
X99450058Y-93980311D01*
X99315981Y-93802764D01*
X99151562Y-93652876D01*
X98962401Y-93535753D01*
X98754940Y-93455382D01*
X98754939Y-93455381D01*
X98754937Y-93455381D01*
X98536243Y-93414500D01*
X98313757Y-93414500D01*
X98095062Y-93455381D01*
X97914478Y-93525340D01*
X97853386Y-93528730D01*
X97808711Y-93503029D01*
X97440352Y-93134670D01*
X97440322Y-93134612D01*
X97365770Y-93060061D01*
X97292650Y-92986941D01*
X97292645Y-92986936D01*
X97035457Y-92771130D01*
X97035453Y-92771127D01*
X97035451Y-92771125D01*
X96760420Y-92578548D01*
X96469651Y-92410674D01*
X96329355Y-92345254D01*
X96165359Y-92268782D01*
X95849854Y-92153950D01*
X95525547Y-92067055D01*
X95525539Y-92067053D01*
X95194897Y-92008756D01*
X95194886Y-92008754D01*
X94860430Y-91979498D01*
X94860422Y-91979498D01*
X94692547Y-91979500D01*
X91214500Y-91979500D01*
X91156309Y-91960593D01*
X91120345Y-91911093D01*
X91115500Y-91880500D01*
X91115500Y-91655253D01*
X91115498Y-91655241D01*
X91112711Y-91641231D01*
X91103867Y-91596769D01*
X91059552Y-91530448D01*
X91034998Y-91514041D01*
X90993233Y-91486134D01*
X90993231Y-91486133D01*
X90993228Y-91486132D01*
X90993227Y-91486132D01*
X90934758Y-91474501D01*
X90934748Y-91474500D01*
X90395252Y-91474500D01*
X90395251Y-91474500D01*
X90395241Y-91474501D01*
X90336772Y-91486132D01*
X90336766Y-91486134D01*
X90295002Y-91514041D01*
X90236114Y-91530650D01*
X90184998Y-91514041D01*
X90143233Y-91486134D01*
X90143231Y-91486133D01*
X90143228Y-91486132D01*
X90143227Y-91486132D01*
X90084758Y-91474501D01*
X90084748Y-91474500D01*
X89645252Y-91474500D01*
X89645251Y-91474500D01*
X89645241Y-91474501D01*
X89586772Y-91486132D01*
X89586766Y-91486134D01*
X89520002Y-91530746D01*
X89461114Y-91547355D01*
X89409998Y-91530746D01*
X89343233Y-91486134D01*
X89343231Y-91486133D01*
X89343228Y-91486132D01*
X89343227Y-91486132D01*
X89284758Y-91474501D01*
X89284748Y-91474500D01*
X88845252Y-91474500D01*
X88845251Y-91474500D01*
X88845241Y-91474501D01*
X88786772Y-91486132D01*
X88786766Y-91486134D01*
X88745002Y-91514041D01*
X88686114Y-91530650D01*
X88634998Y-91514041D01*
X88593233Y-91486134D01*
X88593231Y-91486133D01*
X88593228Y-91486132D01*
X88593227Y-91486132D01*
X88534758Y-91474501D01*
X88534748Y-91474500D01*
X87995252Y-91474500D01*
X87995251Y-91474500D01*
X87995241Y-91474501D01*
X87936772Y-91486132D01*
X87936766Y-91486134D01*
X87870451Y-91530445D01*
X87870445Y-91530451D01*
X87826134Y-91596766D01*
X87826132Y-91596772D01*
X87814501Y-91655241D01*
X87814500Y-91655253D01*
X87814500Y-92494746D01*
X87814501Y-92494758D01*
X87826132Y-92553227D01*
X87826134Y-92553233D01*
X87870445Y-92619548D01*
X87870448Y-92619552D01*
X87870501Y-92619587D01*
X87870564Y-92619667D01*
X87877343Y-92626446D01*
X87876540Y-92627248D01*
X87908381Y-92667637D01*
X87914500Y-92701903D01*
X87914500Y-93395530D01*
X87895593Y-93453721D01*
X87851263Y-93487845D01*
X87817877Y-93500779D01*
X87727599Y-93535753D01*
X87538438Y-93652876D01*
X87374019Y-93802764D01*
X87330550Y-93860326D01*
X87239943Y-93980309D01*
X87239938Y-93980318D01*
X87173183Y-94114380D01*
X87140771Y-94179472D01*
X87079885Y-94393464D01*
X87059357Y-94615000D01*
X86325500Y-94615000D01*
X86325500Y-83295253D01*
X87814500Y-83295253D01*
X87814500Y-84134746D01*
X87814501Y-84134758D01*
X87826132Y-84193227D01*
X87826134Y-84193233D01*
X87870445Y-84259548D01*
X87870448Y-84259552D01*
X87936769Y-84303867D01*
X87960582Y-84308603D01*
X88000023Y-84316450D01*
X87999761Y-84317766D01*
X88050443Y-84339923D01*
X88054700Y-84343935D01*
X89484606Y-85773841D01*
X89484608Y-85773842D01*
X89489261Y-85778495D01*
X89489293Y-85778523D01*
X89551518Y-85840747D01*
X89551525Y-85840754D01*
X89769150Y-86019355D01*
X89769160Y-86019363D01*
X90003257Y-86175783D01*
X90251558Y-86308503D01*
X90511673Y-86416247D01*
X90511683Y-86416250D01*
X90625454Y-86450763D01*
X90675651Y-86485748D01*
X90695697Y-86543557D01*
X90677936Y-86602107D01*
X90629151Y-86639036D01*
X90596716Y-86644500D01*
X89928759Y-86644500D01*
X89870568Y-86625593D01*
X89861596Y-86617359D01*
X89861480Y-86617494D01*
X89856128Y-86612856D01*
X89735057Y-86535049D01*
X89735054Y-86535047D01*
X89735053Y-86535047D01*
X89735050Y-86535046D01*
X89596964Y-86494500D01*
X89596961Y-86494500D01*
X89453039Y-86494500D01*
X89453035Y-86494500D01*
X89314949Y-86535046D01*
X89314942Y-86535049D01*
X89193873Y-86612855D01*
X89099622Y-86721628D01*
X89039834Y-86852543D01*
X89019353Y-86994997D01*
X89019353Y-86995002D01*
X89039834Y-87137456D01*
X89046642Y-87152363D01*
X89099623Y-87268373D01*
X89168682Y-87348072D01*
X89193873Y-87377144D01*
X89314942Y-87454950D01*
X89314947Y-87454953D01*
X89401044Y-87480233D01*
X89453035Y-87495499D01*
X89453036Y-87495499D01*
X89453039Y-87495500D01*
X89453041Y-87495500D01*
X89596959Y-87495500D01*
X89596961Y-87495500D01*
X89735053Y-87454953D01*
X89856128Y-87377143D01*
X89861480Y-87372506D01*
X89862968Y-87374223D01*
X89906341Y-87348072D01*
X89928759Y-87345500D01*
X90525846Y-87345500D01*
X90584037Y-87364407D01*
X90620001Y-87413907D01*
X90620001Y-87475093D01*
X90584037Y-87524593D01*
X90558544Y-87537944D01*
X90439197Y-87579706D01*
X90287876Y-87652580D01*
X90167850Y-87710383D01*
X90167833Y-87710391D01*
X89912846Y-87870611D01*
X89912831Y-87870621D01*
X89677355Y-88058410D01*
X88126655Y-89609110D01*
X88126364Y-89609440D01*
X88116314Y-89619490D01*
X88105992Y-89633696D01*
X88056489Y-89669657D01*
X88025903Y-89674500D01*
X87995252Y-89674500D01*
X87995251Y-89674500D01*
X87995241Y-89674501D01*
X87936772Y-89686132D01*
X87936766Y-89686134D01*
X87870451Y-89730445D01*
X87870445Y-89730451D01*
X87826134Y-89796766D01*
X87826132Y-89796772D01*
X87814501Y-89855241D01*
X87814500Y-89855253D01*
X87814500Y-90694746D01*
X87814501Y-90694758D01*
X87826132Y-90753227D01*
X87826134Y-90753233D01*
X87867009Y-90814406D01*
X87870448Y-90819552D01*
X87936769Y-90863867D01*
X87981231Y-90872711D01*
X87995241Y-90875498D01*
X87995246Y-90875498D01*
X87995252Y-90875500D01*
X87995253Y-90875500D01*
X88534747Y-90875500D01*
X88534748Y-90875500D01*
X88593231Y-90863867D01*
X88635000Y-90835956D01*
X88693885Y-90819349D01*
X88744998Y-90835956D01*
X88786769Y-90863867D01*
X88831231Y-90872711D01*
X88845241Y-90875498D01*
X88845246Y-90875498D01*
X88845252Y-90875500D01*
X88845253Y-90875500D01*
X89284747Y-90875500D01*
X89284748Y-90875500D01*
X89343231Y-90863867D01*
X89409552Y-90819552D01*
X89409553Y-90819549D01*
X89409997Y-90819253D01*
X89468885Y-90802644D01*
X89520003Y-90819253D01*
X89520446Y-90819549D01*
X89520448Y-90819552D01*
X89586769Y-90863867D01*
X89631231Y-90872711D01*
X89645241Y-90875498D01*
X89645246Y-90875498D01*
X89645252Y-90875500D01*
X89645253Y-90875500D01*
X90084747Y-90875500D01*
X90084748Y-90875500D01*
X90143231Y-90863867D01*
X90185000Y-90835956D01*
X90243885Y-90819349D01*
X90294998Y-90835956D01*
X90336769Y-90863867D01*
X90381231Y-90872711D01*
X90395241Y-90875498D01*
X90395246Y-90875498D01*
X90395252Y-90875500D01*
X90395253Y-90875500D01*
X90934747Y-90875500D01*
X90934748Y-90875500D01*
X90993231Y-90863867D01*
X91059552Y-90819552D01*
X91103867Y-90753231D01*
X91115500Y-90694748D01*
X91115500Y-89961961D01*
X91134407Y-89903770D01*
X91149223Y-89887530D01*
X91183981Y-89857051D01*
X91194245Y-89849176D01*
X91326768Y-89760632D01*
X91337956Y-89754173D01*
X91480922Y-89683676D01*
X91492852Y-89678735D01*
X91643792Y-89627502D01*
X91656269Y-89624160D01*
X91812597Y-89593067D01*
X91825415Y-89591380D01*
X91988236Y-89580711D01*
X91994706Y-89580500D01*
X92046436Y-89580501D01*
X92046439Y-89580500D01*
X95000500Y-89580500D01*
X95058691Y-89599407D01*
X95094655Y-89648907D01*
X95099500Y-89679500D01*
X95099500Y-90539860D01*
X95099501Y-90539863D01*
X95102414Y-90564990D01*
X95127756Y-90622385D01*
X95147794Y-90667765D01*
X95227235Y-90747206D01*
X95330009Y-90792585D01*
X95355135Y-90795500D01*
X95644864Y-90795499D01*
X95669991Y-90792585D01*
X95772765Y-90747206D01*
X95772766Y-90747204D01*
X95781157Y-90743500D01*
X95782205Y-90745875D01*
X95827739Y-90732462D01*
X95867948Y-90745526D01*
X95868843Y-90743500D01*
X95877233Y-90747204D01*
X95877235Y-90747206D01*
X95980009Y-90792585D01*
X96005135Y-90795500D01*
X96294864Y-90795499D01*
X96319991Y-90792585D01*
X96422765Y-90747206D01*
X96422766Y-90747204D01*
X96431157Y-90743500D01*
X96432205Y-90745875D01*
X96477739Y-90732462D01*
X96517948Y-90745526D01*
X96518843Y-90743500D01*
X96527233Y-90747204D01*
X96527235Y-90747206D01*
X96630009Y-90792585D01*
X96655135Y-90795500D01*
X96944864Y-90795499D01*
X96969991Y-90792585D01*
X97072765Y-90747206D01*
X97072766Y-90747204D01*
X97081157Y-90743500D01*
X97082205Y-90745875D01*
X97127739Y-90732462D01*
X97167948Y-90745526D01*
X97168843Y-90743500D01*
X97177233Y-90747204D01*
X97177235Y-90747206D01*
X97280009Y-90792585D01*
X97305135Y-90795500D01*
X97594864Y-90795499D01*
X97619991Y-90792585D01*
X97722765Y-90747206D01*
X97722766Y-90747204D01*
X97731157Y-90743500D01*
X97732205Y-90745875D01*
X97777739Y-90732462D01*
X97817948Y-90745526D01*
X97818843Y-90743500D01*
X97827233Y-90747204D01*
X97827235Y-90747206D01*
X97930009Y-90792585D01*
X97955135Y-90795500D01*
X98244864Y-90795499D01*
X98269991Y-90792585D01*
X98372765Y-90747206D01*
X98372766Y-90747204D01*
X98381157Y-90743500D01*
X98382205Y-90745875D01*
X98427739Y-90732462D01*
X98467948Y-90745526D01*
X98468843Y-90743500D01*
X98477233Y-90747204D01*
X98477235Y-90747206D01*
X98580009Y-90792585D01*
X98605135Y-90795500D01*
X98894864Y-90795499D01*
X98919991Y-90792585D01*
X99022765Y-90747206D01*
X99022766Y-90747204D01*
X99031157Y-90743500D01*
X99032205Y-90745875D01*
X99077739Y-90732462D01*
X99117948Y-90745526D01*
X99118843Y-90743500D01*
X99127233Y-90747204D01*
X99127235Y-90747206D01*
X99230009Y-90792585D01*
X99255135Y-90795500D01*
X99458784Y-90795499D01*
X99516974Y-90814406D01*
X99552938Y-90863906D01*
X99556776Y-90908587D01*
X99544353Y-90994995D01*
X99544353Y-90995002D01*
X99564834Y-91137456D01*
X99624622Y-91268371D01*
X99624623Y-91268373D01*
X99718872Y-91377143D01*
X99718873Y-91377144D01*
X99839942Y-91454950D01*
X99839947Y-91454953D01*
X99946134Y-91486132D01*
X99978035Y-91495499D01*
X99978036Y-91495499D01*
X99978039Y-91495500D01*
X99978041Y-91495500D01*
X100121959Y-91495500D01*
X100121961Y-91495500D01*
X100260053Y-91454953D01*
X100381128Y-91377143D01*
X100475377Y-91268373D01*
X100535165Y-91137457D01*
X100555647Y-90995000D01*
X100555646Y-90994995D01*
X100543223Y-90908588D01*
X100553656Y-90848299D01*
X100597534Y-90805657D01*
X100641211Y-90795499D01*
X100844864Y-90795499D01*
X100869991Y-90792585D01*
X100972765Y-90747206D01*
X100972766Y-90747204D01*
X100981157Y-90743500D01*
X100982205Y-90745875D01*
X101027739Y-90732462D01*
X101067948Y-90745526D01*
X101068843Y-90743500D01*
X101077233Y-90747204D01*
X101077235Y-90747206D01*
X101180009Y-90792585D01*
X101205135Y-90795500D01*
X101494864Y-90795499D01*
X101519991Y-90792585D01*
X101622765Y-90747206D01*
X101702206Y-90667765D01*
X101747585Y-90564991D01*
X101750500Y-90539865D01*
X101750499Y-89679499D01*
X101769406Y-89621309D01*
X101818906Y-89585345D01*
X101849499Y-89580500D01*
X104851285Y-89580500D01*
X104857761Y-89580712D01*
X104865478Y-89581217D01*
X105020042Y-89591351D01*
X105032856Y-89593039D01*
X105189168Y-89624133D01*
X105201672Y-89627484D01*
X105352596Y-89678716D01*
X105364543Y-89683665D01*
X105485915Y-89743519D01*
X105507479Y-89754154D01*
X105518694Y-89760629D01*
X105651203Y-89849169D01*
X105661475Y-89857050D01*
X105700774Y-89891514D01*
X105732058Y-89944094D01*
X105734500Y-89965946D01*
X105734500Y-90694746D01*
X105734501Y-90694758D01*
X105746132Y-90753227D01*
X105746134Y-90753233D01*
X105787009Y-90814406D01*
X105790448Y-90819552D01*
X105856769Y-90863867D01*
X105901231Y-90872711D01*
X105915241Y-90875498D01*
X105915246Y-90875498D01*
X105915252Y-90875500D01*
X105915253Y-90875500D01*
X106454747Y-90875500D01*
X106454748Y-90875500D01*
X106513231Y-90863867D01*
X106555000Y-90835956D01*
X106613885Y-90819349D01*
X106664998Y-90835956D01*
X106706769Y-90863867D01*
X106751231Y-90872711D01*
X106765241Y-90875498D01*
X106765246Y-90875498D01*
X106765252Y-90875500D01*
X106765253Y-90875500D01*
X107204747Y-90875500D01*
X107204748Y-90875500D01*
X107263231Y-90863867D01*
X107329552Y-90819552D01*
X107329553Y-90819549D01*
X107329997Y-90819253D01*
X107388885Y-90802644D01*
X107440003Y-90819253D01*
X107440446Y-90819549D01*
X107440448Y-90819552D01*
X107506769Y-90863867D01*
X107551231Y-90872711D01*
X107565241Y-90875498D01*
X107565246Y-90875498D01*
X107565252Y-90875500D01*
X107565253Y-90875500D01*
X108004747Y-90875500D01*
X108004748Y-90875500D01*
X108063231Y-90863867D01*
X108105000Y-90835956D01*
X108163885Y-90819349D01*
X108214998Y-90835956D01*
X108256769Y-90863867D01*
X108301231Y-90872711D01*
X108315241Y-90875498D01*
X108315246Y-90875498D01*
X108315252Y-90875500D01*
X108315253Y-90875500D01*
X108854747Y-90875500D01*
X108854748Y-90875500D01*
X108913231Y-90863867D01*
X108979552Y-90819552D01*
X109023867Y-90753231D01*
X109035500Y-90694748D01*
X109035500Y-89855252D01*
X109023867Y-89796769D01*
X108979552Y-89730448D01*
X108979548Y-89730445D01*
X108913233Y-89686134D01*
X108913231Y-89686133D01*
X108913228Y-89686132D01*
X108913227Y-89686132D01*
X108854758Y-89674501D01*
X108854748Y-89674500D01*
X108854747Y-89674500D01*
X108819604Y-89674500D01*
X108761413Y-89655593D01*
X108739518Y-89633700D01*
X108729171Y-89619462D01*
X108729169Y-89619460D01*
X108729167Y-89619457D01*
X108681835Y-89572136D01*
X108681831Y-89572127D01*
X108681829Y-89572130D01*
X107303588Y-88193889D01*
X107303572Y-88193858D01*
X107168108Y-88058396D01*
X106932637Y-87870617D01*
X106796451Y-87785047D01*
X106677621Y-87710382D01*
X106406268Y-87579708D01*
X106406264Y-87579706D01*
X106121994Y-87480236D01*
X105901770Y-87429973D01*
X105828363Y-87413219D01*
X105529079Y-87379500D01*
X105424635Y-87379500D01*
X101270819Y-87379500D01*
X101215305Y-87379500D01*
X101107957Y-87379500D01*
X101107955Y-87379500D01*
X101041020Y-87388312D01*
X100980859Y-87377162D01*
X100938742Y-87332779D01*
X100930756Y-87272117D01*
X100958092Y-87220158D01*
X101138812Y-87039439D01*
X101138814Y-87039438D01*
X101176382Y-87001869D01*
X101179862Y-86998557D01*
X101402785Y-86796511D01*
X101410291Y-86790351D01*
X101502952Y-86721628D01*
X101649998Y-86612569D01*
X101658053Y-86607187D01*
X101914035Y-86453757D01*
X101922578Y-86449190D01*
X102192374Y-86321585D01*
X102201325Y-86317877D01*
X102482323Y-86217333D01*
X102491592Y-86214521D01*
X102781101Y-86142001D01*
X102790599Y-86140112D01*
X103085804Y-86096322D01*
X103095446Y-86095372D01*
X103395718Y-86080618D01*
X103400576Y-86080500D01*
X103453898Y-86080500D01*
X105592266Y-86080500D01*
X105602911Y-86081121D01*
X105603304Y-86081115D01*
X105603307Y-86081116D01*
X105645428Y-86080521D01*
X105646262Y-86080510D01*
X105647659Y-86080500D01*
X105691048Y-86080500D01*
X105701674Y-86079727D01*
X105747312Y-86079083D01*
X105761617Y-86079919D01*
X105775011Y-86081683D01*
X105794706Y-86079088D01*
X105806224Y-86078252D01*
X105826087Y-86077973D01*
X105839079Y-86074294D01*
X105853119Y-86071398D01*
X106050317Y-86045432D01*
X106063241Y-86044585D01*
X106079926Y-86044585D01*
X106096041Y-86040266D01*
X106108747Y-86037738D01*
X106125279Y-86035562D01*
X106140695Y-86029174D01*
X106152945Y-86025016D01*
X106348164Y-85972703D01*
X106360835Y-85970183D01*
X106377389Y-85968004D01*
X106392799Y-85961619D01*
X106405064Y-85957456D01*
X106421177Y-85953139D01*
X106435636Y-85944789D01*
X106447230Y-85939071D01*
X106633935Y-85861732D01*
X106646202Y-85857568D01*
X106662309Y-85853252D01*
X106676754Y-85844910D01*
X106688371Y-85839182D01*
X106703784Y-85832798D01*
X106717017Y-85822642D01*
X106727777Y-85815451D01*
X106902792Y-85714402D01*
X106914398Y-85708678D01*
X106929818Y-85702292D01*
X106943058Y-85692131D01*
X106953810Y-85684946D01*
X106968265Y-85676601D01*
X106980070Y-85664794D01*
X106989780Y-85656278D01*
X107147553Y-85535208D01*
X107159539Y-85527323D01*
X107171280Y-85520768D01*
X107185573Y-85506877D01*
X107194289Y-85499344D01*
X107210097Y-85487215D01*
X107218280Y-85476548D01*
X107227822Y-85465823D01*
X107260511Y-85434059D01*
X107268698Y-85426981D01*
X107268918Y-85426760D01*
X107268926Y-85426756D01*
X107299423Y-85396257D01*
X107300154Y-85395537D01*
X107331069Y-85365498D01*
X107331069Y-85365496D01*
X107331297Y-85365276D01*
X107338487Y-85357193D01*
X107702973Y-84992706D01*
X107711106Y-84985426D01*
X107713056Y-84983863D01*
X107713063Y-84983860D01*
X107741856Y-84953851D01*
X107743192Y-84952487D01*
X107772576Y-84923105D01*
X107772581Y-84923094D01*
X107774094Y-84921125D01*
X107781208Y-84912840D01*
X107799689Y-84893580D01*
X107805813Y-84887725D01*
X107825975Y-84870043D01*
X107829609Y-84864603D01*
X107840497Y-84851053D01*
X107845024Y-84846335D01*
X107845023Y-84846335D01*
X107845027Y-84846332D01*
X107857942Y-84822853D01*
X107862359Y-84815583D01*
X107952650Y-84680443D01*
X107956403Y-84675205D01*
X107975549Y-84650256D01*
X107976264Y-84648530D01*
X107985418Y-84631403D01*
X107985450Y-84631353D01*
X107986455Y-84629851D01*
X107996568Y-84600054D01*
X107998827Y-84594051D01*
X108062804Y-84439586D01*
X108065467Y-84433707D01*
X108079373Y-84405511D01*
X108079737Y-84403677D01*
X108085376Y-84385091D01*
X108086088Y-84383372D01*
X108087994Y-84368889D01*
X108088727Y-84363317D01*
X108115065Y-84308092D01*
X108168834Y-84278894D01*
X108229496Y-84286877D01*
X108241873Y-84293914D01*
X108256769Y-84303867D01*
X108293097Y-84311093D01*
X108315241Y-84315498D01*
X108315246Y-84315498D01*
X108315252Y-84315500D01*
X108315253Y-84315500D01*
X108854747Y-84315500D01*
X108854748Y-84315500D01*
X108913231Y-84303867D01*
X108979552Y-84259552D01*
X109023867Y-84193231D01*
X109035500Y-84134748D01*
X109035500Y-83295252D01*
X109023867Y-83236769D01*
X108979552Y-83170448D01*
X108979548Y-83170445D01*
X108913233Y-83126134D01*
X108913231Y-83126133D01*
X108913228Y-83126132D01*
X108913227Y-83126132D01*
X108854758Y-83114501D01*
X108854748Y-83114500D01*
X108315252Y-83114500D01*
X108315251Y-83114500D01*
X108315241Y-83114501D01*
X108256772Y-83126132D01*
X108256766Y-83126134D01*
X108215002Y-83154041D01*
X108156114Y-83170650D01*
X108104998Y-83154041D01*
X108063233Y-83126134D01*
X108063231Y-83126133D01*
X108063228Y-83126132D01*
X108063227Y-83126132D01*
X108004758Y-83114501D01*
X108004748Y-83114500D01*
X107565252Y-83114500D01*
X107565251Y-83114500D01*
X107565241Y-83114501D01*
X107506772Y-83126132D01*
X107506766Y-83126134D01*
X107440002Y-83170746D01*
X107381114Y-83187355D01*
X107329998Y-83170746D01*
X107263233Y-83126134D01*
X107263231Y-83126133D01*
X107263228Y-83126132D01*
X107263227Y-83126132D01*
X107204758Y-83114501D01*
X107204748Y-83114500D01*
X106765252Y-83114500D01*
X106765251Y-83114500D01*
X106765241Y-83114501D01*
X106706772Y-83126132D01*
X106706766Y-83126134D01*
X106665002Y-83154041D01*
X106606114Y-83170650D01*
X106554998Y-83154041D01*
X106513233Y-83126134D01*
X106513231Y-83126133D01*
X106513228Y-83126132D01*
X106513227Y-83126132D01*
X106454758Y-83114501D01*
X106454748Y-83114500D01*
X105915252Y-83114500D01*
X105915251Y-83114500D01*
X105915241Y-83114501D01*
X105856772Y-83126132D01*
X105856766Y-83126134D01*
X105790451Y-83170445D01*
X105790445Y-83170451D01*
X105746134Y-83236766D01*
X105746132Y-83236772D01*
X105734501Y-83295241D01*
X105734500Y-83295253D01*
X105734500Y-84030984D01*
X105715593Y-84089175D01*
X105699801Y-84106259D01*
X105653683Y-84145651D01*
X105641119Y-84154781D01*
X105494124Y-84244866D01*
X105480283Y-84251919D01*
X105321010Y-84317898D01*
X105306235Y-84322699D01*
X105138599Y-84362950D01*
X105123254Y-84365381D01*
X104947770Y-84379195D01*
X104940001Y-84379500D01*
X101849500Y-84379500D01*
X101791309Y-84360593D01*
X101755345Y-84311093D01*
X101750500Y-84280500D01*
X101750499Y-83450139D01*
X101750499Y-83450136D01*
X101747585Y-83425009D01*
X101702206Y-83322235D01*
X101622765Y-83242794D01*
X101519991Y-83197415D01*
X101519990Y-83197414D01*
X101519988Y-83197414D01*
X101494868Y-83194500D01*
X101205140Y-83194500D01*
X101205135Y-83194501D01*
X101180009Y-83197414D01*
X101115365Y-83225958D01*
X101077235Y-83242794D01*
X101077234Y-83242794D01*
X101068843Y-83246500D01*
X101067794Y-83244126D01*
X101022243Y-83257537D01*
X100982050Y-83244477D01*
X100981157Y-83246500D01*
X100972766Y-83242795D01*
X100972765Y-83242794D01*
X100869991Y-83197415D01*
X100869990Y-83197414D01*
X100869988Y-83197414D01*
X100844868Y-83194500D01*
X100555140Y-83194500D01*
X100555135Y-83194501D01*
X100530009Y-83197414D01*
X100465365Y-83225958D01*
X100427235Y-83242794D01*
X100427234Y-83242794D01*
X100418843Y-83246500D01*
X100417794Y-83244126D01*
X100372243Y-83257537D01*
X100332050Y-83244477D01*
X100331157Y-83246500D01*
X100322766Y-83242795D01*
X100322765Y-83242794D01*
X100219991Y-83197415D01*
X100219990Y-83197414D01*
X100219988Y-83197414D01*
X100194869Y-83194500D01*
X99920532Y-83194500D01*
X99862341Y-83175593D01*
X99826377Y-83126093D01*
X99826377Y-83064907D01*
X99829062Y-83057628D01*
X99885196Y-82922098D01*
X99892241Y-82908271D01*
X99987678Y-82752519D01*
X99996797Y-82739966D01*
X100090535Y-82630206D01*
X100142703Y-82598236D01*
X100165817Y-82595500D01*
X100196959Y-82595500D01*
X100196961Y-82595500D01*
X100335053Y-82554953D01*
X100456128Y-82477143D01*
X100550377Y-82368373D01*
X100610165Y-82237457D01*
X100630647Y-82095000D01*
X100624365Y-82051309D01*
X100610165Y-81952543D01*
X100598667Y-81927367D01*
X100550377Y-81821627D01*
X100456128Y-81712857D01*
X100456127Y-81712856D01*
X100456126Y-81712855D01*
X100335057Y-81635049D01*
X100335054Y-81635047D01*
X100335053Y-81635047D01*
X100335050Y-81635046D01*
X100196964Y-81594500D01*
X100196961Y-81594500D01*
X100053039Y-81594500D01*
X100053035Y-81594500D01*
X99914949Y-81635046D01*
X99914942Y-81635049D01*
X99793873Y-81712855D01*
X99699622Y-81821628D01*
X99639834Y-81952543D01*
X99622378Y-82073957D01*
X99595382Y-82128865D01*
X99594392Y-82129869D01*
X99546789Y-82177475D01*
X99409231Y-82349980D01*
X99291861Y-82536784D01*
X99196140Y-82735567D01*
X99196139Y-82735569D01*
X99123281Y-82943806D01*
X99123280Y-82943812D01*
X99081673Y-83126132D01*
X99078799Y-83138724D01*
X99047418Y-83191249D01*
X98991157Y-83215298D01*
X98942294Y-83207262D01*
X98919994Y-83197416D01*
X98919988Y-83197414D01*
X98894868Y-83194500D01*
X98605140Y-83194500D01*
X98605135Y-83194501D01*
X98580009Y-83197414D01*
X98515365Y-83225958D01*
X98477235Y-83242794D01*
X98477234Y-83242794D01*
X98468843Y-83246500D01*
X98467794Y-83244126D01*
X98422243Y-83257537D01*
X98382050Y-83244477D01*
X98381157Y-83246500D01*
X98372766Y-83242795D01*
X98372765Y-83242794D01*
X98269991Y-83197415D01*
X98269990Y-83197414D01*
X98269988Y-83197414D01*
X98244868Y-83194500D01*
X97955140Y-83194500D01*
X97955135Y-83194501D01*
X97930009Y-83197414D01*
X97930007Y-83197415D01*
X97865362Y-83225958D01*
X97804492Y-83232165D01*
X97763636Y-83209900D01*
X97762865Y-83210981D01*
X97756187Y-83206213D01*
X97651246Y-83154911D01*
X97650000Y-83154729D01*
X97650000Y-84233500D01*
X97631093Y-84291691D01*
X97581593Y-84327655D01*
X97551000Y-84332500D01*
X97349000Y-84332500D01*
X97290809Y-84313593D01*
X97254845Y-84264093D01*
X97250000Y-84233500D01*
X97250000Y-83154730D01*
X97249999Y-83154729D01*
X97248753Y-83154911D01*
X97143812Y-83206213D01*
X97137135Y-83210981D01*
X97136211Y-83209688D01*
X97090100Y-83233177D01*
X97034638Y-83225959D01*
X96969991Y-83197415D01*
X96969988Y-83197414D01*
X96944869Y-83194500D01*
X96754647Y-83194500D01*
X96696456Y-83175593D01*
X96660492Y-83126093D01*
X96656677Y-83102006D01*
X96656655Y-83102010D01*
X96656428Y-83100435D01*
X96655647Y-83095500D01*
X96655647Y-83094998D01*
X96635165Y-82952544D01*
X96575377Y-82821629D01*
X96575377Y-82821628D01*
X96481128Y-82712858D01*
X96481127Y-82712857D01*
X96481126Y-82712856D01*
X96360057Y-82635050D01*
X96360054Y-82635048D01*
X96360053Y-82635048D01*
X96360050Y-82635047D01*
X96221964Y-82594501D01*
X96221961Y-82594501D01*
X96078039Y-82594501D01*
X96078035Y-82594501D01*
X95939949Y-82635047D01*
X95939942Y-82635050D01*
X95818873Y-82712856D01*
X95724622Y-82821629D01*
X95664834Y-82952544D01*
X95644353Y-83094998D01*
X95644353Y-83095500D01*
X95644223Y-83095898D01*
X95643345Y-83102009D01*
X95642287Y-83101856D01*
X95625446Y-83153691D01*
X95575946Y-83189655D01*
X95545354Y-83194500D01*
X95355140Y-83194500D01*
X95355135Y-83194501D01*
X95330009Y-83197414D01*
X95227235Y-83242794D01*
X95147794Y-83322235D01*
X95102414Y-83425011D01*
X95099500Y-83450130D01*
X95099500Y-83450132D01*
X95099501Y-84280500D01*
X95080594Y-84338691D01*
X95031094Y-84374655D01*
X95000501Y-84379500D01*
X91805974Y-84379500D01*
X91798204Y-84379195D01*
X91675060Y-84369500D01*
X91659717Y-84367069D01*
X91543404Y-84339142D01*
X91528637Y-84334343D01*
X91418125Y-84288565D01*
X91404284Y-84281513D01*
X91302292Y-84219008D01*
X91289725Y-84209877D01*
X91195578Y-84129465D01*
X91189871Y-84124189D01*
X91153575Y-84087892D01*
X91153574Y-84087891D01*
X91150118Y-84084435D01*
X91150118Y-84084436D01*
X91144496Y-84078814D01*
X91116719Y-84024297D01*
X91115500Y-84008810D01*
X91115500Y-83295253D01*
X91115498Y-83295241D01*
X91107998Y-83257537D01*
X91103867Y-83236769D01*
X91059552Y-83170448D01*
X91059548Y-83170445D01*
X90993233Y-83126134D01*
X90993231Y-83126133D01*
X90993228Y-83126132D01*
X90993227Y-83126132D01*
X90934758Y-83114501D01*
X90934748Y-83114500D01*
X90395252Y-83114500D01*
X90395251Y-83114500D01*
X90395241Y-83114501D01*
X90336772Y-83126132D01*
X90336766Y-83126134D01*
X90295002Y-83154041D01*
X90236114Y-83170650D01*
X90184998Y-83154041D01*
X90143233Y-83126134D01*
X90143231Y-83126133D01*
X90143228Y-83126132D01*
X90143227Y-83126132D01*
X90084758Y-83114501D01*
X90084748Y-83114500D01*
X89645252Y-83114500D01*
X89645251Y-83114500D01*
X89645241Y-83114501D01*
X89586772Y-83126132D01*
X89586766Y-83126134D01*
X89520002Y-83170746D01*
X89461114Y-83187355D01*
X89409998Y-83170746D01*
X89343233Y-83126134D01*
X89343231Y-83126133D01*
X89343228Y-83126132D01*
X89343227Y-83126132D01*
X89284758Y-83114501D01*
X89284748Y-83114500D01*
X88845252Y-83114500D01*
X88845251Y-83114500D01*
X88845241Y-83114501D01*
X88786772Y-83126132D01*
X88786766Y-83126134D01*
X88745002Y-83154041D01*
X88686114Y-83170650D01*
X88634998Y-83154041D01*
X88593233Y-83126134D01*
X88593231Y-83126133D01*
X88593228Y-83126132D01*
X88593227Y-83126132D01*
X88534758Y-83114501D01*
X88534748Y-83114500D01*
X87995252Y-83114500D01*
X87995251Y-83114500D01*
X87995241Y-83114501D01*
X87936772Y-83126132D01*
X87936766Y-83126134D01*
X87870451Y-83170445D01*
X87870445Y-83170451D01*
X87826134Y-83236766D01*
X87826132Y-83236772D01*
X87814501Y-83295241D01*
X87814500Y-83295253D01*
X86325500Y-83295253D01*
X86325500Y-79375000D01*
X87059357Y-79375000D01*
X87079885Y-79596536D01*
X87140771Y-79810528D01*
X87239942Y-80009689D01*
X87374019Y-80187236D01*
X87538438Y-80337124D01*
X87727599Y-80454247D01*
X87851263Y-80502154D01*
X87898694Y-80540804D01*
X87914500Y-80594468D01*
X87914500Y-81288097D01*
X87895593Y-81346288D01*
X87870505Y-81370409D01*
X87870473Y-81370431D01*
X87870449Y-81370447D01*
X87870445Y-81370451D01*
X87826134Y-81436766D01*
X87826132Y-81436772D01*
X87814501Y-81495241D01*
X87814500Y-81495253D01*
X87814500Y-82334746D01*
X87814501Y-82334758D01*
X87821188Y-82368373D01*
X87826133Y-82393231D01*
X87870448Y-82459552D01*
X87936769Y-82503867D01*
X87981231Y-82512711D01*
X87995241Y-82515498D01*
X87995246Y-82515498D01*
X87995252Y-82515500D01*
X87995253Y-82515500D01*
X88534747Y-82515500D01*
X88534748Y-82515500D01*
X88593231Y-82503867D01*
X88635000Y-82475956D01*
X88693885Y-82459349D01*
X88744998Y-82475956D01*
X88786769Y-82503867D01*
X88831231Y-82512711D01*
X88845241Y-82515498D01*
X88845246Y-82515498D01*
X88845252Y-82515500D01*
X88845253Y-82515500D01*
X89284747Y-82515500D01*
X89284748Y-82515500D01*
X89343231Y-82503867D01*
X89409552Y-82459552D01*
X89409553Y-82459549D01*
X89409997Y-82459253D01*
X89468885Y-82442644D01*
X89520003Y-82459253D01*
X89520446Y-82459549D01*
X89520448Y-82459552D01*
X89586769Y-82503867D01*
X89631231Y-82512711D01*
X89645241Y-82515498D01*
X89645246Y-82515498D01*
X89645252Y-82515500D01*
X89645253Y-82515500D01*
X90084747Y-82515500D01*
X90084748Y-82515500D01*
X90143231Y-82503867D01*
X90185000Y-82475956D01*
X90243885Y-82459349D01*
X90294998Y-82475956D01*
X90336769Y-82503867D01*
X90381231Y-82512711D01*
X90395241Y-82515498D01*
X90395246Y-82515498D01*
X90395252Y-82515500D01*
X90395253Y-82515500D01*
X90934747Y-82515500D01*
X90934748Y-82515500D01*
X90993231Y-82503867D01*
X91059552Y-82459552D01*
X91103867Y-82393231D01*
X91115500Y-82334748D01*
X91115500Y-82109500D01*
X91134407Y-82051309D01*
X91183907Y-82015345D01*
X91214500Y-82010500D01*
X95149602Y-82010500D01*
X95150293Y-82010453D01*
X95238051Y-82010456D01*
X95518498Y-81982839D01*
X95794888Y-81927868D01*
X96064559Y-81846070D01*
X96324913Y-81738234D01*
X96573445Y-81605399D01*
X96807760Y-81448843D01*
X97025602Y-81270074D01*
X97085928Y-81209748D01*
X97085944Y-81209737D01*
X97092613Y-81203067D01*
X97092615Y-81203067D01*
X97141792Y-81153890D01*
X97164493Y-81131191D01*
X97164493Y-81131189D01*
X97171590Y-81124094D01*
X97171602Y-81124079D01*
X97808712Y-80486968D01*
X97863227Y-80459193D01*
X97914474Y-80464658D01*
X98095060Y-80534618D01*
X98313757Y-80575500D01*
X98536243Y-80575500D01*
X98754940Y-80534618D01*
X98962401Y-80454247D01*
X99151562Y-80337124D01*
X99315981Y-80187236D01*
X99450058Y-80009689D01*
X99549229Y-79810528D01*
X99599780Y-79632859D01*
X99633889Y-79582065D01*
X99691342Y-79561021D01*
X99750191Y-79577765D01*
X99787960Y-79625902D01*
X99790215Y-79632845D01*
X99840771Y-79810528D01*
X99939942Y-80009689D01*
X100074019Y-80187236D01*
X100238438Y-80337124D01*
X100427599Y-80454247D01*
X100635060Y-80534618D01*
X100853757Y-80575500D01*
X101076243Y-80575500D01*
X101294940Y-80534618D01*
X101475525Y-80464658D01*
X101536613Y-80461269D01*
X101581289Y-80486970D01*
X102517456Y-81423137D01*
X102517455Y-81423137D01*
X102517456Y-81423138D01*
X102517457Y-81423139D01*
X102556712Y-81462393D01*
X102589340Y-81495021D01*
X102589342Y-81495022D01*
X102593908Y-81499588D01*
X102594004Y-81499672D01*
X102645824Y-81551491D01*
X102754717Y-81635047D01*
X102845764Y-81704910D01*
X103005531Y-81797153D01*
X103047922Y-81821628D01*
X103064020Y-81830922D01*
X103296857Y-81927368D01*
X103296864Y-81927370D01*
X103296873Y-81927373D01*
X103540289Y-81992599D01*
X103790155Y-82025498D01*
X103862046Y-82025498D01*
X103862054Y-82025500D01*
X103916166Y-82025500D01*
X103971679Y-82025501D01*
X103971682Y-82025500D01*
X105635500Y-82025500D01*
X105693691Y-82044407D01*
X105729655Y-82093907D01*
X105734500Y-82124500D01*
X105734500Y-82334746D01*
X105734501Y-82334758D01*
X105741188Y-82368373D01*
X105746133Y-82393231D01*
X105790448Y-82459552D01*
X105856769Y-82503867D01*
X105901231Y-82512711D01*
X105915241Y-82515498D01*
X105915246Y-82515498D01*
X105915252Y-82515500D01*
X105915253Y-82515500D01*
X106454747Y-82515500D01*
X106454748Y-82515500D01*
X106513231Y-82503867D01*
X106555000Y-82475956D01*
X106613885Y-82459349D01*
X106664998Y-82475956D01*
X106706769Y-82503867D01*
X106751231Y-82512711D01*
X106765241Y-82515498D01*
X106765246Y-82515498D01*
X106765252Y-82515500D01*
X106765253Y-82515500D01*
X107204747Y-82515500D01*
X107204748Y-82515500D01*
X107263231Y-82503867D01*
X107329552Y-82459552D01*
X107329553Y-82459549D01*
X107329997Y-82459253D01*
X107388885Y-82442644D01*
X107440003Y-82459253D01*
X107440446Y-82459549D01*
X107440448Y-82459552D01*
X107506769Y-82503867D01*
X107551231Y-82512711D01*
X107565241Y-82515498D01*
X107565246Y-82515498D01*
X107565252Y-82515500D01*
X107565253Y-82515500D01*
X108004747Y-82515500D01*
X108004748Y-82515500D01*
X108063231Y-82503867D01*
X108105000Y-82475956D01*
X108163885Y-82459349D01*
X108214998Y-82475956D01*
X108256769Y-82503867D01*
X108301231Y-82512711D01*
X108315241Y-82515498D01*
X108315246Y-82515498D01*
X108315252Y-82515500D01*
X108315253Y-82515500D01*
X108854747Y-82515500D01*
X108854748Y-82515500D01*
X108913231Y-82503867D01*
X108979552Y-82459552D01*
X109023867Y-82393231D01*
X109035500Y-82334748D01*
X109035500Y-81495252D01*
X109023867Y-81436769D01*
X108979552Y-81370448D01*
X108979497Y-81370411D01*
X108913233Y-81326134D01*
X108913231Y-81326133D01*
X108913228Y-81326132D01*
X108913227Y-81326132D01*
X108854758Y-81314501D01*
X108854748Y-81314500D01*
X108315252Y-81314500D01*
X108315251Y-81314500D01*
X108295262Y-81318476D01*
X108256769Y-81326133D01*
X108256768Y-81326133D01*
X108253815Y-81326721D01*
X108193053Y-81319529D01*
X108148123Y-81277997D01*
X108135500Y-81229623D01*
X108135500Y-81034510D01*
X108135712Y-81028033D01*
X108137690Y-80997858D01*
X108149767Y-80813654D01*
X108151455Y-80800838D01*
X108187137Y-80621468D01*
X108217034Y-80568087D01*
X108272600Y-80542472D01*
X108302424Y-80543471D01*
X108473757Y-80575500D01*
X108696243Y-80575500D01*
X108914940Y-80534618D01*
X109122401Y-80454247D01*
X109311562Y-80337124D01*
X109475981Y-80187236D01*
X109610058Y-80009689D01*
X109709229Y-79810528D01*
X109770115Y-79596536D01*
X109790643Y-79375000D01*
X109770115Y-79153464D01*
X109709229Y-78939472D01*
X109610058Y-78740311D01*
X109475981Y-78562764D01*
X109311562Y-78412876D01*
X109122401Y-78295753D01*
X108914940Y-78215382D01*
X108914939Y-78215381D01*
X108914937Y-78215381D01*
X108696243Y-78174500D01*
X108473757Y-78174500D01*
X108255062Y-78215381D01*
X108178797Y-78244926D01*
X108047599Y-78295753D01*
X107858438Y-78412876D01*
X107694020Y-78562763D01*
X107559943Y-78740309D01*
X107559938Y-78740318D01*
X107460772Y-78939469D01*
X107460771Y-78939472D01*
X107410219Y-79117140D01*
X107376111Y-79167934D01*
X107318658Y-79188978D01*
X107259809Y-79172234D01*
X107222040Y-79124097D01*
X107219784Y-79117154D01*
X107169229Y-78939472D01*
X107070058Y-78740311D01*
X106935981Y-78562764D01*
X106771562Y-78412876D01*
X106582401Y-78295753D01*
X106374940Y-78215382D01*
X106374939Y-78215381D01*
X106374937Y-78215381D01*
X106156243Y-78174500D01*
X105933757Y-78174500D01*
X105715062Y-78215381D01*
X105638797Y-78244926D01*
X105507599Y-78295753D01*
X105318438Y-78412876D01*
X105154020Y-78562763D01*
X105019943Y-78740309D01*
X105019938Y-78740318D01*
X104920772Y-78939469D01*
X104920771Y-78939472D01*
X104870219Y-79117140D01*
X104836111Y-79167934D01*
X104778658Y-79188978D01*
X104719809Y-79172234D01*
X104682040Y-79124097D01*
X104679784Y-79117154D01*
X104629229Y-78939472D01*
X104530058Y-78740311D01*
X104395981Y-78562764D01*
X104231562Y-78412876D01*
X104042401Y-78295753D01*
X103834940Y-78215382D01*
X103834939Y-78215381D01*
X103834937Y-78215381D01*
X103616243Y-78174500D01*
X103393757Y-78174500D01*
X103175062Y-78215381D01*
X103098797Y-78244926D01*
X102967599Y-78295753D01*
X102778438Y-78412876D01*
X102614020Y-78562763D01*
X102479943Y-78740309D01*
X102479938Y-78740318D01*
X102380772Y-78939469D01*
X102380771Y-78939472D01*
X102330219Y-79117140D01*
X102296111Y-79167934D01*
X102238658Y-79188978D01*
X102179809Y-79172234D01*
X102142040Y-79124097D01*
X102139784Y-79117154D01*
X102089229Y-78939472D01*
X101990058Y-78740311D01*
X101855981Y-78562764D01*
X101691562Y-78412876D01*
X101502401Y-78295753D01*
X101294940Y-78215382D01*
X101294939Y-78215381D01*
X101294937Y-78215381D01*
X101076243Y-78174500D01*
X100853757Y-78174500D01*
X100635062Y-78215381D01*
X100558797Y-78244926D01*
X100427599Y-78295753D01*
X100238438Y-78412876D01*
X100074020Y-78562763D01*
X99939943Y-78740309D01*
X99939938Y-78740318D01*
X99840772Y-78939469D01*
X99840771Y-78939472D01*
X99790219Y-79117140D01*
X99756111Y-79167934D01*
X99698658Y-79188978D01*
X99639809Y-79172234D01*
X99602040Y-79124097D01*
X99599784Y-79117154D01*
X99549229Y-78939472D01*
X99450058Y-78740311D01*
X99315981Y-78562764D01*
X99151562Y-78412876D01*
X98962401Y-78295753D01*
X98754940Y-78215382D01*
X98754939Y-78215381D01*
X98754937Y-78215381D01*
X98536243Y-78174500D01*
X98313757Y-78174500D01*
X98095062Y-78215381D01*
X98018797Y-78244926D01*
X97887599Y-78295753D01*
X97698438Y-78412876D01*
X97534020Y-78562763D01*
X97399943Y-78740309D01*
X97399938Y-78740318D01*
X97300772Y-78939469D01*
X97300771Y-78939472D01*
X97250219Y-79117140D01*
X97216111Y-79167934D01*
X97158658Y-79188978D01*
X97099809Y-79172234D01*
X97062040Y-79124097D01*
X97059784Y-79117154D01*
X97009229Y-78939472D01*
X96910058Y-78740311D01*
X96775981Y-78562764D01*
X96611562Y-78412876D01*
X96422401Y-78295753D01*
X96214940Y-78215382D01*
X96214939Y-78215381D01*
X96214937Y-78215381D01*
X95996243Y-78174500D01*
X95773757Y-78174500D01*
X95555062Y-78215381D01*
X95478797Y-78244926D01*
X95347599Y-78295753D01*
X95158438Y-78412876D01*
X94994020Y-78562763D01*
X94859943Y-78740309D01*
X94859938Y-78740318D01*
X94760772Y-78939469D01*
X94760771Y-78939472D01*
X94710219Y-79117140D01*
X94676111Y-79167934D01*
X94618658Y-79188978D01*
X94559809Y-79172234D01*
X94522040Y-79124097D01*
X94519784Y-79117154D01*
X94469229Y-78939472D01*
X94370058Y-78740311D01*
X94235981Y-78562764D01*
X94071562Y-78412876D01*
X93882401Y-78295753D01*
X93674940Y-78215382D01*
X93674939Y-78215381D01*
X93674937Y-78215381D01*
X93456243Y-78174500D01*
X93233757Y-78174500D01*
X93015062Y-78215381D01*
X92938797Y-78244926D01*
X92807599Y-78295753D01*
X92618438Y-78412876D01*
X92454020Y-78562763D01*
X92319943Y-78740309D01*
X92319938Y-78740318D01*
X92220772Y-78939469D01*
X92220771Y-78939472D01*
X92170219Y-79117140D01*
X92136111Y-79167934D01*
X92078658Y-79188978D01*
X92019809Y-79172234D01*
X91982040Y-79124097D01*
X91979784Y-79117154D01*
X91929229Y-78939472D01*
X91830058Y-78740311D01*
X91695981Y-78562764D01*
X91531562Y-78412876D01*
X91342401Y-78295753D01*
X91134940Y-78215382D01*
X91134939Y-78215381D01*
X91134937Y-78215381D01*
X90916243Y-78174500D01*
X90693757Y-78174500D01*
X90475062Y-78215381D01*
X90398797Y-78244926D01*
X90267599Y-78295753D01*
X90078438Y-78412876D01*
X89914020Y-78562763D01*
X89779943Y-78740309D01*
X89779938Y-78740318D01*
X89680772Y-78939469D01*
X89680771Y-78939472D01*
X89630219Y-79117140D01*
X89596111Y-79167934D01*
X89538658Y-79188978D01*
X89479809Y-79172234D01*
X89442040Y-79124097D01*
X89439784Y-79117154D01*
X89389229Y-78939472D01*
X89290058Y-78740311D01*
X89155981Y-78562764D01*
X88991562Y-78412876D01*
X88802401Y-78295753D01*
X88594940Y-78215382D01*
X88594939Y-78215381D01*
X88594937Y-78215381D01*
X88376243Y-78174500D01*
X88153757Y-78174500D01*
X87935062Y-78215381D01*
X87858797Y-78244926D01*
X87727599Y-78295753D01*
X87538438Y-78412876D01*
X87374020Y-78562763D01*
X87239943Y-78740309D01*
X87239938Y-78740318D01*
X87140772Y-78939469D01*
X87140771Y-78939472D01*
X87079885Y-79153464D01*
X87059357Y-79375000D01*
X86325500Y-79375000D01*
X86325500Y-77599861D01*
X86325977Y-77590157D01*
X86335583Y-77492623D01*
X86337985Y-77468233D01*
X86341771Y-77449203D01*
X86375915Y-77336645D01*
X86383342Y-77318714D01*
X86438791Y-77214977D01*
X86449573Y-77198841D01*
X86524196Y-77107912D01*
X86537912Y-77094196D01*
X86628842Y-77019571D01*
X86644977Y-77008791D01*
X86748675Y-76953363D01*
X86748716Y-76953340D01*
X86766643Y-76945915D01*
X86879207Y-76911770D01*
X86898233Y-76907985D01*
X87020157Y-76895976D01*
X87029861Y-76895500D01*
X87072595Y-76895500D01*
X109820107Y-76895500D01*
X109829818Y-76895977D01*
G37*
%TD.AperFunction*%
%TD*%
M02*
